<?xml version="1.0" encoding="utf-8"?>
<!-- Generator: Adobe Illustrator 22.1.0, SVG Export Plug-In . SVG Version: 6.00 Build 0)  -->
<svg version="1.1" id="Capa_1" xmlns="http://www.w3.org/2000/svg" xmlns:xlink="http://www.w3.org/1999/xlink" x="0px" y="0px"
	 viewBox="0 0 792 612" style="enable-background:new 0 0 792 612;" xml:space="preserve">
<style type="text/css">
	.st0{fill:url(#XMLID_2_);}
	.st1{fill:url(#XMLID_3_);}
	.st2{fill:#2DAFAC;}
	.st3{fill:#FFFFFF;}
	.st4{fill:#118D86;}
	.st5{fill:#40403F;}
</style>
<g id="XMLID_426_">
	<g id="XMLID_1140_">
		<linearGradient id="XMLID_2_" gradientUnits="userSpaceOnUse" x1="435.9456" y1="262.8987" x2="265.729" y2="376.6848">
			<stop  offset="5.299937e-03" style="stop-color:#FFFFFF;stop-opacity:0"/>
			<stop  offset="0.8636" style="stop-color:#DEE0E0"/>
		</linearGradient>
		<path id="XMLID_1142_" class="st0" d="M373.8,302.6c1.2,1.4,6.3,0.7,11.4-1.7c5.1-2.4,8.3-5.5,7.1-6.9c-1.2-1.4-6.3-0.7-11.4,1.7
			C375.8,298,372.6,301.1,373.8,302.6z"/>
		<linearGradient id="XMLID_3_" gradientUnits="userSpaceOnUse" x1="434.9534" y1="261.4144" x2="264.7368" y2="375.2005">
			<stop  offset="5.299937e-03" style="stop-color:#FFFFFF;stop-opacity:0"/>
			<stop  offset="0.8636" style="stop-color:#DEE0E0"/>
		</linearGradient>
		<path id="XMLID_1141_" class="st1" d="M421,292.8c0,0-41.6,15.3-51,13.1c-7.9-1.9-8.3-18.8-8.3-18.8s-0.1-0.4-0.9-0.3
			c-0.5,0.1-1.3,0.4-1.5,1.1c0,0-1.4,12.7-4.5,18.9c-0.3,0.9-1.5,2.5-3.1,3.7c0,0,0,0,0,0c-3.7,3.1-4.8,4.5-5.3,7.6
			c0,0-1.1,5.7-9.1,10c-12.5,6.8-19.9,13-23.1,17.3c0,0-1.2,1.4-2.6,2.3c-5.6,3.7-20.6,13.9-30,18.2c-9.6,4.4-5.4,5.1-5.4,5.1
			c2.5,0.5,14-5.3,26.6-11.6c0.8-0.4,1.1-0.3,1.1,0c-2.4,3.6-3.7,6.5-1.7,6.1c3.4,0.7,13.6-11.9,13.6-12c0.7-1,1.1-1.2,2.1-1.7
			c4.6-2.4,8.8-4.5,11.7-5.9c13-6.5,17.7-10.5,21.6-16.1c3.9-5.6,10.8-9.7,10.8-9.7c10.8-7.7,59.4-25.5,59.4-25.5c2.5-1.1,3-1.7,3-2
			C424.2,291.7,421,292.8,421,292.8z"/>
	</g>
	<g id="XMLID_1137_">
		<path id="XMLID_1139_" class="st2" d="M280.5,273.6c3,2.1,7.4,0.9,9.9-2.7c2.4-3.5,1.9-8.1-1.1-10.1c-3-2.1-7.4-0.9-9.9,2.7
			C277,267,277.5,271.6,280.5,273.6z"/>
		<path id="XMLID_1138_" class="st2" d="M318,258.8c0,0-24.7,22.8-37.3,19.7c-10.5-2.6-31.8-27.2-31.8-27.2s-0.6-0.6-1.4-0.4
			c-0.4,0.1-0.9,0.5-0.2,1.6c0,0,15.2,18.1,19.6,27.2c1.2,1.9,0.3,5.8,0.3,5.8c-0.6,4.2,0.5,6.6,3.8,11.1c0,0,5.8,8.2,2.8,14.6
			c-4.7,10-4.9,19-3,25.4c0,0,0.5,2.1,0.1,3.4c-1.4,5.4-4.5,20.4-9,26.8c-4.6,6.5,0.6,7.4,0.6,7.4c3.2,0.7,8.2-7.8,13.6-17.1
			c0.4-0.6,0.9-0.4,1.1-0.1c2,5.3,4.1,9.5,5.7,8.8c4.4,0.9-0.4-17.5-0.4-17.5c-0.4-1.4-0.3-1.7,0.1-2.5c1.9-3.5,3.7-6.6,4.9-8.8
			c5.6-9.6,5.6-15.5,2.8-23.6s-0.6-14.2-0.6-14.2c1.9-11.2,30.9-37.8,30.9-37.8c1.4-1.6,1.1-2.6,0.6-3
			C320,257.2,318,258.8,318,258.8z"/>
	</g>
	<g id="XMLID_1126_">
		<path id="XMLID_1133_" class="st2" d="M118.5,258c0.2-1.1,0.9-1.7,2-1.7h10.8c3.6,0,6.9,0.3,9.8,1c2.9,0.7,5.3,1.7,7.1,3.1
			c1.8,1.4,3.1,3.2,3.9,5.4c0.7,2.2,0.8,4.8,0.1,7.8c-0.5,2.6-1.5,4.9-2.8,6.9c-1.3,2-2.9,3.7-4.8,5.1c-0.5,0.3-0.9,0.7-1,1.2
			c-0.1,0.4,0,0.8,0.3,1c2.6,1.5,4.3,3.6,5.3,6.1c1,2.5,1.1,5.5,0.4,9c-0.6,3-1.7,5.6-3.4,7.9c-1.7,2.3-3.7,4.2-6.2,5.7
			c-2.5,1.5-5.3,2.7-8.5,3.5c-3.2,0.8-6.6,1.2-10.2,1.2h-14.4c-1.1,0-1.6-0.6-1.4-1.7L118.5,258z M137.2,302.8
			c0.5-2.1,0.4-4-0.1-5.5s-1.4-2.8-2.6-3.8c-1.2-1-2.6-1.7-4.3-2.1c-1.7-0.4-3.4-0.6-5.2-0.6c-0.9,0-1.4,0.4-1.5,1.3l-4.5,21
			c-0.1,0.5-0.1,0.8,0.3,1c0.3,0.2,0.7,0.3,1.2,0.3h2.2c2.7,0,4.9-0.4,6.7-1.2c1.8-0.8,3.2-1.8,4.3-3c1.1-1.2,1.9-2.4,2.5-3.8
			C136.6,305.2,137,304,137.2,302.8z M139.9,273.6c0.2-1.1,0.3-2.4,0.4-3.7c0-1.3-0.2-2.5-0.8-3.6c-0.5-1.1-1.5-1.9-2.9-2.6
			c-1.4-0.7-3.3-0.9-5.8-0.8c-0.8,0-1.3,0.4-1.4,1.3l-3.9,18.3c-0.3,1.1,0,1.6,0.9,1.6c2.5,0.1,4.5-0.2,6.1-0.9
			c1.6-0.7,2.9-1.5,3.9-2.6c1-1,1.8-2.2,2.3-3.5C139.3,276,139.6,274.8,139.9,273.6z"/>
		<g id="XMLID_1130_">
			<path class="st2" d="M222.4,322.2c-3.4,0-6.2-0.7-8.5-2.1c-2.3-1.4-4.1-3.3-5.4-5.6c-1.3-2.3-2-5-2.3-8.1c-0.2-3,0-6.3,0.8-9.7
				c0.7-3.4,1.8-6.6,3.3-9.7c1.5-3.1,3.5-5.8,5.7-8.1c2.3-2.3,4.9-4.2,7.7-5.6c2.9-1.4,6.1-2.1,9.4-2.1c2.3,0,4.3,0.4,6.1,1.2
				c0.2,0.1,0.4,0.1,0.6,0.1c0.3,0,0.5-0.1,0.7-0.2c0.4-0.2,0.7-0.7,0.8-1.2l3.4-18.1c0.2-1.2,0.9-1.8,2.1-1.8h8.9
				c0.6,0,1,0.1,1.2,0.4c0.3,0.3,0.3,0.8,0.2,1.4l-8.8,43.7c-1.2,5.7-1.8,10.1-1.8,13.2c0,3,1.2,4.5,3.4,4.5c1.8,0,3.6-1.6,5.4-4.6
				c1.8-3.1,3.7-7.5,5.6-13.2c0.2-0.6,0.6-1,1.1-1.2c0.5-0.2,0.9-0.3,1.3-0.3c0.1,0,0.1,0,0.2,0c0.5,0,0.9,0.2,1.2,0.6
				c0.3,0.4,0.4,0.9,0.2,1.5c-1.1,3.2-2.2,6.2-3.4,9.1c-1.2,2.9-2.6,5.5-4.1,7.7c-1.5,2.2-3.2,4-5.1,5.3c-1.9,1.3-4.1,2-6.5,2
				c-1.8,0-3.3-0.3-4.5-0.9c-1.3-0.6-2.4-1.5-3.3-2.6c-0.3-0.3-0.6-0.5-1-0.5c-0.4,0-0.8,0.2-1.3,0.5c-2,1.4-4.1,2.5-6.3,3.3
				C227.3,321.8,224.9,322.2,222.4,322.2z M231.7,278.2c-1.9,0-3.5,0.5-4.8,1.4c-1.3,1-2.4,2.3-3.3,4c-0.9,1.7-1.7,3.7-2.4,5.9
				c-0.6,2.2-1.2,4.6-1.8,7.3c-0.5,2.6-1,5-1.3,7.3c-0.3,2.2-0.4,4.2-0.2,5.9c0.2,1.7,0.7,3,1.6,4c0.9,0.9,2.3,1.4,4.2,1.4
				c1.8,0,3.4-0.5,4.8-1.4c1.3-1,2.5-2.3,3.4-4c0.9-1.7,1.7-3.7,2.4-5.9c0.6-2.2,1.2-4.7,1.8-7.3l0.5-2.3c0.4-2.3,0.7-4.4,1-6.4
				c0.2-2,0.2-3.7-0.1-5.2c-0.3-1.4-0.9-2.6-1.7-3.4C234.7,278.6,233.4,278.2,231.7,278.2z"/>
			<path class="st3" d="M255.8,251.4c1.1,0,1.5,0.6,1.3,1.7l-8.8,43.7c-1.2,5.7-1.8,10.1-1.8,13.2c0,3.1,1.2,4.6,3.6,4.6
				c1.9,0,3.7-1.6,5.5-4.7c1.8-3.1,3.7-7.5,5.6-13.2c0.2-0.5,0.6-0.9,1.1-1.2c0.4-0.2,0.9-0.3,1.3-0.3c0.1,0,0.1,0,0.2,0
				c0.4,0,0.8,0.2,1.1,0.6c0.3,0.3,0.4,0.8,0.2,1.4c-1.1,3.2-2.2,6.2-3.4,9.1c-1.2,2.9-2.6,5.4-4.1,7.7c-1.5,2.2-3.2,4-5.1,5.3
				c-1.9,1.3-4,2-6.4,2c-1.7,0-3.2-0.3-4.5-0.9c-1.2-0.6-2.3-1.5-3.3-2.6c-0.3-0.3-0.7-0.5-1.1-0.5c-0.4,0-0.9,0.2-1.4,0.5
				c-1.9,1.4-4,2.5-6.2,3.3c-2.2,0.8-4.6,1.2-7.1,1.2c-3.4,0-6.2-0.7-8.5-2.1c-2.3-1.4-4.1-3.2-5.3-5.5c-1.3-2.3-2-5-2.3-8.1
				c-0.2-3.1,0-6.3,0.8-9.6c0.7-3.4,1.8-6.6,3.3-9.7c1.5-3.1,3.4-5.8,5.7-8.1c2.3-2.3,4.8-4.2,7.7-5.5c2.9-1.4,6-2.1,9.4-2.1
				c2.3,0,4.3,0.4,6,1.2c0.2,0.1,0.5,0.1,0.7,0.1c0.3,0,0.5-0.1,0.8-0.2c0.4-0.3,0.7-0.7,0.9-1.3l3.4-18.1c0.2-1.1,0.9-1.7,2-1.7
				H255.8 M223.7,315.5c1.9,0,3.5-0.5,4.8-1.5c1.3-1,2.5-2.3,3.4-4c0.9-1.7,1.7-3.7,2.4-5.9c0.6-2.3,1.2-4.7,1.8-7.3l0.5-2.3
				c0.4-2.3,0.7-4.4,1-6.4c0.2-2,0.2-3.8-0.1-5.2c-0.3-1.5-0.9-2.6-1.8-3.5c-0.9-0.8-2.2-1.3-4-1.3c-1.9,0-3.6,0.5-4.9,1.5
				c-1.3,1-2.4,2.3-3.4,4c-0.9,1.7-1.7,3.7-2.4,5.9c-0.6,2.2-1.2,4.7-1.8,7.3c-0.5,2.6-1,5.1-1.3,7.3c-0.3,2.2-0.4,4.2-0.2,5.9
				c0.2,1.7,0.8,3.1,1.7,4C220.3,315,221.7,315.5,223.7,315.5 M255.8,251.2h-8.9c-1.3,0-2,0.7-2.3,1.9l-3.4,18.1
				c-0.1,0.5-0.4,0.9-0.7,1.1c-0.2,0.1-0.4,0.2-0.7,0.2c-0.2,0-0.4,0-0.6-0.1c-1.8-0.8-3.8-1.2-6.1-1.2c-3.4,0-6.6,0.7-9.5,2.1
				c-2.9,1.4-5.5,3.3-7.8,5.6c-2.3,2.3-4.2,5.1-5.7,8.2c-1.5,3.1-2.7,6.4-3.3,9.7c-0.7,3.4-1,6.6-0.8,9.7c0.2,3.1,1,5.8,2.3,8.2
				c1.3,2.3,3.1,4.2,5.4,5.6c2.3,1.4,5.2,2.1,8.6,2.1c2.5,0,4.9-0.4,7.1-1.2c2.2-0.8,4.3-1.9,6.3-3.3c0.5-0.3,0.9-0.5,1.2-0.5
				c0.4,0,0.7,0.1,1,0.4c0.9,1.1,2.1,2,3.3,2.7c1.3,0.6,2.8,0.9,4.6,0.9c2.5,0,4.7-0.7,6.6-2c1.9-1.3,3.6-3.1,5.2-5.4
				c1.5-2.2,2.9-4.8,4.1-7.7c1.2-2.8,2.3-5.9,3.4-9.1c0.2-0.7,0.2-1.3-0.2-1.7c-0.3-0.4-0.8-0.6-1.3-0.6c-0.1,0-0.1,0-0.2,0
				c-0.4,0-0.9,0.1-1.4,0.3c-0.6,0.3-1,0.7-1.2,1.3c-1.9,5.7-3.8,10.1-5.6,13.2c-1.8,3-3.5,4.6-5.3,4.6c-2.2,0-3.3-1.4-3.3-4.4
				c0-3.1,0.6-7.5,1.8-13.1l8.8-43.7c0.1-0.7,0-1.2-0.3-1.5C256.8,251.3,256.4,251.2,255.8,251.2L255.8,251.2z M223.7,315.3
				c-1.9,0-3.2-0.5-4.1-1.4c-0.9-0.9-1.4-2.2-1.6-3.9c-0.2-1.7-0.1-3.7,0.2-5.9c0.3-2.3,0.8-4.7,1.3-7.3c0.5-2.6,1.1-5.1,1.8-7.3
				c0.6-2.2,1.4-4.2,2.3-5.9c0.9-1.7,2-3,3.3-3.9c1.3-0.9,2.9-1.4,4.7-1.4c1.7,0,3,0.4,3.9,1.2c0.8,0.8,1.4,1.9,1.7,3.3
				c0.3,1.4,0.3,3.2,0.1,5.2c-0.2,2-0.6,4.2-1,6.4l-0.5,2.3c-0.5,2.6-1.1,5.1-1.8,7.3c-0.6,2.2-1.4,4.2-2.3,5.9
				c-0.9,1.7-2,3-3.3,3.9C227.1,314.8,225.5,315.3,223.7,315.3L223.7,315.3z"/>
		</g>
		<path id="XMLID_1127_" class="st2" d="M156.2,296.8c0.7-3.4,1.8-6.6,3.3-9.7c1.5-3.1,3.4-5.8,5.7-8.1c2.3-2.3,4.8-4.2,7.7-5.5
			c2.9-1.4,6-2.1,9.4-2.1c3.1,0,5.7,0.6,7.9,1.8c2.2,1.2,3.9,2.8,5.2,4.9c1.3,2,2.1,4.4,2.5,7.1c0.4,2.7,0.4,5.6,0,8.7
			c-0.3,2.6-0.3,4.5,0.3,6c0.5,1.4,1.3,2.3,2.3,2.5c1,0.2,2.1-0.1,3.3-1.1c1.2-0.9,2.3-2.5,3.4-4.7c0.3-0.6,0.7-1,1.2-1.3
			c0.5-0.2,1-0.3,1.4-0.2c0.4,0.1,0.8,0.3,1,0.7c0.2,0.4,0.3,0.8,0.1,1.3c-2,4.9-4.5,8.2-7.4,9.8c-2.9,1.6-5.8,2.1-8.5,1.3
			c-0.5-0.1-1-0.1-1.4,0c-0.4,0.1-0.8,0.5-1.3,1.1c-2.4,3.8-5.4,6.8-8.8,9.2c-3.5,2.4-7.4,3.5-11.9,3.5c-3.4,0-6.2-0.7-8.5-2.1
			c-2.3-1.4-4.1-3.2-5.3-5.5c-1.3-2.3-2-5-2.3-8.1C155.2,303.3,155.5,300.1,156.2,296.8z M168.4,296.8c-0.5,2.6-1,5.1-1.3,7.3
			c-0.3,2.2-0.4,4.2-0.2,5.9c0.2,1.7,0.8,3.1,1.7,4c0.9,1,2.3,1.5,4.3,1.5c1.9,0,3.5-0.5,4.8-1.5c1.3-1,2.5-2.3,3.4-4
			c0.9-1.7,1.7-3.7,2.4-5.9c0.6-2.3,1.2-4.7,1.8-7.3c0.5-2.6,1-5.1,1.3-7.3c0.3-2.2,0.4-4.2,0.2-5.9c-0.2-1.7-0.8-3.1-1.7-4
			c-0.9-1-2.3-1.5-4.2-1.5c-1.9,0-3.6,0.5-4.9,1.5c-1.3,1-2.4,2.3-3.4,4c-0.9,1.7-1.7,3.7-2.4,5.9
			C169.5,291.7,169,294.2,168.4,296.8z"/>
	</g>
	<g id="XMLID_1106_">
		<path id="XMLID_1122_" class="st4" d="M382.2,302.4c0.4,1.3,0.6,2.9,0.7,4.8c0,1.9-0.2,3.5-0.6,4.9c-0.1,0.6-0.3,1.2-0.4,1.8
			c-0.1,0.6-0.3,1.1-0.6,1.7c-1.6,4-4.2,7.2-7.7,9.5c-0.9,0.5-1.9,1-2.9,1.5c-1,0.4-2,0.8-3.2,1.2c-0.4,0.1-0.8,0.2-1.3,0.3
			c-0.4,0-0.9,0.1-1.3,0.3c-0.4,0.1-0.8,0.2-1.2,0.1c-0.4,0-0.8,0-1.2,0.1c-0.3,0.1-0.7,0.2-1.2,0.2c-0.4,0-0.9-0.1-1.3-0.1h-29.7
			c-0.8,0-1.6,0-2.3-0.1c-0.7-0.1-1.2-0.3-1.6-0.8c-0.3-0.4-0.4-0.9-0.5-1.5c0-0.6-0.1-1.2-0.1-1.9v-62.9c0-0.6,0-1.2,0-1.8
			c0-0.6,0.1-1.1,0.4-1.5c0.3-0.4,0.8-0.7,1.5-1c0.1-0.1,0.3-0.1,0.4-0.1c0.1,0,0.3,0,0.4,0h24.2h3.8c0.5,0.1,0.9,0.1,1.4,0
			c0.5-0.1,0.9,0,1.3,0.1h0.9c0.3,0.1,0.7,0.2,1.1,0.2c0.4,0,0.8,0,1.1,0.2h0.9c0.3,0.1,0.7,0.2,1.1,0.2c0.4,0,0.8,0.1,1.1,0.2
			c0.5,0.1,1.1,0.3,1.6,0.4c0.5,0.1,1,0.3,1.6,0.5c3.2,1.3,5.7,3.3,7.5,5.8c1.1,1.5,1.9,3.1,2.4,4.7c0.1,0.5,0.2,0.9,0.2,1.4
			c0,0.4,0.1,0.9,0.3,1.5c0.1,0.4,0.2,0.8,0.2,1.3c0,0.4,0,0.9,0,1.5v0.8c-0.1,0.6-0.2,1.2-0.3,1.8c0,0.6-0.1,1.2-0.2,1.7
			c-0.8,3.2-2.2,5.7-4.1,7.6c-0.5,0.5-1,1-1.5,1.4c-0.5,0.4-1,0.8-1.5,1.4c-0.1,0.1-0.3,0.3-0.5,0.5c-0.2,0.2-0.3,0.4-0.2,0.7
			c0.1,0.7,0.6,1.2,1.4,1.5c0.8,0.3,1.5,0.7,2,1c2,1.3,3.7,2.8,4.9,4.5c0.5,0.7,1,1.5,1.4,2.4C381.5,300.6,381.9,301.5,382.2,302.4z
			 M336.1,266.1c-0.3,0.6-0.4,1.4-0.4,2.3c0,0.9,0.1,1.8,0.1,2.6v10.3c0,0.9,0,1.9,0,3c0,1,0.2,1.8,0.6,2.4c0.2,0.3,0.5,0.6,0.9,0.7
			c0.4,0.1,0.8,0.2,1.3,0.4h1c0.3,0.1,0.7,0.1,1.1,0c0.4,0,0.8,0,1.1,0h9.3c0.5,0,0.9,0,1.4,0c0.5,0,0.9,0,1.2,0h2.8
			c0.3-0.1,0.5-0.2,0.8-0.1c0.3,0.1,0.6,0.1,0.9,0c0.7-0.2,1.5-0.3,2.2-0.4c0.7,0,1.4-0.2,2.1-0.5c1.5-0.5,2.8-1.1,3.9-1.8
			c1.1-0.7,2-1.7,2.8-2.9c0.7-1.1,1.1-2.7,1.3-4.5c0.1-0.5,0.1-1.1,0.1-1.8c0-0.7-0.1-1.3-0.2-1.8c-0.1-0.2-0.1-0.4-0.1-0.6
			c0-0.2,0-0.4-0.1-0.6c-0.3-0.7-0.5-1.4-0.8-2.1c-0.2-0.7-0.6-1.3-1-1.8c-0.7-1-1.7-1.8-2.9-2.4c-1.2-0.6-2.5-1-4-1.3
			c-1.5-0.3-3.1-0.4-4.8-0.5c-1.7-0.1-3.5-0.1-5.3-0.1h-12.7c-0.1,0.1-0.3,0.2-0.6,0.1c-0.2,0-0.4,0-0.6,0.1
			C336.9,265,336.4,265.4,336.1,266.1z M373.4,308c0.1-0.3,0.1-0.7,0.1-1.1c0-0.4-0.1-0.7-0.1-1c-0.1-0.3-0.1-0.6-0.1-0.9
			s0-0.5-0.1-0.9c-0.4-1.3-0.9-2.5-1.6-3.4c-0.8-1.1-1.8-2-2.9-2.7c-1.1-0.7-2.4-1.3-4-1.8c-0.5-0.1-1.1-0.2-1.8-0.3
			c-0.6-0.1-1.3-0.2-2-0.3c-0.4-0.1-0.8-0.1-1.2-0.1c-0.4,0.1-0.8,0.1-1.2-0.1c-0.3-0.1-0.7-0.1-1.1-0.1s-0.7,0-1.1,0h-17.6
			c-0.1,0.1-0.3,0.2-0.6,0.1c-0.2,0-0.4,0-0.6,0.1c-0.8,0.2-1.3,0.6-1.6,1.3c-0.3,0.6-0.4,1.4-0.4,2.5c0,1.1,0.1,2.1,0.1,2.9v11.4
			c0,1,0,2.1,0,3.2c0,1.1,0.2,2,0.6,2.5c0.3,0.5,0.8,0.8,1.5,0.9c0.7,0.1,1.4,0.2,2.2,0.2h16.9c1.3,0,2.6,0,3.8,0
			c1.2,0,2.3-0.2,3.3-0.5c1.7-0.5,3.2-1.2,4.4-2.1c1.2-0.8,2.2-1.9,3-3.3c0.4-0.7,0.7-1.4,1-2.2s0.5-1.7,0.7-2.6
			c0.1-0.3,0.2-0.7,0.1-1C373.3,308.6,373.3,308.3,373.4,308z"/>
		<path id="XMLID_1119_" class="st4" d="M440,324.7c0.2,1.1,0.1,2-0.3,2.7c-0.4,0.7-0.9,1.2-1.6,1.6c-0.3,0.1-0.7,0.2-1.1,0.2
			s-0.8,0.1-1.2,0.2c-1.5,0.3-2.9,0.3-4.4-0.3c-1.4-0.5-2.4-1.1-3-1.9c-0.3-0.5-0.6-1-0.9-1.7c-0.3-0.6-0.6-1.2-1-1.6
			c-0.1-0.1-0.3-0.3-0.5-0.4c-0.2-0.1-0.4-0.2-0.7-0.1c-0.7,0.2-1.4,0.6-2.1,1.1c-0.6,0.5-1.3,1-1.9,1.4c-0.9,0.5-1.8,1-2.8,1.5
			c-1,0.4-2.1,0.8-3.2,1.2c-0.7,0.2-1.4,0.3-2.2,0.4c-0.8,0.1-1.5,0.2-2.3,0.3c-0.3,0.1-0.6,0.1-0.9,0.1c-0.2,0-0.5,0-0.8,0
			c-0.7,0.1-1.4,0.1-2.1,0h-0.9c-0.3-0.1-0.7-0.1-1-0.1c-0.3,0-0.6-0.1-0.9-0.2c-0.3-0.1-0.5-0.1-0.7-0.1c-0.2,0-0.4,0-0.6-0.1
			c-0.5-0.1-1.1-0.2-1.6-0.4c-0.5-0.1-1-0.3-1.5-0.5c-2-0.9-3.6-1.9-4.9-3c-1.2-1.1-2.3-2.7-3.1-4.7c-0.6-1.5-0.9-3.3-0.9-5.3v-2.1
			c0.1-0.3,0.1-0.7,0.2-1.1c0-0.4,0.1-0.8,0.2-1.2c0.3-0.7,0.5-1.5,0.8-2.2c0.3-0.7,0.6-1.4,1-2c1.2-1.9,2.9-3.4,4.9-4.3
			c2.1-0.9,4.4-1.8,6.8-2.5c0.9-0.3,1.9-0.5,2.9-0.6c1-0.1,2-0.3,3-0.5c0.5-0.1,0.9-0.2,1.4-0.2c0.4,0,0.9-0.1,1.5-0.2
			c0.5-0.1,0.9-0.2,1.4-0.3c0.5,0,1-0.1,1.5-0.2c1.7-0.4,3.3-0.8,4.7-1.1c1.5-0.3,2.6-1.1,3.5-2.3c0.4-0.5,0.7-1.2,1-2.1
			c0.3-0.8,0.3-1.8,0-2.8c-0.4-1.6-1-2.9-1.8-3.8c-0.8-0.9-1.9-1.7-3.3-2.2c-0.8-0.3-1.8-0.6-2.9-0.7c-1.1-0.1-2.3-0.2-3.5-0.2
			c-1.2,0-2.4,0.1-3.5,0.2c-1.1,0.1-2.1,0.3-2.9,0.6c-1.1,0.4-2.2,1-3.3,1.7c-0.5,0.4-1,0.9-1.5,1.6c-0.4,0.6-0.8,1.3-1.2,2.1
			c-0.2,0.5-0.4,1.1-0.6,1.7c-0.2,0.6-0.5,1.1-1,1.4c-0.3,0.2-0.7,0.4-1.4,0.5c-0.6,0.1-1.3,0.1-2,0.1c-0.7,0-1.3,0-2-0.1
			c-0.6-0.1-1.1-0.3-1.4-0.5c-0.3-0.2-0.5-0.5-0.6-1c-0.1-0.5-0.1-1,0-1.5c0.2-0.9,0.4-1.7,0.7-2.5c0.2-0.8,0.5-1.5,0.9-2.3
			c1.3-2.3,2.9-4.2,4.8-5.5c1.9-1.3,4.4-2.4,7.2-3.2c0.7-0.1,1.4-0.2,2.1-0.3c0.7-0.1,1.4-0.2,2.2-0.3c0.3-0.1,0.7-0.1,1.3-0.1
			c0.6,0,1,0,1.1-0.2c4.7-0.1,8.8,0.5,12.3,1.6c3.5,1.1,5.9,3.3,7.4,6.5c0.6,1.3,1,2.9,1.1,4.7c0.1,1.8,0.1,3.6,0.1,5.6v22.3
			c0,0.9,0,1.8,0.1,2.7c0.1,0.9,0.3,1.6,0.6,2.1c0.3,0.5,0.8,0.8,1.3,1c0.6,0.3,1.2,0.5,1.7,0.6c0.5,0.1,0.9,0.4,1.2,1
			c0.1,0.2,0.2,0.4,0.2,0.6S440,324.3,440,324.7z M425.6,313.5c0.4-0.9,0.6-2,0.7-3.3c0-1.2,0.1-2.5,0.1-3.9c0-0.7,0-1.4-0.1-2
			c-0.1-0.6-0.3-1.1-0.8-1.4c-0.2-0.1-0.7-0.2-1.4-0.2c-0.1,0.1-0.4,0.2-0.7,0.2c-0.3,0-0.6,0.1-0.9,0.2c-0.5,0.1-1.1,0.3-1.8,0.4
			s-1.3,0.3-2,0.4c-0.2,0-0.4,0-0.7,0.1c-0.2,0-0.5,0.1-0.8,0.1c-1,0.3-2.1,0.4-3.3,0.5c-1.2,0-2.3,0.2-3.3,0.5
			c-0.5,0.1-1,0.2-1.5,0.4c-0.4,0.1-0.9,0.2-1.5,0.4c-1.1,0.3-2.1,0.8-3,1.3c-0.9,0.5-1.7,1.1-2.4,1.9c-0.7,0.7-1.2,1.6-1.5,2.7
			c-0.3,1-0.5,2.3-0.4,3.8c0,0.7,0.1,1.3,0.4,1.9c0.2,0.6,0.5,1.1,0.9,1.6c0.5,0.7,1.2,1.4,2.1,1.9c0.9,0.5,1.8,0.9,2.8,1.3
			c0.3,0.1,0.7,0.1,1,0.1c0.3,0,0.7,0,1,0.1c0.5,0.1,1.1,0.2,1.8,0.2c0.7,0,1.3,0,1.8-0.1c0.4-0.1,0.8-0.2,1.2-0.2
			c0.4,0,0.8,0,1.2-0.2c0.5-0.1,1.1-0.2,1.6-0.3c0.5-0.1,1-0.2,1.5-0.4c1.9-0.8,3.6-1.8,5-2.9C423.8,317,424.9,315.4,425.6,313.5z"
			/>
		<path id="XMLID_1117_" class="st4" d="M451.7,256.7c0.9,0,1.8,0,2.8,0c1,0,1.7,0.2,2.2,0.7c0.3,0.5,0.5,1.1,0.6,1.9
			c0,0.8,0.1,1.6,0.1,2.4v9v40.8v11.3c0,0.8,0,1.7,0,2.6c0,0.9-0.2,1.7-0.5,2.2c-0.2,0.3-0.5,0.5-0.9,0.6c-0.4,0.1-0.8,0.2-1.4,0.3
			h-1.4c-0.7,0-1.4,0-2.1-0.1c-0.7,0-1.2-0.2-1.5-0.7c-0.3-0.5-0.5-1.2-0.6-2c0-0.8,0-1.6,0-2.5v-9.3V272v-9.9c0-0.7,0-1.5-0.1-2.4
			c0-0.8,0.1-1.5,0.5-2c0.3-0.4,0.8-0.7,1.5-1c0.1-0.1,0.3-0.1,0.5-0.1C451.4,256.8,451.6,256.8,451.7,256.7z"/>
		<path id="XMLID_1114_" class="st4" d="M516.5,324.7c0.2,1.1,0.1,2-0.3,2.7c-0.4,0.7-0.9,1.2-1.6,1.6c-0.3,0.1-0.7,0.2-1.1,0.2
			s-0.8,0.1-1.2,0.2c-1.5,0.3-2.9,0.3-4.4-0.3c-1.4-0.5-2.4-1.1-3-1.9c-0.3-0.5-0.6-1-0.9-1.7c-0.3-0.6-0.6-1.2-1-1.6
			c-0.1-0.1-0.3-0.3-0.5-0.4c-0.2-0.1-0.4-0.2-0.7-0.1c-0.7,0.2-1.4,0.6-2.1,1.1c-0.6,0.5-1.3,1-1.9,1.4c-0.9,0.5-1.8,1-2.8,1.5
			c-1,0.4-2.1,0.8-3.2,1.2c-0.7,0.2-1.4,0.3-2.2,0.4c-0.8,0.1-1.5,0.2-2.3,0.3c-0.3,0.1-0.6,0.1-0.9,0.1c-0.2,0-0.5,0-0.8,0
			c-0.7,0.1-1.4,0.1-2.1,0h-0.9c-0.3-0.1-0.7-0.1-1-0.1c-0.3,0-0.6-0.1-0.9-0.2c-0.3-0.1-0.5-0.1-0.7-0.1c-0.2,0-0.4,0-0.6-0.1
			c-0.5-0.1-1.1-0.2-1.6-0.4c-0.5-0.1-1-0.3-1.5-0.5c-2-0.9-3.6-1.9-4.9-3c-1.2-1.1-2.3-2.7-3.1-4.7c-0.6-1.5-0.9-3.3-0.9-5.3v-2.1
			c0.1-0.3,0.1-0.7,0.2-1.1c0-0.4,0.1-0.8,0.2-1.2c0.3-0.7,0.5-1.5,0.8-2.2c0.3-0.7,0.6-1.4,1-2c1.2-1.9,2.9-3.4,4.9-4.3
			c2.1-0.9,4.4-1.8,6.8-2.5c0.9-0.3,1.9-0.5,2.9-0.6c1-0.1,2-0.3,3-0.5c0.5-0.1,0.9-0.2,1.4-0.2c0.4,0,0.9-0.1,1.5-0.2
			c0.5-0.1,0.9-0.2,1.4-0.3c0.5,0,1-0.1,1.5-0.2c1.7-0.4,3.3-0.8,4.7-1.1c1.5-0.3,2.6-1.1,3.5-2.3c0.4-0.5,0.7-1.2,1-2.1
			c0.3-0.8,0.3-1.8,0-2.8c-0.4-1.6-1-2.9-1.8-3.8c-0.8-0.9-1.9-1.7-3.3-2.2c-0.8-0.3-1.8-0.6-2.9-0.7c-1.1-0.1-2.3-0.2-3.5-0.2
			c-1.2,0-2.4,0.1-3.5,0.2c-1.1,0.1-2.1,0.3-2.9,0.6c-1.1,0.4-2.2,1-3.3,1.7c-0.5,0.4-1,0.9-1.5,1.6c-0.4,0.6-0.8,1.3-1.2,2.1
			c-0.2,0.5-0.4,1.1-0.6,1.7c-0.2,0.6-0.5,1.1-1,1.4c-0.3,0.2-0.7,0.4-1.4,0.5c-0.6,0.1-1.3,0.1-2,0.1c-0.7,0-1.3,0-2-0.1
			c-0.6-0.1-1.1-0.3-1.4-0.5c-0.3-0.2-0.5-0.5-0.6-1c-0.1-0.5-0.1-1,0-1.5c0.2-0.9,0.4-1.7,0.7-2.5c0.2-0.8,0.5-1.5,0.9-2.3
			c1.3-2.3,2.9-4.2,4.8-5.5c1.9-1.3,4.4-2.4,7.2-3.2c0.7-0.1,1.4-0.2,2.1-0.3c0.7-0.1,1.4-0.2,2.2-0.3c0.3-0.1,0.7-0.1,1.3-0.1
			c0.6,0,1,0,1.1-0.2c4.7-0.1,8.8,0.5,12.3,1.6c3.5,1.1,5.9,3.3,7.4,6.5c0.6,1.3,1,2.9,1.1,4.7c0.1,1.8,0.1,3.6,0.1,5.6v22.3
			c0,0.9,0,1.8,0.1,2.7c0.1,0.9,0.3,1.6,0.6,2.1c0.3,0.5,0.8,0.8,1.3,1c0.6,0.3,1.2,0.5,1.7,0.6c0.5,0.1,0.9,0.4,1.2,1
			c0.1,0.2,0.2,0.4,0.2,0.6S516.4,324.3,516.5,324.7z M502.1,313.5c0.4-0.9,0.6-2,0.7-3.3c0-1.2,0.1-2.5,0.1-3.9c0-0.7,0-1.4-0.1-2
			c-0.1-0.6-0.3-1.1-0.8-1.4c-0.2-0.1-0.7-0.2-1.4-0.2c-0.1,0.1-0.4,0.2-0.7,0.2c-0.3,0-0.6,0.1-0.9,0.2c-0.5,0.1-1.1,0.3-1.8,0.4
			s-1.3,0.3-2,0.4c-0.2,0-0.4,0-0.7,0.1c-0.2,0-0.5,0.1-0.8,0.1c-1,0.3-2.1,0.4-3.3,0.5c-1.2,0-2.3,0.2-3.3,0.5
			c-0.5,0.1-1,0.2-1.5,0.4c-0.4,0.1-0.9,0.2-1.5,0.4c-1.1,0.3-2.1,0.8-3,1.3c-0.9,0.5-1.7,1.1-2.4,1.9c-0.7,0.7-1.2,1.6-1.5,2.7
			c-0.3,1-0.5,2.3-0.4,3.8c0,0.7,0.1,1.3,0.4,1.9c0.2,0.6,0.5,1.1,0.9,1.6c0.5,0.7,1.2,1.4,2.1,1.9c0.9,0.5,1.8,0.9,2.8,1.3
			c0.3,0.1,0.7,0.1,1,0.1c0.3,0,0.7,0,1,0.1c0.5,0.1,1.1,0.2,1.8,0.2c0.7,0,1.3,0,1.8-0.1c0.4-0.1,0.8-0.2,1.2-0.2
			c0.4,0,0.8,0,1.2-0.2c0.5-0.1,1.1-0.2,1.6-0.3c0.5-0.1,1-0.2,1.5-0.4c1.9-0.8,3.6-1.8,5-2.9C500.3,317,501.3,315.4,502.1,313.5z"
			/>
		<path id="XMLID_1112_" class="st4" d="M549.1,275.5c4.2-0.1,7.6,0.4,10.2,1.7c2.6,1.3,4.6,3.2,6.1,5.7c0.4,0.7,0.7,1.4,1,2.2
			c0.2,0.8,0.5,1.6,0.7,2.4c0.3,1.3,0.5,2.7,0.6,4.1c0.1,1.5,0.1,3,0.1,4.5V307v15.7c0,1.1,0,2.3-0.1,3.4c0,1.1-0.5,1.9-1.4,2.2
			c-0.3,0.1-0.7,0.2-1.1,0.3c-0.4,0-0.8,0.1-1.2,0.1c-0.9,0-1.7,0-2.5-0.1c-0.8,0-1.4-0.3-1.7-0.9c-0.3-0.5-0.5-1.1-0.5-1.8
			c0-0.7,0-1.5,0-2.2V315v-16.4c0-1.8,0-3.6-0.1-5.4c-0.1-1.8-0.4-3.3-0.9-4.6c-0.5-1.3-1.3-2.4-2.4-3.3c-1.1-0.8-2.3-1.5-3.7-2
			c-0.4-0.1-0.8-0.2-1.3-0.3c-0.4,0-0.9-0.1-1.3-0.3c-0.3-0.1-0.9-0.1-1.6-0.1c-0.7,0-1.2,0.1-1.5,0.2c-0.3,0.1-0.5,0.2-0.7,0.1
			c-0.2,0-0.4,0-0.7,0.1c-0.9,0.2-1.7,0.4-2.5,0.7c-0.8,0.2-1.5,0.6-2.2,1c-0.3,0.1-0.5,0.3-0.7,0.4c-0.2,0.1-0.4,0.3-0.7,0.4
			c-2.3,1.7-4.1,4.2-5.1,7.6c-0.2,0.5-0.3,1.1-0.4,1.7c-0.1,0.6-0.2,1.1-0.3,1.7c-0.1,0.3-0.2,0.7-0.1,1c0.1,0.3,0,0.6-0.1,0.9v2.1
			c-0.1,0.2-0.1,0.4-0.1,0.7c0,0.3,0.1,0.6,0.1,0.9v3v9.7v8.9c0,0.7,0,1.5,0,2.3c0,0.8-0.2,1.4-0.5,1.9c-0.3,0.5-0.9,0.8-1.8,0.9
			c-0.8,0-1.7,0.1-2.6,0.1c-0.5,0-1,0-1.5-0.1c-0.5-0.1-0.9-0.2-1.2-0.5c-0.5-0.3-0.8-1-0.8-1.9c0-0.9,0-1.8,0-2.7v-11.9v-24.4V281
			c0-0.6,0-1.2,0-1.8c0-0.6,0.1-1.1,0.4-1.4c0.2-0.4,0.5-0.7,1-0.8c0.3-0.1,0.7-0.1,1.2-0.2c0.5-0.1,1-0.1,1.6-0.1
			c0.5,0,1.1,0,1.6,0.1c0.5,0.1,0.9,0.2,1.1,0.3c0.7,0.5,1.1,1.1,1,1.8c-0.1,0.7,0,1.5,0.3,2.4c0.1,0.4,0.4,0.7,0.8,1
			c0.8,0.1,1.5-0.2,2-0.9c0.5-0.7,1-1.2,1.6-1.6c0.9-0.7,1.9-1.3,2.9-1.9c1-0.6,2.1-1.1,3.4-1.5c0.5-0.2,1.1-0.3,1.8-0.4
			c0.6-0.1,1.3-0.2,1.9-0.3c0.3-0.1,0.7-0.1,1-0.1C548.4,275.5,548.7,275.5,549.1,275.5z"/>
		<path id="XMLID_1110_" class="st4" d="M601.3,275.3c5-0.1,9.1,0.7,12.4,2.2c3.3,1.5,6,3.8,7.9,6.8c0.9,1.3,1.6,3,2.2,4.9
			c0.1,0.3,0.2,0.8,0.3,1.3c0.1,0.5,0,1-0.1,1.4c-0.2,0.3-0.5,0.6-1,0.9c-0.2,0.1-0.4,0.2-0.6,0.1c-0.2,0-0.4,0-0.7,0.1
			c-0.3,0.1-0.5,0.1-0.8,0.1c-0.3,0-0.5-0.1-0.8-0.1c-0.7,0-1.4,0-2.1-0.1c-0.7,0-1.2-0.2-1.7-0.6c-0.5-0.4-0.9-1-1.1-1.7
			c-0.2-0.7-0.5-1.4-0.8-1.9c-1-1.7-2.3-3.1-3.9-4.1c-0.5-0.3-1.1-0.6-1.7-0.9c-0.6-0.2-1.2-0.5-1.9-0.7c-0.9-0.3-2.2-0.4-3.7-0.5
			c-1.5,0-2.8,0.1-3.8,0.5c-0.5,0.1-0.9,0.2-1.3,0.3c-0.4,0.1-0.8,0.2-1.3,0.3c-1.7,0.7-3.3,1.7-4.6,3c-1.3,1.3-2.4,2.8-3.1,4.5
			c-0.3,0.6-0.5,1.2-0.7,1.9c-0.2,0.6-0.4,1.3-0.6,2.1L587,298c-0.1,0.3-0.1,0.7-0.1,1.1c0,0.4,0,0.8-0.2,1.1v0.8
			c-0.1,0.3-0.1,0.7-0.2,1.3c0,0.6,0,1,0.2,1.3c0.1,0.3,0.1,0.7,0,1c-0.1,0.3-0.1,0.7,0,1c0.1,0.3,0.1,0.7,0.1,1.4
			c0.1,0.5,0.3,1.1,0.4,1.7c0.1,0.6,0.2,1.2,0.4,1.7c0.7,2.2,1.6,4,2.6,5.6c1,1.6,2.3,2.9,4.1,4.1c0.6,0.3,1.2,0.6,1.9,0.9
			c0.6,0.3,1.3,0.5,2.1,0.8c0.3,0.1,0.6,0.1,0.8,0.1c0.2,0,0.5,0,0.8,0.1c0.2,0.1,0.5,0.1,1,0.1h1.1c0,0.1,0.1,0.1,0.4,0.1
			c0.1-0.1,0.3-0.1,0.5-0.1c0.2,0,0.4,0,0.6-0.1c0.5-0.1,0.9-0.2,1.4-0.1c0.4,0,0.9,0,1.4-0.2c1.7-0.5,3.3-1.2,4.5-2.1
			c1.3-0.8,2.4-1.9,3.2-3.3c0.3-0.5,0.6-1.1,0.9-1.7c0.3-0.6,0.5-1.2,0.8-1.8c0.1-0.5,0.3-1.1,0.5-1.6c0.2-0.5,0.5-0.9,1-1.3
			c0.2-0.2,0.6-0.4,1.2-0.5c0.6-0.1,1.3-0.2,2-0.2c0.7,0,1.4,0,2,0.1c0.6,0.1,1.1,0.2,1.4,0.4c0.4,0.3,0.7,0.7,0.8,1.2
			c0.1,0.5,0.1,1.1-0.1,1.7c-0.3,1-0.7,2-1,2.9c-0.3,0.9-0.7,1.8-1.2,2.7c-1,2-2.3,3.8-3.8,5.3c-1.5,1.5-3.3,2.8-5.5,3.7
			c-0.5,0.3-1.1,0.5-1.7,0.7c-0.6,0.2-1.2,0.4-1.9,0.6c-0.7,0.3-1.5,0.4-2.2,0.5s-1.5,0.1-2.2,0.3c-0.3,0.1-0.5,0.2-0.8,0.1
			c-0.3-0.1-0.5-0.1-0.8,0h-0.9c-0.5,0-1.1,0-1.6,0.1c-0.5,0-1,0-1.4-0.2h-0.5l-2.4-0.3c-0.9-0.3-1.7-0.5-2.5-0.7s-1.6-0.5-2.3-0.8
			c-2.4-1.1-4.4-2.3-6-3.8c-1.6-1.5-3-3.3-4.4-5.4c-0.3-0.5-0.6-1.1-0.9-1.8c-0.3-0.7-0.5-1.3-0.8-2c-0.3-0.7-0.6-1.5-0.7-2.3
			c-0.1-0.8-0.3-1.6-0.5-2.4c-0.1-0.3-0.1-0.5-0.1-0.8c0-0.3,0-0.5-0.1-0.8c-0.1-0.4-0.2-0.8-0.2-1.3c0-0.5,0-0.9-0.2-1.3v-1
			c-0.1-0.3-0.1-0.8-0.1-1.4c0-0.6,0-1.1,0.1-1.4c0.1-0.3,0.1-0.6,0.1-0.9c0-0.3,0-0.5,0.1-0.8c0.1-0.5,0.2-0.9,0.2-1.4
			c0-0.5,0-0.9,0.2-1.3c0.3-1.1,0.5-2.3,0.7-3.4c0.2-1.1,0.5-2.2,0.9-3.2c1.4-3.5,3.1-6.3,5.1-8.5c2-2.1,4.8-3.9,8.3-5.3
			c0.7-0.3,1.5-0.6,2.4-0.7c0.9-0.1,1.8-0.3,2.7-0.5c0.5-0.1,0.9-0.1,1.4-0.1S600.8,275.4,601.3,275.3z"/>
		<path id="XMLID_1107_" class="st4" d="M679.7,300.4c0.1,0.7,0.1,1.4,0.1,2.3c-0.1,0.8-0.3,1.4-0.7,1.8c-0.3,0.3-0.8,0.5-1.5,0.6
			c-0.6,0.1-1.4,0.2-2.2,0.2s-1.6,0-2.4-0.1c-0.8,0-1.5-0.1-2.1-0.1h-25.8c-0.5,0-1.1,0-1.6,0.1c-0.5,0-1,0.2-1.3,0.4
			c-0.3,0.1-0.5,0.4-0.8,0.8c-0.1,0.2-0.3,0.5-0.4,0.9c-0.1,0.4-0.1,0.7,0,1.1c0.1,0.3,0.1,0.6,0.1,0.9c0,0.3,0,0.5,0.1,0.8
			c0.1,0.5,0.3,1.1,0.4,1.7s0.3,1.1,0.6,1.7c1.5,3.6,4.1,6.2,7.7,7.8c0.4,0.2,0.8,0.4,1.3,0.5c0.5,0.1,0.9,0.3,1.4,0.4
			c0.2,0.1,0.5,0.1,1,0.1c0.9,0.3,2.2,0.4,3.7,0.4c1.5,0,2.8-0.1,3.7-0.4c0.9-0.3,1.8-0.6,2.6-0.9c0.8-0.3,1.5-0.7,2.2-1.2
			c0.7-0.5,1.4-1,1.9-1.7c0.5-0.6,1-1.3,1.4-2.1c0.4-0.7,0.8-1.4,1.1-2.1c0.3-0.7,0.8-1.3,1.6-1.6c0.3-0.1,0.7-0.2,1.3-0.3
			c0.6-0.1,1.2-0.1,1.8-0.1c0.6,0,1.2,0.1,1.7,0.2c0.5,0.1,0.9,0.2,1.1,0.4c0.7,0.5,0.8,1.2,0.5,2.3c-0.5,1.8-1.2,3.4-2.1,4.8
			c-1.3,2.2-2.9,3.9-4.6,5.3c-1.7,1.4-3.9,2.5-6.5,3.4c-0.7,0.3-1.3,0.5-2,0.6c-0.7,0.1-1.4,0.2-2.1,0.4c-0.3,0.1-0.7,0.1-1,0.1
			s-0.6,0-1,0.1h-1c-0.3,0.1-0.7,0.1-1.2,0.1s-0.8,0-1.1-0.1h-0.9c-0.3-0.1-0.6-0.1-0.9-0.1c-0.3,0-0.5,0-0.8-0.1
			c-0.3-0.1-0.7-0.1-1.1-0.2c-0.4,0-0.8-0.1-1.1-0.2c-0.6-0.1-1.2-0.3-1.8-0.5c-0.6-0.2-1.2-0.4-1.7-0.6c-0.3-0.1-0.5-0.2-0.7-0.3
			c-0.2,0-0.4-0.1-0.7-0.3c-1-0.5-2.1-1-3.2-1.7c-1.9-1.3-3.6-2.8-5-4.7c-1.4-1.8-2.5-3.9-3.5-6.2c-0.3-0.7-0.6-1.5-0.8-2.3
			c-0.2-0.8-0.4-1.6-0.7-2.4c-0.1-0.3-0.1-0.5-0.1-0.7s0-0.5-0.1-0.8c-0.1-0.5-0.2-1.1-0.3-1.7c-0.1-0.6-0.2-1.2-0.3-1.8v-1.4
			c-0.1-0.3-0.1-0.7-0.2-1.2c0-0.5,0-0.9,0.1-1.3v-1.1c0.1-0.3,0.2-0.7,0.2-1.1c0-0.4,0-0.7,0.1-1.1c0.3-1.1,0.5-2.1,0.7-3.2
			c0.2-1.1,0.5-2.1,0.9-3c0.3-0.7,0.7-1.5,1-2.3c0.3-0.8,0.7-1.5,1.1-2.3c1.5-2.3,3.2-4.4,5-6.1c1.9-1.7,4.2-3.1,6.9-4.3
			c0.8-0.3,1.6-0.6,2.5-0.8c0.8-0.2,1.7-0.4,2.7-0.6c0.3-0.1,0.6-0.1,0.9-0.2c0.3,0,0.6,0,0.9,0c0.1-0.1,0.3-0.1,0.5,0
			c0.2,0.1,0.4,0,0.5-0.1c2.8-0.1,5.3,0.2,7.4,0.9c2.1,0.6,4,1.5,5.6,2.6c0.3,0.1,0.6,0.3,0.8,0.6c0.2,0.2,0.4,0.4,0.7,0.6
			c0.5,0.4,1.1,0.9,1.7,1.4c0.6,0.5,1.1,1.1,1.5,1.6c1.1,1.4,2,2.8,2.7,4c0.5,0.7,0.8,1.5,1.1,2.4c0.3,0.9,0.6,1.7,0.9,2.6
			c0.3,0.9,0.6,1.8,0.8,2.7c0.2,0.9,0.4,1.9,0.7,2.8c0.1,0.5,0.1,0.9,0.2,1.4C679.6,299.5,679.6,299.9,679.7,300.4z M669.9,297
			c0.2-0.3,0.4-0.6,0.5-1.1c0.1-0.4,0.1-0.9,0-1.4c-0.4-1.5-1-2.9-1.7-4.1c-0.9-1.5-2-2.9-3.1-3.9c-1.1-1.1-2.6-2-4.4-2.7
			c-0.5-0.1-0.9-0.3-1.4-0.4c-0.5-0.1-1-0.2-1.5-0.4c-0.5-0.1-1.1-0.2-1.7-0.2c-0.6,0-1.2,0-1.7,0c-0.2,0.1-0.4,0.2-0.7,0.2
			c-0.3,0-0.5,0-0.7,0.1c-0.5,0.1-1.1,0.3-1.6,0.4c-0.5,0.1-1,0.2-1.5,0.4c-1.9,0.8-3.5,1.8-4.7,3c-1.2,1.2-2.2,2.7-3.2,4.5
			c-0.2,0.3-0.4,0.8-0.6,1.3c-0.2,0.5-0.4,1.1-0.5,1.7c-0.1,0.6-0.2,1.2-0.1,1.7c0.1,0.5,0.3,0.9,0.7,1.2c0.5,0.4,1.5,0.6,2.8,0.6
			c1.3,0,2.4-0.1,3.4-0.1h15.3c1,0,2.2,0,3.6,0.1C668.5,297.8,669.4,297.5,669.9,297z"/>
	</g>
	<g id="XMLID_943_">
		<path id="XMLID_1104_" class="st5" d="M317.3,354.5c0.1,0.2,0.2,0.4,0.3,0.6c0.1,0.2,0.1,0.4,0.2,0.6c-0.5,0.2-1,0.4-1.7,0.5
			s-1.3,0.2-2,0.2c-1,0-1.9-0.2-2.7-0.5s-1.5-0.8-2.1-1.4c-0.6-0.6-1-1.4-1.4-2.3s-0.5-2-0.5-3.2c0-1.2,0.2-2.3,0.5-3.3
			c0.3-1,0.8-1.8,1.4-2.4c0.6-0.7,1.3-1.2,2.1-1.5c0.8-0.3,1.8-0.5,2.8-0.5c0.9,0,1.6,0.1,2.2,0.2c0.6,0.1,1,0.2,1.3,0.3
			c0,0.2-0.1,0.5-0.1,0.6c0,0.2-0.1,0.4-0.2,0.6c-0.2-0.1-0.4-0.1-0.5-0.2s-0.4-0.1-0.6-0.1c-0.2,0-0.5-0.1-0.8-0.1
			c-0.3,0-0.7,0-1.1,0c-0.8,0-1.5,0.1-2.2,0.4c-0.6,0.3-1.2,0.7-1.6,1.3c-0.5,0.6-0.8,1.2-1,2c-0.2,0.8-0.4,1.7-0.4,2.7
			c0,1.1,0.1,2,0.4,2.7c0.3,0.8,0.7,1.4,1.1,1.9c0.5,0.5,1.1,0.9,1.7,1.1c0.6,0.2,1.4,0.4,2.1,0.4c0.6,0,1.2-0.1,1.8-0.2
			C316.5,354.9,316.9,354.7,317.3,354.5z"/>
		<path id="XMLID_1101_" class="st5" d="M321,351.2c0,1.4,0.3,2.4,1,3.1c0.6,0.7,1.6,1,2.9,1c0.5,0,1,0,1.4-0.1
			c0.4-0.1,0.9-0.2,1.3-0.4c0.1,0.2,0.1,0.3,0.2,0.6c0,0.2,0.1,0.4,0.1,0.6c-0.4,0.2-0.9,0.3-1.4,0.4c-0.5,0.1-1.1,0.1-1.7,0.1
			c-0.9,0-1.7-0.1-2.3-0.4c-0.7-0.3-1.2-0.6-1.6-1.1c-0.4-0.5-0.7-1.1-0.9-1.7c-0.2-0.7-0.3-1.4-0.3-2.2c0-0.8,0.1-1.5,0.3-2.2
			c0.2-0.7,0.5-1.3,0.8-1.8c0.4-0.5,0.9-0.9,1.4-1.2c0.6-0.3,1.3-0.4,2.1-0.4c0.7,0,1.3,0.1,1.8,0.3c0.5,0.2,1,0.6,1.3,1
			c0.4,0.4,0.6,0.9,0.8,1.5c0.2,0.6,0.3,1.2,0.3,1.9c0,0.1,0,0.3,0,0.5c0,0.2,0,0.4,0,0.5H321z M327.1,350.1c0-0.4-0.1-0.8-0.2-1.2
			c-0.1-0.4-0.3-0.8-0.5-1.1c-0.2-0.3-0.5-0.6-0.9-0.7c-0.4-0.2-0.8-0.3-1.3-0.3c-1,0-1.7,0.3-2.2,0.9c-0.5,0.6-0.9,1.4-1,2.5H327.1
			z"/>
		<path id="XMLID_1099_" class="st5" d="M331.5,345.8c0.1,0,0.2,0,0.3,0c0.1,0,0.2,0,0.3,0c0.1,0,0.2,0,0.3,0c0.1,0,0.2,0,0.3,0
			c0,0.2,0,0.6,0.1,0.9c0,0.4,0,0.7,0,1c0.1-0.2,0.3-0.5,0.5-0.7c0.2-0.3,0.5-0.5,0.8-0.7c0.3-0.2,0.6-0.4,1-0.5
			c0.4-0.1,0.8-0.2,1.3-0.2c1.2,0,2.1,0.4,2.6,1.1c0.5,0.7,0.8,1.7,0.8,3v6.6c-0.1,0-0.2,0-0.3,0c-0.1,0-0.3,0-0.3,0
			c-0.1,0-0.2,0-0.3,0c-0.2,0-0.3,0-0.3,0V350c0-1.2-0.2-2-0.5-2.5c-0.4-0.5-0.9-0.8-1.6-0.8c-0.5,0-0.9,0.1-1.4,0.3
			s-0.8,0.5-1.1,0.8c-0.3,0.4-0.6,0.8-0.7,1.3c-0.2,0.5-0.3,1.1-0.3,1.8v5.2c-0.1,0-0.2,0-0.3,0c-0.1,0-0.3,0-0.3,0
			c-0.1,0-0.2,0-0.3,0c-0.1,0-0.3,0-0.3,0V345.8z"/>
		<path id="XMLID_1097_" class="st5" d="M343.7,346.9h-1.8c0-0.1,0-0.2,0-0.3c0-0.1,0-0.2,0-0.3c0-0.1,0-0.2,0-0.3
			c0-0.1,0-0.2,0-0.2h1.8v-2l1.3-1.2h0.1v3.2h2.8c0,0.1,0,0.2,0,0.2c0,0.1,0,0.2,0,0.3c0,0.1,0,0.2,0,0.3c0,0.1,0,0.2,0,0.3H345v6.8
			c0,0.3,0,0.6,0.1,0.8c0.1,0.2,0.2,0.4,0.3,0.5c0.1,0.1,0.3,0.2,0.5,0.2c0.2,0,0.4,0.1,0.6,0.1c0.5,0,0.9-0.1,1.2-0.2
			c0.1,0.4,0.2,0.7,0.2,1.2c-0.5,0.1-1.1,0.2-1.7,0.2c-0.8,0-1.4-0.2-1.9-0.6c-0.5-0.4-0.7-1.1-0.7-2V346.9z"/>
		<path id="XMLID_1095_" class="st5" d="M350.1,345.8c0.1,0,0.2,0,0.3,0c0.1,0,0.2,0,0.3,0c0.1,0,0.2,0,0.3,0c0.1,0,0.2,0,0.3,0
			c0,0.2,0,0.5,0.1,0.9c0,0.3,0,0.6,0,0.9c0.3-0.5,0.7-0.9,1.1-1.3c0.5-0.3,1.1-0.5,1.9-0.5c0.1,0,0.1,0,0.2,0c0.1,0,0.2,0,0.3,0
			c0,0.2,0.1,0.5,0.1,0.7c0,0.2,0,0.4-0.1,0.6c-0.1,0-0.2,0-0.3,0c-0.1,0-0.1,0-0.2,0c-0.9,0-1.7,0.3-2.2,0.9
			c-0.6,0.6-0.8,1.6-0.8,2.9v5.4c-0.1,0-0.2,0-0.3,0c-0.1,0-0.3,0-0.3,0c-0.1,0-0.2,0-0.3,0c-0.1,0-0.3,0-0.3,0V345.8z"/>
		<path id="XMLID_1092_" class="st5" d="M361.1,356.5c-0.8,0-1.5-0.1-2-0.4c-0.6-0.3-1.1-0.7-1.5-1.2c-0.4-0.5-0.7-1.1-0.9-1.7
			c-0.2-0.7-0.3-1.4-0.3-2.2c0-0.8,0.1-1.5,0.3-2.2c0.2-0.7,0.5-1.2,0.9-1.7c0.4-0.5,0.9-0.9,1.5-1.2c0.6-0.3,1.3-0.4,2-0.4
			s1.5,0.1,2,0.4c0.6,0.3,1.1,0.7,1.5,1.2c0.4,0.5,0.7,1.1,0.9,1.7c0.2,0.7,0.3,1.4,0.3,2.2c0,0.8-0.1,1.5-0.3,2.2
			c-0.2,0.7-0.5,1.3-0.9,1.7c-0.4,0.5-0.9,0.9-1.5,1.2C362.5,356.3,361.9,356.5,361.1,356.5z M361.1,355.3c1.1,0,1.9-0.4,2.5-1.2
			c0.5-0.8,0.8-1.8,0.8-3.1c0-1.3-0.3-2.4-0.8-3.1c-0.5-0.8-1.4-1.1-2.5-1.1c-1.1,0-1.9,0.4-2.5,1.1c-0.5,0.8-0.8,1.8-0.8,3.1
			c0,1.3,0.3,2.4,0.8,3.1S360,355.3,361.1,355.3z"/>
		<path id="XMLID_1021_" class="st5" d="M380.9,341.2c0.1,0,0.2,0,0.3,0c0.1,0,0.3,0,0.3,0c0.1,0,0.2,0,0.3,0c0.1,0,0.3,0,0.3,0V356
			c-0.4,0.1-1,0.3-1.6,0.3c-0.6,0.1-1.3,0.1-2,0.1c-0.7,0-1.5-0.1-2.1-0.3c-0.7-0.2-1.2-0.5-1.7-0.9c-0.5-0.4-0.9-1-1.1-1.6
			c-0.3-0.7-0.4-1.5-0.4-2.5c0-0.9,0.1-1.7,0.4-2.4c0.2-0.7,0.6-1.3,1-1.8c0.5-0.5,1-0.9,1.6-1.1c0.6-0.3,1.3-0.4,2.1-0.4
			c0.5,0,0.9,0,1.3,0.1c0.4,0.1,0.8,0.2,1.1,0.3V341.2z M380.9,347.2c-0.3-0.1-0.6-0.2-1-0.3c-0.4-0.1-0.9-0.1-1.3-0.1
			c-0.6,0-1.2,0.1-1.7,0.3c-0.5,0.2-0.9,0.5-1.2,0.9c-0.3,0.4-0.5,0.9-0.7,1.4c-0.2,0.5-0.2,1.1-0.2,1.8c0,1.4,0.3,2.5,1,3.1
			c0.7,0.7,1.6,1,2.9,1c0.5,0,0.9,0,1.3-0.1c0.4,0,0.7-0.1,1-0.2V347.2z"/>
		<path id="XMLID_1018_" class="st5" d="M386.8,351.2c0,1.4,0.3,2.4,1,3.1c0.6,0.7,1.6,1,2.9,1c0.5,0,1,0,1.4-0.1
			c0.4-0.1,0.9-0.2,1.3-0.4c0.1,0.2,0.1,0.3,0.2,0.6c0,0.2,0.1,0.4,0.1,0.6c-0.4,0.2-0.9,0.3-1.4,0.4c-0.5,0.1-1.1,0.1-1.7,0.1
			c-0.9,0-1.7-0.1-2.3-0.4c-0.7-0.3-1.2-0.6-1.6-1.1c-0.4-0.5-0.7-1.1-0.9-1.7c-0.2-0.7-0.3-1.4-0.3-2.2c0-0.8,0.1-1.5,0.3-2.2
			c0.2-0.7,0.5-1.3,0.8-1.8s0.9-0.9,1.4-1.2c0.6-0.3,1.3-0.4,2.1-0.4c0.7,0,1.3,0.1,1.8,0.3c0.5,0.2,1,0.6,1.3,1
			c0.4,0.4,0.6,0.9,0.8,1.5c0.2,0.6,0.3,1.2,0.3,1.9c0,0.1,0,0.3,0,0.5c0,0.2,0,0.4,0,0.5H386.8z M392.9,350.1
			c0-0.4-0.1-0.8-0.2-1.2c-0.1-0.4-0.3-0.8-0.5-1.1c-0.2-0.3-0.5-0.6-0.9-0.7c-0.4-0.2-0.8-0.3-1.3-0.3c-1,0-1.7,0.3-2.2,0.9
			c-0.5,0.6-0.9,1.4-1,2.5H392.9z"/>
		<path id="XMLID_1016_" class="st5" d="M402.6,341.5c0.1,0,0.2,0,0.4,0c0.2,0,0.3,0,0.4,0c0.1,0,0.2,0,0.4,0c0.2,0,0.3,0,0.4,0
			l7.1,12.3v-12.3c0.1,0,0.2,0,0.3,0c0.1,0,0.2,0,0.4,0c0.1,0,0.2,0,0.4,0c0.1,0,0.2,0,0.3,0v14.7c-0.1,0-0.2,0-0.4,0
			c-0.2,0-0.3,0-0.4,0c-0.1,0-0.2,0-0.4,0c-0.2,0-0.3,0-0.4,0L404,344v12.2c-0.1,0-0.2,0-0.3,0c-0.1,0-0.2,0-0.4,0
			c-0.1,0-0.3,0-0.4,0c-0.1,0-0.2,0-0.3,0V341.5z"/>
		<path id="XMLID_1014_" class="st5" d="M416.4,345.8c0.1,0,0.2,0,0.3,0c0.1,0,0.3,0,0.3,0c0.1,0,0.2,0,0.3,0c0.1,0,0.3,0,0.3,0v5.9
			c0,0.7,0.1,1.3,0.2,1.8c0.1,0.5,0.4,0.8,0.7,1.1c0.3,0.3,0.7,0.4,1.1,0.6c0.4,0.1,0.9,0.2,1.4,0.2c0.5,0,0.9,0,1.2-0.1
			c0.4,0,0.7-0.1,0.9-0.2v-9.3c0.1,0,0.2,0,0.3,0c0.1,0,0.3,0,0.3,0c0.1,0,0.2,0,0.3,0c0.1,0,0.3,0,0.3,0V356
			c-0.5,0.1-1.1,0.3-1.7,0.4c-0.6,0.1-1.3,0.2-1.9,0.2c-0.6,0-1.2-0.1-1.8-0.2c-0.6-0.1-1.1-0.4-1.5-0.7c-0.4-0.3-0.7-0.8-1-1.4
			c-0.2-0.6-0.4-1.4-0.4-2.4V345.8z"/>
		<path id="XMLID_1012_" class="st5" d="M428.7,346.9h-1.8c0-0.1,0-0.2,0-0.3c0-0.1,0-0.2,0-0.3c0-0.1,0-0.2,0-0.3
			c0-0.1,0-0.2,0-0.2h1.8v-2l1.3-1.2h0.1v3.2h2.8c0,0.1,0,0.2,0,0.2c0,0.1,0,0.2,0,0.3c0,0.1,0,0.2,0,0.3c0,0.1,0,0.2,0,0.3h-2.8
			v6.8c0,0.3,0,0.6,0.1,0.8c0.1,0.2,0.2,0.4,0.3,0.5c0.1,0.1,0.3,0.2,0.5,0.2c0.2,0,0.4,0.1,0.6,0.1c0.5,0,0.9-0.1,1.2-0.2
			c0.1,0.4,0.2,0.7,0.2,1.2c-0.5,0.1-1.1,0.2-1.7,0.2c-0.8,0-1.4-0.2-1.9-0.6c-0.5-0.4-0.7-1.1-0.7-2V346.9z"/>
		<path id="XMLID_1010_" class="st5" d="M435.2,345.8c0.1,0,0.2,0,0.3,0c0.1,0,0.2,0,0.3,0c0.1,0,0.2,0,0.3,0c0.1,0,0.2,0,0.3,0
			c0,0.2,0,0.5,0.1,0.9c0,0.3,0,0.6,0,0.9c0.3-0.5,0.7-0.9,1.1-1.3c0.5-0.3,1.1-0.5,1.9-0.5c0.1,0,0.1,0,0.2,0c0.1,0,0.2,0,0.3,0
			c0,0.2,0.1,0.5,0.1,0.7c0,0.2,0,0.4-0.1,0.6c-0.1,0-0.2,0-0.3,0c-0.1,0-0.1,0-0.2,0c-0.9,0-1.7,0.3-2.2,0.9
			c-0.6,0.6-0.8,1.6-0.8,2.9v5.4c-0.1,0-0.2,0-0.3,0c-0.1,0-0.3,0-0.3,0c-0.1,0-0.2,0-0.3,0c-0.1,0-0.3,0-0.3,0V345.8z"/>
		<path id="XMLID_1007_" class="st5" d="M443,346.9h-1.3c0-0.1,0-0.1,0-0.2c0-0.1,0-0.2,0-0.3s0-0.2,0-0.3c0-0.1,0-0.2,0-0.3h2.7
			v10.5c-0.1,0-0.2,0-0.3,0c-0.1,0-0.3,0-0.3,0c-0.1,0-0.2,0-0.3,0c-0.2,0-0.3,0-0.3,0V346.9z M442.3,343.2c0-0.1,0-0.3,0-0.5
			c0-0.2,0-0.3,0-0.5c0-0.1,0-0.2,0-0.4c0-0.2,0-0.3,0-0.4c0.1,0,0.3,0,0.5,0c0.2,0,0.3,0,0.5,0c0.1,0,0.2,0,0.4,0
			c0.2,0,0.3,0,0.4,0c0,0.1,0,0.2,0,0.4c0,0.2,0,0.3,0,0.4c0,0.1,0,0.3,0,0.5c0,0.2,0,0.3,0,0.5c-0.1,0-0.2,0-0.4,0
			c-0.2,0-0.3,0-0.4,0c-0.1,0-0.3,0-0.5,0C442.6,343.2,442.5,343.2,442.3,343.2z"/>
		<path id="XMLID_1005_" class="st5" d="M454.9,354.9c0.1,0.1,0.1,0.3,0.2,0.6c0.1,0.2,0.1,0.4,0.1,0.6c-0.3,0.1-0.7,0.2-1.2,0.3
			c-0.4,0.1-0.9,0.1-1.5,0.1c-1.7,0-3-0.5-3.9-1.4c-0.9-0.9-1.3-2.3-1.3-4.1c0-0.8,0.1-1.5,0.3-2.2s0.5-1.2,1-1.7
			c0.4-0.5,1-0.9,1.6-1.2c0.6-0.3,1.4-0.4,2.2-0.4c0.5,0,1,0,1.5,0.1c0.5,0.1,0.8,0.2,1.1,0.3c0,0.2,0,0.4-0.1,0.6
			c0,0.2-0.1,0.4-0.2,0.6c-0.3-0.1-0.6-0.2-1-0.2c-0.4-0.1-0.9-0.1-1.3-0.1c-0.6,0-1.2,0.1-1.6,0.3c-0.5,0.2-0.8,0.5-1.2,0.9
			s-0.5,0.8-0.7,1.4c-0.1,0.5-0.2,1.1-0.2,1.7c0,1.5,0.4,2.6,1.1,3.3c0.7,0.7,1.7,1,2.9,1c0.4,0,0.8,0,1.2-0.1
			C454.3,355.1,454.6,355,454.9,354.9z"/>
		<path id="XMLID_1002_" class="st5" d="M458.5,346.9h-1.3c0-0.1,0-0.1,0-0.2c0-0.1,0-0.2,0-0.3s0-0.2,0-0.3c0-0.1,0-0.2,0-0.3h2.7
			v10.5c-0.1,0-0.2,0-0.3,0c-0.1,0-0.3,0-0.3,0c-0.1,0-0.2,0-0.3,0c-0.2,0-0.3,0-0.3,0V346.9z M457.8,343.2c0-0.1,0-0.3,0-0.5
			c0-0.2,0-0.3,0-0.5c0-0.1,0-0.2,0-0.4c0-0.2,0-0.3,0-0.4c0.1,0,0.3,0,0.5,0c0.2,0,0.3,0,0.5,0c0.1,0,0.2,0,0.4,0
			c0.2,0,0.3,0,0.4,0c0,0.1,0,0.2,0,0.4c0,0.2,0,0.3,0,0.4c0,0.1,0,0.3,0,0.5c0,0.2,0,0.3,0,0.5c-0.1,0-0.2,0-0.4,0
			c-0.2,0-0.3,0-0.4,0c-0.1,0-0.3,0-0.5,0C458.1,343.2,457.9,343.2,457.8,343.2z"/>
		<path id="XMLID_998_" class="st5" d="M467.5,356.5c-0.8,0-1.5-0.1-2-0.4c-0.6-0.3-1.1-0.7-1.5-1.2c-0.4-0.5-0.7-1.1-0.9-1.7
			c-0.2-0.7-0.3-1.4-0.3-2.2c0-0.8,0.1-1.5,0.3-2.2c0.2-0.7,0.5-1.2,0.9-1.7c0.4-0.5,0.9-0.9,1.5-1.2c0.6-0.3,1.3-0.4,2-0.4
			s1.5,0.1,2,0.4c0.6,0.3,1.1,0.7,1.5,1.2c0.4,0.5,0.7,1.1,0.9,1.7c0.2,0.7,0.3,1.4,0.3,2.2c0,0.8-0.1,1.5-0.3,2.2
			c-0.2,0.7-0.5,1.3-0.9,1.7c-0.4,0.5-0.9,0.9-1.5,1.2C469,356.3,468.3,356.5,467.5,356.5z M467.5,355.3c1.1,0,1.9-0.4,2.5-1.2
			c0.5-0.8,0.8-1.8,0.8-3.1c0-1.3-0.3-2.4-0.8-3.1c-0.5-0.8-1.4-1.1-2.5-1.1c-1.1,0-1.9,0.4-2.5,1.1c-0.5,0.8-0.8,1.8-0.8,3.1
			c0,1.3,0.3,2.4,0.8,3.1C465.6,354.9,466.4,355.3,467.5,355.3z M467.3,344.1c-0.2,0-0.5,0.1-0.8,0.1c-0.2,0-0.4,0-0.7-0.1l2.4-2.7
			c0.2,0,0.3,0,0.5,0c0.2,0,0.3,0,0.5,0c0.2,0,0.3,0,0.5,0c0.2,0,0.3,0,0.5,0L467.3,344.1z"/>
		<path id="XMLID_996_" class="st5" d="M475.2,345.8c0.1,0,0.2,0,0.3,0c0.1,0,0.2,0,0.3,0c0.1,0,0.2,0,0.3,0c0.1,0,0.2,0,0.3,0
			c0,0.2,0,0.6,0.1,0.9c0,0.4,0,0.7,0,1c0.1-0.2,0.3-0.5,0.5-0.7c0.2-0.3,0.5-0.5,0.8-0.7c0.3-0.2,0.6-0.4,1-0.5
			c0.4-0.1,0.8-0.2,1.3-0.2c1.2,0,2.1,0.4,2.6,1.1c0.5,0.7,0.8,1.7,0.8,3v6.6c-0.1,0-0.2,0-0.3,0c-0.1,0-0.3,0-0.3,0
			c-0.1,0-0.2,0-0.3,0c-0.2,0-0.3,0-0.3,0V350c0-1.2-0.2-2-0.5-2.5c-0.4-0.5-0.9-0.8-1.6-0.8c-0.5,0-0.9,0.1-1.4,0.3
			s-0.8,0.5-1.1,0.8c-0.3,0.4-0.6,0.8-0.7,1.3c-0.2,0.5-0.3,1.1-0.3,1.8v5.2c-0.1,0-0.2,0-0.3,0c-0.1,0-0.3,0-0.3,0
			c-0.1,0-0.2,0-0.3,0c-0.1,0-0.3,0-0.3,0V345.8z"/>
		<path id="XMLID_994_" class="st5" d="M495.5,356.3h-0.4c-0.1,0-0.3,0-0.4,0c-0.2,0-0.3,0-0.4,0l-3.8-10.5c0.1,0,0.2,0,0.3,0
			c0.1,0,0.3,0,0.4,0c0.1,0,0.2,0,0.4,0c0.2,0,0.3,0,0.4,0l3.5,10.2l3.4-10.2c0.1,0,0.2,0,0.3,0c0.1,0,0.3,0,0.4,0
			c0.1,0,0.2,0,0.4,0c0.1,0,0.2,0,0.3,0l-4.6,13.6c-0.2,0.7-0.6,1.3-1,1.6c-0.5,0.3-1,0.5-1.6,0.5c-0.3,0-0.6,0-0.9-0.1
			c-0.3-0.1-0.5-0.1-0.7-0.2c0-0.4,0.1-0.8,0.3-1.1c0.1,0,0.3,0.1,0.5,0.1c0.2,0,0.5,0.1,0.7,0.1c0.4,0,0.7-0.1,1-0.3
			c0.2-0.2,0.4-0.5,0.6-1.1L495.5,356.3z"/>
		<path id="XMLID_992_" class="st5" d="M508.4,341.5c0.1,0,0.2,0,0.4,0c0.2,0,0.3,0,0.5,0c0.2,0,0.3,0,0.5,0c0.2,0,0.3,0,0.4,0
			l4.1,9.8l4.1-9.8c0.1,0,0.2,0,0.4,0c0.2,0,0.3,0,0.5,0s0.3,0,0.5,0c0.2,0,0.3,0,0.4,0l0.7,14.7c-0.1,0-0.2,0-0.3,0
			c-0.1,0-0.2,0-0.4,0c-0.1,0-0.3,0-0.4,0c-0.1,0-0.2,0-0.3,0l-0.5-12.5l-4.1,9.5c-0.1,0-0.2,0-0.3,0c-0.1,0-0.2,0-0.3,0
			c-0.1,0-0.2,0-0.3,0s-0.2,0-0.3,0l-4-9.5l-0.6,12.6c-0.1,0-0.2,0-0.3,0c-0.1,0-0.2,0-0.4,0c-0.1,0-0.3,0-0.4,0c-0.1,0-0.2,0-0.3,0
			L508.4,341.5z"/>
		<path id="XMLID_989_" class="st5" d="M525.3,351.2c0,1.4,0.3,2.4,1,3.1c0.6,0.7,1.6,1,2.9,1c0.5,0,1,0,1.4-0.1
			c0.4-0.1,0.9-0.2,1.3-0.4c0.1,0.2,0.1,0.3,0.2,0.6c0,0.2,0.1,0.4,0.1,0.6c-0.4,0.2-0.9,0.3-1.4,0.4c-0.5,0.1-1.1,0.1-1.7,0.1
			c-0.9,0-1.7-0.1-2.3-0.4c-0.7-0.3-1.2-0.6-1.6-1.1c-0.4-0.5-0.7-1.1-0.9-1.7c-0.2-0.7-0.3-1.4-0.3-2.2c0-0.8,0.1-1.5,0.3-2.2
			c0.2-0.7,0.5-1.3,0.8-1.8c0.4-0.5,0.9-0.9,1.4-1.2c0.6-0.3,1.3-0.4,2.1-0.4c0.7,0,1.3,0.1,1.8,0.3c0.5,0.2,1,0.6,1.3,1
			c0.4,0.4,0.6,0.9,0.8,1.5c0.2,0.6,0.3,1.2,0.3,1.9c0,0.1,0,0.3,0,0.5c0,0.2,0,0.4,0,0.5H525.3z M531.5,350.1
			c0-0.4-0.1-0.8-0.2-1.2c-0.1-0.4-0.3-0.8-0.5-1.1c-0.2-0.3-0.5-0.6-0.9-0.7c-0.4-0.2-0.8-0.3-1.3-0.3c-1,0-1.7,0.3-2.2,0.9
			c-0.5,0.6-0.9,1.4-1,2.5H531.5z"/>
		<path id="XMLID_987_" class="st5" d="M536.3,346.9h-1.8c0-0.1,0-0.2,0-0.3c0-0.1,0-0.2,0-0.3c0-0.1,0-0.2,0-0.3c0-0.1,0-0.2,0-0.2
			h1.8v-2l1.3-1.2h0.1v3.2h2.8c0,0.1,0,0.2,0,0.2c0,0.1,0,0.2,0,0.3c0,0.1,0,0.2,0,0.3c0,0.1,0,0.2,0,0.3h-2.8v6.8
			c0,0.3,0,0.6,0.1,0.8c0.1,0.2,0.2,0.4,0.3,0.5c0.1,0.1,0.3,0.2,0.5,0.2c0.2,0,0.4,0.1,0.6,0.1c0.5,0,0.9-0.1,1.2-0.2
			c0.1,0.4,0.2,0.7,0.2,1.2c-0.5,0.1-1.1,0.2-1.7,0.2c-0.8,0-1.4-0.2-1.9-0.6c-0.5-0.4-0.7-1.1-0.7-2V346.9z"/>
		<path id="XMLID_984_" class="st5" d="M548.5,349.3c0-0.9-0.2-1.6-0.6-2c-0.4-0.4-1.1-0.6-1.9-0.6c-0.5,0-1,0-1.5,0.1
			c-0.5,0.1-0.9,0.2-1.2,0.3c-0.1-0.1-0.1-0.3-0.2-0.5c-0.1-0.2-0.1-0.5-0.1-0.7c0.4-0.1,0.8-0.2,1.3-0.3c0.5-0.1,1.1-0.1,1.6-0.1
			c1.3,0,2.3,0.3,3,0.9c0.6,0.6,1,1.5,1,2.7v6.9c-0.5,0.1-1.1,0.2-1.7,0.3c-0.7,0.1-1.3,0.1-1.9,0.1c-1.3,0-2.3-0.3-3-0.8
			c-0.7-0.5-1.1-1.3-1.1-2.5c0-0.5,0.1-1,0.3-1.5c0.2-0.4,0.5-0.8,0.9-1.1c0.4-0.3,0.8-0.5,1.4-0.7c0.5-0.2,1.1-0.2,1.7-0.2
			c0.5,0,0.9,0,1.3,0.1c0.4,0,0.6,0.1,0.9,0.1V349.3z M548.5,351.1c-0.2,0-0.5-0.1-0.9-0.1c-0.3,0-0.7-0.1-1-0.1
			c-1,0-1.8,0.2-2.4,0.6c-0.6,0.4-0.8,0.9-0.8,1.6c0,0.4,0.1,0.8,0.3,1.1c0.2,0.3,0.4,0.5,0.7,0.6c0.3,0.1,0.6,0.2,0.9,0.3
			s0.7,0.1,1,0.1c0.4,0,0.8,0,1.2-0.1c0.4,0,0.7-0.1,1.1-0.2V351.1z"/>
		<path id="XMLID_981_" class="st5" d="M553.3,341.2c0.1,0,0.2,0,0.3,0c0.1,0,0.3,0,0.3,0c0.1,0,0.2,0,0.3,0c0.2,0,0.3,0,0.3,0v6.1
			c0.3-0.4,0.7-0.8,1.2-1.2c0.5-0.3,1.2-0.5,2.1-0.5c0.6,0,1.2,0.1,1.8,0.3c0.5,0.2,1,0.5,1.4,0.9c0.4,0.4,0.7,1,0.9,1.6
			c0.2,0.6,0.3,1.4,0.3,2.3c0,1.8-0.5,3.2-1.5,4.3c-1,1-2.4,1.5-4.3,1.5c-0.6,0-1.2-0.1-1.8-0.2c-0.6-0.1-1-0.2-1.4-0.4V341.2z
			 M554.6,355c0.3,0.1,0.6,0.2,1,0.2c0.3,0,0.7,0.1,1.1,0.1c0.5,0,1.1-0.1,1.6-0.3s0.9-0.5,1.3-0.8c0.4-0.4,0.7-0.8,0.9-1.4
			c0.2-0.6,0.3-1.2,0.3-2c0-1.2-0.2-2.2-0.7-2.9c-0.5-0.7-1.2-1.1-2.3-1.1c-0.3,0-0.7,0.1-1.1,0.2c-0.4,0.1-0.7,0.3-1.1,0.6
			c-0.3,0.3-0.6,0.6-0.8,1c-0.2,0.4-0.3,1-0.3,1.6V355z"/>
		<path id="XMLID_978_" class="st5" d="M569.4,356.5c-0.8,0-1.5-0.1-2-0.4c-0.6-0.3-1.1-0.7-1.5-1.2c-0.4-0.5-0.7-1.1-0.9-1.7
			c-0.2-0.7-0.3-1.4-0.3-2.2c0-0.8,0.1-1.5,0.3-2.2c0.2-0.7,0.5-1.2,0.9-1.7c0.4-0.5,0.9-0.9,1.5-1.2c0.6-0.3,1.3-0.4,2-0.4
			s1.5,0.1,2,0.4c0.6,0.3,1.1,0.7,1.5,1.2c0.4,0.5,0.7,1.1,0.9,1.7c0.2,0.7,0.3,1.4,0.3,2.2c0,0.8-0.1,1.5-0.3,2.2
			c-0.2,0.7-0.5,1.3-0.9,1.7c-0.4,0.5-0.9,0.9-1.5,1.2C570.9,356.3,570.2,356.5,569.4,356.5z M569.4,355.3c1.1,0,1.9-0.4,2.5-1.2
			c0.5-0.8,0.8-1.8,0.8-3.1c0-1.3-0.3-2.4-0.8-3.1c-0.5-0.8-1.4-1.1-2.5-1.1c-1.1,0-1.9,0.4-2.5,1.1c-0.5,0.8-0.8,1.8-0.8,3.1
			c0,1.3,0.3,2.4,0.8,3.1C567.5,354.9,568.3,355.3,569.4,355.3z"/>
		<path id="XMLID_976_" class="st5" d="M577.1,341.2c0.1,0,0.2,0,0.3,0c0.1,0,0.3,0,0.3,0c0.1,0,0.2,0,0.3,0c0.2,0,0.3,0,0.3,0v12.7
			c0,0.4,0,0.6,0.1,0.8c0.1,0.2,0.2,0.3,0.3,0.4c0.1,0.1,0.3,0.1,0.4,0.2c0.2,0,0.3,0,0.4,0c0.1,0,0.3,0,0.5,0c0.2,0,0.3,0,0.4-0.1
			c0.1,0.2,0.1,0.3,0.1,0.5c0,0.2,0.1,0.4,0.1,0.5c-0.2,0.1-0.4,0.1-0.6,0.1c-0.2,0-0.5,0-0.7,0c-0.3,0-0.6,0-0.9-0.1
			c-0.3-0.1-0.5-0.2-0.8-0.3c-0.2-0.2-0.4-0.4-0.5-0.7c-0.1-0.3-0.2-0.7-0.2-1.2V341.2z"/>
		<path id="XMLID_973_" class="st5" d="M583.5,346.9h-1.3c0-0.1,0-0.1,0-0.2c0-0.1,0-0.2,0-0.3s0-0.2,0-0.3c0-0.1,0-0.2,0-0.3h2.7
			v10.5c-0.1,0-0.2,0-0.3,0c-0.1,0-0.3,0-0.3,0c-0.1,0-0.2,0-0.3,0c-0.2,0-0.3,0-0.3,0V346.9z M582.8,343.2c0-0.1,0-0.3,0-0.5
			c0-0.2,0-0.3,0-0.5c0-0.1,0-0.2,0-0.4c0-0.2,0-0.3,0-0.4c0.1,0,0.3,0,0.5,0c0.2,0,0.3,0,0.5,0c0.1,0,0.2,0,0.4,0
			c0.2,0,0.3,0,0.4,0c0,0.1,0,0.2,0,0.4c0,0.2,0,0.3,0,0.4c0,0.1,0,0.3,0,0.5c0,0.2,0,0.3,0,0.5c-0.1,0-0.2,0-0.4,0
			c-0.2,0-0.3,0-0.4,0c-0.1,0-0.3,0-0.5,0C583.1,343.2,582.9,343.2,582.8,343.2z"/>
		<path id="XMLID_971_" class="st5" d="M588.2,354.8c0.3,0.1,0.7,0.2,1.2,0.3c0.5,0.1,0.9,0.1,1.4,0.1c0.8,0,1.5-0.2,1.9-0.5
			c0.5-0.4,0.7-0.8,0.7-1.3c0-0.4-0.1-0.7-0.2-0.9c-0.1-0.2-0.3-0.4-0.6-0.6c-0.2-0.2-0.5-0.3-0.8-0.4c-0.3-0.1-0.6-0.2-0.9-0.3
			c-0.3-0.1-0.7-0.2-1-0.4c-0.3-0.1-0.6-0.3-0.9-0.5c-0.3-0.2-0.5-0.5-0.6-0.8c-0.2-0.3-0.2-0.7-0.2-1.1c0-0.8,0.3-1.5,0.9-2
			c0.6-0.5,1.5-0.8,2.8-0.8c0.5,0,1,0,1.5,0.1c0.5,0.1,0.9,0.2,1.2,0.3c-0.1,0.4-0.2,0.8-0.3,1.2c-0.3-0.1-0.7-0.2-1.1-0.3
			c-0.4-0.1-0.9-0.1-1.4-0.1c-0.8,0-1.4,0.1-1.8,0.4c-0.3,0.3-0.5,0.7-0.5,1.2c0,0.3,0.1,0.5,0.2,0.7c0.1,0.2,0.3,0.3,0.5,0.5
			c0.2,0.1,0.4,0.2,0.7,0.3c0.3,0.1,0.5,0.2,0.8,0.3c0.4,0.1,0.7,0.3,1.1,0.4c0.4,0.1,0.7,0.3,1,0.6c0.3,0.2,0.6,0.5,0.8,0.9
			c0.2,0.4,0.3,0.8,0.3,1.3c0,0.5-0.1,0.9-0.3,1.3c-0.2,0.4-0.5,0.7-0.8,1c-0.4,0.3-0.8,0.5-1.3,0.6c-0.5,0.1-1,0.2-1.6,0.2
			c-0.7,0-1.2,0-1.8-0.1c-0.5-0.1-0.9-0.2-1.2-0.3C587.9,355.6,588,355.2,588.2,354.8z"/>
		<path id="XMLID_969_" class="st5" d="M597.7,345.8c0.1,0,0.2,0,0.3,0c0.1,0,0.2,0,0.3,0c0.1,0,0.2,0,0.3,0c0.1,0,0.2,0,0.3,0
			c0,0.2,0,0.5,0.1,0.9c0,0.3,0,0.7,0,0.9c0.1-0.3,0.3-0.5,0.5-0.8c0.2-0.2,0.4-0.5,0.7-0.7c0.3-0.2,0.6-0.3,0.9-0.5
			c0.3-0.1,0.7-0.2,1.1-0.2c0.4,0,0.7,0,1,0.1c0.3,0.1,0.5,0.2,0.7,0.4c0.2,0.2,0.4,0.4,0.5,0.6c0.1,0.2,0.3,0.5,0.4,0.8
			c0.1-0.2,0.3-0.4,0.5-0.7c0.2-0.2,0.4-0.4,0.7-0.6c0.2-0.2,0.5-0.3,0.9-0.5c0.3-0.1,0.7-0.2,1.1-0.2c1.2,0,2.1,0.3,2.6,1
			c0.5,0.7,0.8,1.7,0.8,3v6.7c-0.1,0-0.2,0-0.3,0c-0.1,0-0.3,0-0.3,0c-0.1,0-0.2,0-0.3,0c-0.1,0-0.3,0-0.3,0V350
			c0-1.1-0.2-1.9-0.5-2.5c-0.4-0.5-0.9-0.8-1.6-0.8c-0.4,0-0.8,0.1-1.1,0.3c-0.3,0.2-0.6,0.4-0.8,0.7c-0.2,0.3-0.4,0.7-0.5,1.1
			c-0.1,0.4-0.2,0.8-0.2,1.3v6.1c-0.1,0-0.2,0-0.3,0c-0.1,0-0.3,0-0.3,0c-0.1,0-0.2,0-0.3,0c-0.2,0-0.3,0-0.3,0v-6.5
			c0-1.1-0.2-1.8-0.5-2.3c-0.3-0.5-0.8-0.8-1.4-0.8c-0.4,0-0.8,0.1-1.2,0.3c-0.4,0.2-0.7,0.5-0.9,0.9c-0.3,0.4-0.5,0.8-0.6,1.4
			c-0.1,0.5-0.2,1.1-0.2,1.7v5.2c-0.1,0-0.2,0-0.3,0c-0.1,0-0.3,0-0.3,0c-0.1,0-0.2,0-0.3,0c-0.1,0-0.3,0-0.3,0V345.8z"/>
		<path id="XMLID_966_" class="st5" d="M618.9,356.5c-0.8,0-1.5-0.1-2-0.4c-0.6-0.3-1.1-0.7-1.5-1.2c-0.4-0.5-0.7-1.1-0.9-1.7
			c-0.2-0.7-0.3-1.4-0.3-2.2c0-0.8,0.1-1.5,0.3-2.2c0.2-0.7,0.5-1.2,0.9-1.7c0.4-0.5,0.9-0.9,1.5-1.2c0.6-0.3,1.3-0.4,2-0.4
			s1.5,0.1,2,0.4c0.6,0.3,1.1,0.7,1.5,1.2c0.4,0.5,0.7,1.1,0.9,1.7c0.2,0.7,0.3,1.4,0.3,2.2c0,0.8-0.1,1.5-0.3,2.2
			c-0.2,0.7-0.5,1.3-0.9,1.7c-0.4,0.5-0.9,0.9-1.5,1.2C620.4,356.3,619.7,356.5,618.9,356.5z M618.9,355.3c1.1,0,1.9-0.4,2.5-1.2
			c0.5-0.8,0.8-1.8,0.8-3.1c0-1.3-0.3-2.4-0.8-3.1c-0.5-0.8-1.4-1.1-2.5-1.1c-1.1,0-1.9,0.4-2.5,1.1c-0.5,0.8-0.8,1.8-0.8,3.1
			c0,1.3,0.3,2.4,0.8,3.1C617,354.9,617.8,355.3,618.9,355.3z"/>
		<path id="XMLID_964_" class="st5" d="M632,341.5c0.1,0,0.2,0,0.3,0c0.1,0,0.3,0,0.4,0c0.1,0,0.2,0,0.4,0c0.1,0,0.2,0,0.3,0v14.7
			c-0.1,0-0.2,0-0.3,0c-0.1,0-0.2,0-0.4,0c-0.1,0-0.3,0-0.4,0c-0.1,0-0.2,0-0.3,0V341.5z"/>
		<path id="XMLID_962_" class="st5" d="M637.3,345.8c0.1,0,0.2,0,0.3,0c0.1,0,0.2,0,0.3,0c0.1,0,0.2,0,0.3,0c0.1,0,0.2,0,0.3,0
			c0,0.2,0,0.6,0.1,0.9c0,0.4,0,0.7,0,1c0.1-0.2,0.3-0.5,0.5-0.7c0.2-0.3,0.5-0.5,0.8-0.7s0.6-0.4,1-0.5c0.4-0.1,0.8-0.2,1.3-0.2
			c1.2,0,2.1,0.4,2.6,1.1c0.5,0.7,0.8,1.7,0.8,3v6.6c-0.1,0-0.2,0-0.3,0c-0.1,0-0.3,0-0.3,0c-0.1,0-0.2,0-0.3,0c-0.2,0-0.3,0-0.3,0
			V350c0-1.2-0.2-2-0.5-2.5c-0.4-0.5-0.9-0.8-1.6-0.8c-0.5,0-0.9,0.1-1.4,0.3s-0.8,0.5-1.1,0.8c-0.3,0.4-0.6,0.8-0.7,1.3
			c-0.2,0.5-0.3,1.1-0.3,1.8v5.2c-0.1,0-0.2,0-0.3,0c-0.1,0-0.3,0-0.3,0c-0.1,0-0.2,0-0.3,0c-0.1,0-0.3,0-0.3,0V345.8z"/>
		<path id="XMLID_960_" class="st5" d="M649.5,346.9h-1.8c0-0.1,0-0.2,0-0.3c0-0.1,0-0.2,0-0.3c0-0.1,0-0.2,0-0.3c0-0.1,0-0.2,0-0.2
			h1.8v-2l1.3-1.2h0.1v3.2h2.8c0,0.1,0,0.2,0,0.2c0,0.1,0,0.2,0,0.3c0,0.1,0,0.2,0,0.3c0,0.1,0,0.2,0,0.3h-2.8v6.8
			c0,0.3,0,0.6,0.1,0.8c0.1,0.2,0.2,0.4,0.3,0.5c0.1,0.1,0.3,0.2,0.5,0.2c0.2,0,0.4,0.1,0.6,0.1c0.5,0,0.9-0.1,1.2-0.2
			c0.1,0.4,0.2,0.7,0.2,1.2c-0.5,0.1-1.1,0.2-1.7,0.2c-0.8,0-1.4-0.2-1.9-0.6c-0.5-0.4-0.7-1.1-0.7-2V346.9z"/>
		<path id="XMLID_957_" class="st5" d="M656.9,351.2c0,1.4,0.3,2.4,1,3.1c0.6,0.7,1.6,1,2.9,1c0.5,0,1,0,1.4-0.1
			c0.4-0.1,0.9-0.2,1.3-0.4c0.1,0.2,0.1,0.3,0.2,0.6c0,0.2,0.1,0.4,0.1,0.6c-0.4,0.2-0.9,0.3-1.4,0.4c-0.5,0.1-1.1,0.1-1.7,0.1
			c-0.9,0-1.7-0.1-2.3-0.4c-0.7-0.3-1.2-0.6-1.6-1.1c-0.4-0.5-0.7-1.1-0.9-1.7c-0.2-0.7-0.3-1.4-0.3-2.2c0-0.8,0.1-1.5,0.3-2.2
			c0.2-0.7,0.5-1.3,0.8-1.8c0.4-0.5,0.9-0.9,1.4-1.2c0.6-0.3,1.3-0.4,2.1-0.4c0.7,0,1.3,0.1,1.8,0.3c0.5,0.2,1,0.6,1.3,1
			c0.4,0.4,0.6,0.9,0.8,1.5c0.2,0.6,0.3,1.2,0.3,1.9c0,0.1,0,0.3,0,0.5c0,0.2,0,0.4,0,0.5H656.9z M663,350.1c0-0.4-0.1-0.8-0.2-1.2
			c-0.1-0.4-0.3-0.8-0.5-1.1c-0.2-0.3-0.5-0.6-0.9-0.7c-0.4-0.2-0.8-0.3-1.3-0.3c-1,0-1.7,0.3-2.2,0.9c-0.5,0.6-0.9,1.4-1,2.5H663z"
			/>
		<path id="XMLID_952_" class="st5" d="M672.5,355.2c1.2,0,2.1,0.3,2.6,0.7c0.5,0.5,0.8,1.1,0.8,1.9c0,0.5-0.1,1-0.4,1.4
			c-0.3,0.4-0.7,0.8-1.2,1.1c-0.5,0.3-1.1,0.5-1.8,0.7c-0.7,0.2-1.4,0.3-2.2,0.3c-0.6,0-1.2,0-1.7-0.1c-0.5-0.1-1-0.3-1.3-0.5
			c-0.4-0.2-0.7-0.5-0.9-0.8s-0.3-0.8-0.3-1.3c0-0.5,0.1-1,0.4-1.5c0.3-0.5,0.7-0.8,1.2-1.1c-0.3-0.2-0.5-0.4-0.7-0.6
			c-0.2-0.3-0.3-0.6-0.3-0.9c0-0.5,0.1-1,0.4-1.3c0.3-0.4,0.6-0.7,1-1c-0.5-0.3-0.9-0.7-1.1-1.2c-0.3-0.5-0.4-1.1-0.4-1.8
			c0-0.5,0.1-1,0.3-1.4c0.2-0.4,0.4-0.8,0.8-1.2c0.3-0.3,0.8-0.6,1.3-0.8c0.5-0.2,1.1-0.3,1.7-0.3c0.6,0,1.1,0.1,1.5,0.2
			c0.4,0.1,0.8,0.3,1.2,0.6c0.1-0.1,0.3-0.1,0.5-0.2s0.4-0.1,0.7-0.2c0.2,0,0.5-0.1,0.8-0.1c0.3,0,0.5-0.1,0.8-0.1
			c0.1,0.2,0.1,0.4,0.1,0.7c0,0.3,0,0.5-0.1,0.7h-1.9c0.2,0.3,0.3,0.6,0.4,1c0.1,0.3,0.2,0.7,0.2,1.1c0,0.6-0.1,1.1-0.3,1.6
			c-0.2,0.5-0.5,0.8-0.8,1.1s-0.8,0.5-1.3,0.7c-0.5,0.2-1,0.2-1.6,0.2c-0.6,0-1.1-0.1-1.5-0.2c-0.4,0.2-0.7,0.5-0.8,0.7
			c-0.2,0.2-0.2,0.5-0.2,0.8c0,0.1,0,0.3,0.1,0.4c0,0.1,0.1,0.2,0.3,0.3c0.1,0.1,0.3,0.2,0.5,0.2c0.2,0.1,0.5,0.1,0.9,0.1
			L672.5,355.2z M669.6,356.4c-0.6,0-1.2,0.2-1.5,0.5c-0.4,0.4-0.6,0.9-0.6,1.5c0,0.3,0.1,0.6,0.2,0.8c0.2,0.2,0.4,0.4,0.6,0.5
			c0.3,0.1,0.6,0.2,0.9,0.3c0.4,0,0.7,0.1,1.1,0.1c1.3,0,2.3-0.2,3-0.6c0.7-0.4,1.1-0.9,1.1-1.5c0-0.5-0.2-0.9-0.5-1.1
			c-0.4-0.2-0.9-0.3-1.7-0.3L669.6,356.4z M668.1,349.2c0,0.7,0.2,1.3,0.6,1.8c0.4,0.5,1.1,0.7,2,0.7c0.9,0,1.5-0.2,2-0.7
			c0.4-0.5,0.6-1.1,0.6-1.8c0-0.7-0.2-1.3-0.6-1.8c-0.4-0.5-1.1-0.7-2-0.7c-0.9,0-1.5,0.2-2,0.7
			C668.3,347.9,668.1,348.5,668.1,349.2z"/>
		<path id="XMLID_950_" class="st5" d="M678.1,345.8c0.1,0,0.2,0,0.3,0c0.1,0,0.2,0,0.3,0c0.1,0,0.2,0,0.3,0c0.1,0,0.2,0,0.3,0
			c0,0.2,0,0.5,0.1,0.9c0,0.3,0,0.6,0,0.9c0.3-0.5,0.7-0.9,1.1-1.3c0.5-0.3,1.1-0.5,1.9-0.5c0.1,0,0.1,0,0.2,0c0.1,0,0.2,0,0.3,0
			c0,0.2,0.1,0.5,0.1,0.7c0,0.2,0,0.4-0.1,0.6c-0.1,0-0.2,0-0.3,0c-0.1,0-0.1,0-0.2,0c-0.9,0-1.7,0.3-2.2,0.9
			c-0.6,0.6-0.8,1.6-0.8,2.9v5.4c-0.1,0-0.2,0-0.3,0c-0.1,0-0.3,0-0.3,0c-0.1,0-0.2,0-0.3,0c-0.1,0-0.3,0-0.3,0V345.8z"/>
		<path id="XMLID_947_" class="st5" d="M690.9,349.3c0-0.9-0.2-1.6-0.6-2c-0.4-0.4-1.1-0.6-1.9-0.6c-0.5,0-1,0-1.5,0.1
			c-0.5,0.1-0.9,0.2-1.2,0.3c-0.1-0.1-0.1-0.3-0.2-0.5c-0.1-0.2-0.1-0.5-0.1-0.7c0.4-0.1,0.8-0.2,1.3-0.3c0.5-0.1,1.1-0.1,1.6-0.1
			c1.3,0,2.3,0.3,3,0.9c0.6,0.6,1,1.5,1,2.7v6.9c-0.5,0.1-1.1,0.2-1.7,0.3c-0.7,0.1-1.3,0.1-1.9,0.1c-1.3,0-2.3-0.3-3-0.8
			c-0.7-0.5-1.1-1.3-1.1-2.5c0-0.5,0.1-1,0.3-1.5c0.2-0.4,0.5-0.8,0.9-1.1c0.4-0.3,0.8-0.5,1.4-0.7c0.5-0.2,1.1-0.2,1.7-0.2
			c0.5,0,0.9,0,1.3,0.1s0.6,0.1,0.9,0.1V349.3z M690.9,351.1c-0.2,0-0.5-0.1-0.9-0.1c-0.3,0-0.7-0.1-1-0.1c-1,0-1.8,0.2-2.4,0.6
			c-0.6,0.4-0.8,0.9-0.8,1.6c0,0.4,0.1,0.8,0.3,1.1c0.2,0.3,0.4,0.5,0.7,0.6c0.3,0.1,0.6,0.2,0.9,0.3c0.3,0,0.7,0.1,1,0.1
			c0.4,0,0.8,0,1.2-0.1c0.4,0,0.7-0.1,1.1-0.2V351.1z"/>
		<path id="XMLID_945_" class="st5" d="M695.6,341.2c0.1,0,0.2,0,0.3,0c0.1,0,0.3,0,0.3,0c0.1,0,0.2,0,0.3,0c0.2,0,0.3,0,0.3,0v12.7
			c0,0.4,0,0.6,0.1,0.8c0.1,0.2,0.2,0.3,0.3,0.4c0.1,0.1,0.3,0.1,0.4,0.2c0.2,0,0.3,0,0.4,0c0.1,0,0.3,0,0.5,0c0.2,0,0.3,0,0.4-0.1
			c0.1,0.2,0.1,0.3,0.1,0.5c0,0.2,0.1,0.4,0.1,0.5c-0.2,0.1-0.4,0.1-0.6,0.1c-0.2,0-0.5,0-0.7,0c-0.3,0-0.6,0-0.9-0.1
			c-0.3-0.1-0.5-0.2-0.8-0.3s-0.4-0.4-0.5-0.7c-0.1-0.3-0.2-0.7-0.2-1.2V341.2z"/>
	</g>
</g>
</svg>
