<?xml version="1.0" encoding="utf-8"?>
<!-- Generator: Adobe Illustrator 22.1.0, SVG Export Plug-In . SVG Version: 6.00 Build 0)  -->
<svg version="1.1" id="Capa_1" xmlns="http://www.w3.org/2000/svg" xmlns:xlink="http://www.w3.org/1999/xlink" x="0px" y="0px"
	 viewBox="0 0 792 612" style="enable-background:new 0 0 792 612;" xml:space="preserve">
<style type="text/css">
	.st0{fill:#FFFFFF;}
</style>
<path class="st0" d="M396,185.8c-66.3,0-120,53.7-120,120c0,66.3,53.7,120,120,120c66.3,0,120-53.7,120-120
	C516,239.5,462.3,185.8,396,185.8L396,185.8z M392.2,265.9h89.5c0.6,0,1.2,0.1,1.8,0.2l-50.1,28.8L391,266
	C391.4,266,391.8,265.9,392.2,265.9L392.2,265.9z M324.5,334v-12.4h39.9l-0.5,4l-0.1,0.7v0.7c0,2.4,0.4,4.7,1.1,6.9H324.5z
	 M365.8,309.6H311v-12.4h56.4L365.8,309.6z M370.1,274.7l-0.8,6.4h-70.4v-12.4h72.3C370.5,270.6,370.1,272.6,370.1,274.7
	L370.1,274.7z M475.5,336.8H386c-2.7,0-5.1-1.1-6.9-2.8c-0.4-0.4-0.8-0.9-1.2-1.4c0,0,0,0,0,0c-0.3-0.5-0.6-1-0.8-1.5
	c0-0.1-0.1-0.1-0.1-0.2c-0.2-0.5-0.4-1-0.5-1.6c0-0.1-0.1-0.2-0.1-0.3c-0.1-0.6-0.2-1.3-0.2-2l3.3-27.4l0.3-2.5l2.6-21.6
	c0-0.6,0.1-1.2,0.2-1.8c0-0.1,0-0.1,0-0.2c0,0,0,0,0,0c0.3-1.3,0.8-2.6,1.6-3.6v4.7l46.2,31.3c0.1,0,0.1,0.1,0.2,0.1
	c0.1,0,0.1,0.1,0.2,0.1c0.4,0.2,0.7,0.3,1.1,0.4c0,0,0.1,0,0.1,0c0.4,0.1,0.8,0.2,1.3,0.2h0c0.4,0,0.8-0.1,1.3-0.2c0,0,0.1,0,0.1,0
	c0.4-0.1,0.8-0.2,1.1-0.4c0.1,0,0.1-0.1,0.2-0.1c0.1,0,0.1-0.1,0.2-0.1l55-31.8c0.1,0.4,0.1,0.9,0.1,1.4l-6.2,51.5
	C485.2,332.5,480.9,336.8,475.5,336.8L475.5,336.8z M475.5,336.8"/>
</svg>
