<?xml version="1.0" encoding="utf-8"?>
<!-- Generator: Adobe Illustrator 22.1.0, SVG Export Plug-In . SVG Version: 6.00 Build 0)  -->
<svg version="1.1" id="Capa_1" xmlns="http://www.w3.org/2000/svg" xmlns:xlink="http://www.w3.org/1999/xlink" x="0px" y="0px"
	 viewBox="0 0 792 612" style="enable-background:new 0 0 792 612;" xml:space="preserve">
<style type="text/css">
	.st0{fill:#FFFFFF;}
</style>
<path class="st0" d="M395.4,268c-21.2,0-38.4,17.2-38.4,38.4c0,21.2,17.2,38.4,38.4,38.4c21.2,0,38.4-17.2,38.4-38.4
	C433.8,285.2,416.6,268,395.4,268L395.4,268z M404.5,294.5h-5.8c-0.7,0-1.4,0.9-1.4,2.1v4.2h7.2v5.9h-7.2v17.8h-6.8v-17.8h-6.2v-5.9
	h6.2v-3.5c0-5,3.5-9.1,8.3-9.1h5.8V294.5z M404.5,294.5"/>
</svg>
