<?xml version="1.0" encoding="utf-8"?>
<!-- Generator: Adobe Illustrator 22.1.0, SVG Export Plug-In . SVG Version: 6.00 Build 0)  -->
<svg version="1.1" id="Capa_1" xmlns="http://www.w3.org/2000/svg" xmlns:xlink="http://www.w3.org/1999/xlink" x="0px" y="0px"
	 viewBox="0 0 792 612" style="enable-background:new 0 0 792 612;" xml:space="preserve">
<style type="text/css">
	.st0{fill:#FFFFFF;}
</style>
<g>
	<path class="st0" d="M405.2,297c0-5.5-4.5-10-10-10s-10,4.5-10,10c0,7.9,10,19.7,10,19.7S405.2,304.9,405.2,297L405.2,297z
		 M390.2,296.4c0-2.7,2.2-4.9,4.9-4.9c2.7,0,4.9,2.2,4.9,4.9c0,2.7-2.2,4.9-4.9,4.9C392.4,301.4,390.2,299.2,390.2,296.4
		L390.2,296.4z M390.2,296.4"/>
	<path class="st0" d="M397.6,296.4c0,1.3-1.1,2.4-2.4,2.4c-1.3,0-2.4-1.1-2.4-2.4c0-1.3,1.1-2.4,2.4-2.4
		C396.5,294,397.6,295.1,397.6,296.4L397.6,296.4z M397.6,296.4"/>
	<path class="st0" d="M400.8,313.2c-0.8,1.2-1.6,2.2-2.2,3c6.3,0.4,10.5,1.7,12,2.8c-1.8,1.2-7.2,2.9-15.5,2.9
		c-8.3,0-13.7-1.7-15.5-2.9c1.5-1,5.7-2.4,12-2.8c-0.6-0.8-1.4-1.9-2.2-3c-7.8,0.8-13.5,3.1-13.5,5.8c0,3.4,8.6,6.1,19.1,6.1
		c10.6,0,19.1-2.7,19.1-6.1C414.3,316.3,408.6,314,400.8,313.2L400.8,313.2z M400.8,313.2"/>
</g>
</svg>
