<?xml version="1.0" encoding="utf-8"?>
<!-- Generator: Adobe Illustrator 22.1.0, SVG Export Plug-In . SVG Version: 6.00 Build 0)  -->
<svg version="1.1" id="Capa_1" xmlns="http://www.w3.org/2000/svg" xmlns:xlink="http://www.w3.org/1999/xlink" x="0px" y="0px"
	 viewBox="0 0 792 612" style="enable-background:new 0 0 792 612;" xml:space="preserve">
<style type="text/css">
	.st0{fill:#FFFFFF;}
</style>
<g>
	<path class="st0" d="M395.9,267c-21.4,0-38.9,17.4-38.9,38.9c0,21.4,17.4,38.9,38.9,38.9c21.4,0,38.9-17.4,38.9-38.9
		C434.7,284.4,417.3,267,395.9,267L395.9,267z M395.9,336.5c-16.9,0-30.6-13.7-30.6-30.6c0-16.9,13.7-30.6,30.6-30.6
		c16.9,0,30.6,13.7,30.6,30.6C426.5,322.7,412.7,336.5,395.9,336.5L395.9,336.5z M395.9,336.5"/>
	<path class="st0" d="M416.1,304.7h-17.5v-21c0-1.8-1.4-3.2-3.2-3.2c-1.8,0-3.2,1.4-3.2,3.2v24.2c0,1.8,1.4,3.2,3.2,3.2h20.7
		c1.8,0,3.2-1.4,3.2-3.2C419.3,306.1,417.9,304.7,416.1,304.7L416.1,304.7z M416.1,304.7"/>
</g>
</svg>
