<?xml version="1.0" encoding="utf-8"?>
<!-- Generator: Adobe Illustrator 22.1.0, SVG Export Plug-In . SVG Version: 6.00 Build 0)  -->
<svg version="1.1" id="Capa_1" xmlns="http://www.w3.org/2000/svg" xmlns:xlink="http://www.w3.org/1999/xlink" x="0px" y="0px"
	 viewBox="0 0 792 612" style="enable-background:new 0 0 792 612;" xml:space="preserve">
<style type="text/css">
	.st0{fill:#FFFFFF;}
</style>
<path class="st0" d="M495.3,368.8c-12.6-12.4-28.2-12.4-40.7,0c-9.5,9.4-19,18.9-28.4,28.5c-2.6,2.6-4.7,3.2-7.8,1.4
	c-6.2-3.4-12.7-6.1-18.6-9.8c-27.6-17.4-50.7-39.7-71.2-64.8c-10.2-12.5-19.2-25.8-25.5-40.9c-1.3-3-1-5,1.4-7.5
	c9.5-9.2,18.8-18.6,28.2-28.1c13-13.1,13-28.5-0.1-41.7c-7.4-7.5-14.9-14.9-22.3-22.4c-7.7-7.7-15.3-15.4-23-23
	c-12.6-12.2-28.2-12.2-40.7,0.1c-9.6,9.4-18.8,19.1-28.6,28.4c-9,8.6-13.6,19-14.6,31.3c-1.5,19.9,3.4,38.7,10.2,57
	C227.6,315.3,249,349,275,379.9c35.1,41.8,77,74.8,126.1,98.6c22.1,10.7,45,19,69.8,20.3c17.1,1,32-3.4,43.9-16.7
	c8.2-9.1,17.4-17.4,26-26.2c12.8-13,12.9-28.6,0.2-41.4C525.8,399.2,510.6,384,495.3,368.8L495.3,368.8z M495.3,368.8"/>
<path class="st0" d="M480,305.1l29.5-5c-4.6-27.1-17.4-51.7-36.9-71.2c-20.6-20.6-46.6-33.5-75.2-37.5l-4.2,29.7
	c22.2,3.1,42.3,13.1,58.2,29C466.6,265.1,476.4,284.1,480,305.1L480,305.1z M480,305.1"/>
<path class="st0" d="M526.2,176.8c-34.1-34.1-77.2-55.6-124.8-62.2l-4.2,29.7c41.1,5.8,78.4,24.4,107.8,53.8
	c27.9,27.9,46.2,63.2,52.9,102l29.5-5C579.7,250,558.5,209.2,526.2,176.8L526.2,176.8z M526.2,176.8"/>
</svg>
