<?xml version="1.0" encoding="utf-8"?>
<!-- Generator: Adobe Illustrator 22.0.1, SVG Export Plug-In . SVG Version: 6.00 Build 0)  -->
<svg version="1.1" id="Capa_1" xmlns="http://www.w3.org/2000/svg" xmlns:xlink="http://www.w3.org/1999/xlink" x="0px" y="0px"
	 viewBox="0 0 594 123.4" style="enable-background:new 0 0 594 123.4;" xml:space="preserve">
<style type="text/css">
	.st0{fill:url(#XMLID_2_);}
	.st1{fill:url(#XMLID_3_);}
	.st2{fill:#2DAFAC;}
	.st3{fill:#FFFFFF;}
	.st4{fill:#118D86;}
	.st5{fill:#40403F;}
</style>
<g id="XMLID_426_">
	<g id="XMLID_1140_">
		<linearGradient id="XMLID_2_" gradientUnits="userSpaceOnUse" x1="330.6134" y1="12.0938" x2="160.3968" y2="125.8799">
			<stop  offset="5.299937e-03" style="stop-color:#FFFFFF;stop-opacity:0"/>
			<stop  offset="0.8636" style="stop-color:#DEE0E0"/>
		</linearGradient>
		<path id="XMLID_1142_" class="st0" d="M268.5,51.8c1.2,1.4,6.3,0.7,11.4-1.7c5.1-2.4,8.3-5.5,7.1-6.9c-1.2-1.4-6.3-0.7-11.4,1.7
			C270.4,47.2,267.3,50.3,268.5,51.8z"/>
		<linearGradient id="XMLID_3_" gradientUnits="userSpaceOnUse" x1="329.6212" y1="10.6094" x2="159.4045" y2="124.3956">
			<stop  offset="5.299937e-03" style="stop-color:#FFFFFF;stop-opacity:0"/>
			<stop  offset="0.8636" style="stop-color:#DEE0E0"/>
		</linearGradient>
		<path id="XMLID_1141_" class="st1" d="M315.7,42c0,0-41.6,15.3-51,13.1c-7.9-1.9-8.3-18.8-8.3-18.8s-0.1-0.4-0.9-0.3
			c-0.5,0.1-1.3,0.4-1.5,1.1c0,0-1.4,12.7-4.5,18.9c-0.3,0.9-1.5,2.5-3.1,3.7c0,0,0,0,0,0c-3.7,3.1-4.8,4.5-5.3,7.6
			c0,0-1.1,5.7-9.1,10c-12.5,6.8-19.9,13-23.1,17.3c0,0-1.2,1.4-2.6,2.3c-5.6,3.7-20.6,13.9-30,18.2c-9.6,4.4-5.4,5.1-5.4,5.1
			c2.5,0.5,14-5.3,26.6-11.6c0.8-0.4,1.1-0.3,1.1,0c-2.4,3.6-3.7,6.5-1.7,6.1c3.4,0.7,13.6-11.9,13.6-12c0.7-1,1.1-1.2,2.1-1.7
			c4.6-2.4,8.8-4.5,11.7-5.9c13-6.5,17.7-10.5,21.6-16.1c3.9-5.6,10.8-9.7,10.8-9.7c10.8-7.7,59.4-25.5,59.4-25.5c2.5-1.1,3-1.7,3-2
			C318.9,40.9,315.7,42,315.7,42z"/>
	</g>
	<g id="XMLID_1137_">
		<path id="XMLID_1139_" class="st2" d="M175.2,22.8c3,2.1,7.4,0.9,9.9-2.7c2.4-3.5,1.9-8.1-1.1-10.1c-3-2.1-7.4-0.9-9.9,2.7
			C171.7,16.2,172.2,20.7,175.2,22.8z"/>
		<path id="XMLID_1138_" class="st2" d="M212.6,8c0,0-24.7,22.8-37.3,19.7c-10.5-2.6-31.8-27.2-31.8-27.2S143-0.2,142.2,0
			c-0.4,0.1-0.9,0.5-0.2,1.6c0,0,15.2,18.1,19.6,27.2c1.2,1.9,0.3,5.8,0.3,5.8c-0.6,4.2,0.5,6.6,3.8,11.1c0,0,5.8,8.2,2.8,14.6
			c-4.7,10-4.9,19-3,25.4c0,0,0.5,2.1,0.1,3.4c-1.4,5.4-4.5,20.4-9,26.8c-4.6,6.5,0.6,7.4,0.6,7.4c3.2,0.7,8.2-7.8,13.6-17.1
			c0.4-0.6,0.9-0.4,1.1-0.1c2,5.3,4.1,9.5,5.7,8.8c4.4,0.9-0.4-17.5-0.4-17.5c-0.4-1.4-0.3-1.7,0.1-2.5c1.9-3.5,3.7-6.6,4.9-8.8
			c5.6-9.6,5.6-15.5,2.8-23.6s-0.6-14.2-0.6-14.2c1.9-11.2,30.9-37.8,30.9-37.8c1.4-1.6,1.1-2.6,0.6-3C214.6,6.4,212.6,8,212.6,8z"
			/>
	</g>
	<g id="XMLID_1126_">
		<path id="XMLID_1133_" class="st2" d="M13.1,7.2c0.2-1.1,0.9-1.7,2-1.7h10.8c3.6,0,6.9,0.3,9.8,1c2.9,0.7,5.3,1.7,7.1,3.1
			c1.8,1.4,3.1,3.2,3.9,5.4c0.7,2.2,0.8,4.8,0.1,7.8c-0.5,2.6-1.5,4.9-2.8,6.9s-2.9,3.7-4.8,5.1c-0.5,0.3-0.9,0.7-1,1.2
			c-0.1,0.4,0,0.8,0.3,1c2.6,1.5,4.3,3.6,5.3,6.1c1,2.5,1.1,5.5,0.4,9c-0.6,3-1.7,5.6-3.4,7.9c-1.7,2.3-3.7,4.2-6.2,5.7
			c-2.5,1.5-5.3,2.7-8.5,3.5c-3.2,0.8-6.6,1.2-10.2,1.2H1.5c-1.1,0-1.6-0.6-1.4-1.7L13.1,7.2z M31.9,52c0.5-2.1,0.4-4-0.1-5.5
			c-0.5-1.5-1.4-2.8-2.6-3.8c-1.2-1-2.6-1.7-4.3-2.1c-1.7-0.4-3.4-0.6-5.2-0.6c-0.9,0-1.4,0.4-1.5,1.3l-4.5,21
			c-0.1,0.5-0.1,0.8,0.3,1c0.3,0.2,0.7,0.3,1.2,0.3h2.2c2.7,0,4.9-0.4,6.7-1.2c1.8-0.8,3.2-1.8,4.3-3c1.1-1.2,1.9-2.4,2.5-3.8
			C31.3,54.4,31.7,53.2,31.9,52z M34.6,22.8c0.2-1.1,0.3-2.4,0.4-3.7c0-1.3-0.2-2.5-0.8-3.6c-0.5-1.1-1.5-1.9-2.9-2.6
			c-1.4-0.7-3.3-0.9-5.8-0.8c-0.8,0-1.3,0.4-1.4,1.3l-3.9,18.3c-0.3,1.1,0,1.6,0.9,1.6c2.5,0.1,4.5-0.2,6.1-0.9s2.9-1.5,3.9-2.6
			c1-1,1.8-2.2,2.3-3.5S34.3,24,34.6,22.8z"/>
		<g id="XMLID_1130_">
			<path class="st2" d="M117.1,71.4c-3.4,0-6.2-0.7-8.5-2.1c-2.3-1.4-4.1-3.3-5.4-5.6c-1.3-2.3-2-5-2.3-8.1c-0.2-3,0-6.3,0.8-9.7
				c0.7-3.4,1.8-6.6,3.3-9.7c1.5-3.1,3.5-5.8,5.7-8.1c2.3-2.3,4.9-4.2,7.7-5.6c2.9-1.4,6.1-2.1,9.4-2.1c2.3,0,4.3,0.4,6.1,1.2
				c0.2,0.1,0.4,0.1,0.6,0.1c0.3,0,0.5-0.1,0.7-0.2c0.4-0.2,0.7-0.7,0.8-1.2l3.4-18.1c0.2-1.2,0.9-1.8,2.1-1.8h8.9
				c0.6,0,1,0.1,1.2,0.4c0.3,0.3,0.3,0.8,0.2,1.4L143.1,46c-1.2,5.7-1.8,10.1-1.8,13.2c0,3,1.2,4.5,3.4,4.5c1.8,0,3.6-1.6,5.4-4.6
				c1.8-3.1,3.7-7.5,5.6-13.2c0.2-0.6,0.6-1,1.1-1.2c0.5-0.2,0.9-0.3,1.3-0.3c0.1,0,0.1,0,0.2,0c0.5,0,0.9,0.2,1.2,0.6
				c0.3,0.4,0.4,0.9,0.2,1.5c-1.1,3.2-2.2,6.2-3.4,9.1c-1.2,2.9-2.6,5.5-4.1,7.7c-1.5,2.2-3.2,4-5.1,5.3c-1.9,1.3-4.1,2-6.5,2
				c-1.8,0-3.3-0.3-4.5-0.9c-1.3-0.6-2.4-1.5-3.3-2.6c-0.3-0.3-0.6-0.5-1-0.5c-0.4,0-0.8,0.2-1.3,0.5c-2,1.4-4.1,2.5-6.3,3.3
				C121.9,71,119.5,71.4,117.1,71.4z M126.3,27.4c-1.9,0-3.5,0.5-4.8,1.4c-1.3,1-2.4,2.3-3.3,4c-0.9,1.7-1.7,3.7-2.4,5.9
				c-0.6,2.2-1.2,4.6-1.8,7.3c-0.5,2.6-1,5-1.3,7.3c-0.3,2.2-0.4,4.2-0.2,5.9c0.2,1.7,0.7,3,1.6,4c0.9,0.9,2.3,1.4,4.2,1.4
				c1.8,0,3.4-0.5,4.8-1.4c1.3-1,2.5-2.3,3.4-4c0.9-1.7,1.7-3.7,2.4-5.9c0.6-2.2,1.2-4.7,1.8-7.3l0.5-2.3c0.4-2.3,0.7-4.4,1-6.4
				c0.2-2,0.2-3.7-0.1-5.2c-0.3-1.4-0.9-2.6-1.7-3.4C129.4,27.8,128.1,27.4,126.3,27.4z"/>
			<path class="st3" d="M150.5,0.6c1.1,0,1.5,0.6,1.3,1.7L142.9,46c-1.2,5.7-1.8,10.1-1.8,13.2c0,3.1,1.2,4.6,3.6,4.6
				c1.9,0,3.7-1.6,5.5-4.7c1.8-3.1,3.7-7.5,5.6-13.2c0.2-0.5,0.6-0.9,1.1-1.2c0.4-0.2,0.9-0.3,1.3-0.3c0.1,0,0.1,0,0.2,0
				c0.4,0,0.8,0.2,1.1,0.6c0.3,0.3,0.4,0.8,0.2,1.4c-1.1,3.2-2.2,6.2-3.4,9.1c-1.2,2.9-2.6,5.4-4.1,7.7c-1.5,2.2-3.2,4-5.1,5.3
				c-1.9,1.3-4,2-6.4,2c-1.7,0-3.2-0.3-4.5-0.9c-1.2-0.6-2.3-1.5-3.3-2.6c-0.3-0.3-0.7-0.5-1.1-0.5c-0.4,0-0.9,0.2-1.4,0.5
				c-1.9,1.4-4,2.5-6.2,3.3c-2.2,0.8-4.6,1.2-7.1,1.2c-3.4,0-6.2-0.7-8.5-2.1c-2.3-1.4-4.1-3.2-5.3-5.5c-1.3-2.3-2-5-2.3-8.1
				c-0.2-3.1,0-6.3,0.8-9.6c0.7-3.4,1.8-6.6,3.3-9.7c1.5-3.1,3.4-5.8,5.7-8.1c2.3-2.3,4.8-4.2,7.7-5.5c2.9-1.4,6-2.1,9.4-2.1
				c2.3,0,4.3,0.4,6,1.2c0.2,0.1,0.5,0.1,0.7,0.1c0.3,0,0.5-0.1,0.8-0.2c0.4-0.3,0.7-0.7,0.9-1.3l3.4-18.1c0.2-1.1,0.9-1.7,2-1.7
				H150.5 M118.4,64.7c1.9,0,3.5-0.5,4.8-1.5c1.3-1,2.5-2.3,3.4-4c0.9-1.7,1.7-3.7,2.4-5.9c0.6-2.3,1.2-4.7,1.8-7.3l0.5-2.3
				c0.4-2.3,0.7-4.4,1-6.4c0.2-2,0.2-3.8-0.1-5.2c-0.3-1.5-0.9-2.6-1.8-3.5c-0.9-0.8-2.2-1.3-4-1.3c-1.9,0-3.6,0.5-4.9,1.5
				c-1.3,1-2.4,2.3-3.4,4c-0.9,1.7-1.7,3.7-2.4,5.9c-0.6,2.2-1.2,4.7-1.8,7.3c-0.5,2.6-1,5.1-1.3,7.3c-0.3,2.2-0.4,4.2-0.2,5.9
				c0.2,1.7,0.8,3.1,1.7,4C115,64.2,116.4,64.7,118.4,64.7 M150.5,0.4h-8.9c-1.3,0-2,0.7-2.3,1.9l-3.4,18.1
				c-0.1,0.5-0.4,0.9-0.7,1.1c-0.2,0.1-0.4,0.2-0.7,0.2c-0.2,0-0.4,0-0.6-0.1c-1.8-0.8-3.8-1.2-6.1-1.2c-3.4,0-6.6,0.7-9.5,2.1
				c-2.9,1.4-5.5,3.3-7.8,5.6c-2.3,2.3-4.2,5.1-5.7,8.2c-1.5,3.1-2.7,6.4-3.3,9.7c-0.7,3.4-1,6.6-0.8,9.7c0.2,3.1,1,5.8,2.3,8.2
				c1.3,2.3,3.1,4.2,5.4,5.6c2.3,1.4,5.2,2.1,8.6,2.1c2.5,0,4.9-0.4,7.1-1.2c2.2-0.8,4.3-1.9,6.3-3.3c0.5-0.3,0.9-0.5,1.2-0.5
				c0.4,0,0.7,0.1,1,0.4c0.9,1.1,2.1,2,3.3,2.7c1.3,0.6,2.8,0.9,4.6,0.9c2.5,0,4.7-0.7,6.6-2c1.9-1.3,3.6-3.1,5.2-5.4
				c1.5-2.2,2.9-4.8,4.1-7.7c1.2-2.8,2.3-5.9,3.4-9.1c0.2-0.7,0.2-1.3-0.2-1.7c-0.3-0.4-0.8-0.6-1.3-0.6c-0.1,0-0.1,0-0.2,0
				c-0.4,0-0.9,0.1-1.4,0.3c-0.6,0.3-1,0.7-1.2,1.3c-1.9,5.7-3.8,10.1-5.6,13.2c-1.8,3-3.5,4.6-5.3,4.6c-2.2,0-3.3-1.4-3.3-4.4
				c0-3.1,0.6-7.5,1.8-13.1L152,2.4c0.1-0.7,0-1.2-0.3-1.5C151.5,0.5,151.1,0.4,150.5,0.4L150.5,0.4z M118.4,64.5
				c-1.9,0-3.2-0.5-4.1-1.4c-0.9-0.9-1.4-2.2-1.6-3.9c-0.2-1.7-0.1-3.7,0.2-5.9c0.3-2.3,0.8-4.7,1.3-7.3c0.5-2.6,1.1-5.1,1.8-7.3
				c0.6-2.2,1.4-4.2,2.3-5.9c0.9-1.7,2-3,3.3-3.9c1.3-0.9,2.9-1.4,4.7-1.4c1.7,0,3,0.4,3.9,1.2c0.8,0.8,1.4,1.9,1.7,3.3
				c0.3,1.4,0.3,3.2,0.1,5.2c-0.2,2-0.6,4.2-1,6.4l-0.5,2.3c-0.5,2.6-1.1,5.1-1.8,7.3c-0.6,2.2-1.4,4.2-2.3,5.9
				c-0.9,1.7-2,3-3.3,3.9C121.8,64,120.2,64.5,118.4,64.5L118.4,64.5z"/>
		</g>
		<path id="XMLID_1127_" class="st2" d="M50.9,46c0.7-3.4,1.8-6.6,3.3-9.7c1.5-3.1,3.4-5.8,5.7-8.1c2.3-2.3,4.8-4.2,7.7-5.5
			c2.9-1.4,6-2.1,9.4-2.1c3.1,0,5.7,0.6,7.9,1.8c2.2,1.2,3.9,2.8,5.2,4.9c1.3,2,2.1,4.4,2.5,7.1c0.4,2.7,0.4,5.6,0,8.7
			c-0.3,2.6-0.3,4.5,0.3,6c0.5,1.4,1.3,2.3,2.3,2.5c1,0.2,2.1-0.1,3.3-1.1c1.2-0.9,2.3-2.5,3.4-4.7c0.3-0.6,0.7-1,1.2-1.3
			c0.5-0.2,1-0.3,1.4-0.2c0.4,0.1,0.8,0.3,1,0.7s0.3,0.8,0.1,1.3c-2,4.9-4.5,8.2-7.4,9.8c-2.9,1.6-5.8,2.1-8.5,1.3
			c-0.5-0.1-1-0.1-1.4,0c-0.4,0.1-0.8,0.5-1.3,1.1c-2.4,3.8-5.4,6.8-8.8,9.2c-3.5,2.4-7.4,3.5-11.9,3.5c-3.4,0-6.2-0.7-8.5-2.1
			c-2.3-1.4-4.1-3.2-5.3-5.5c-1.3-2.3-2-5-2.3-8.1C49.9,52.5,50.2,49.3,50.9,46z M63.1,46c-0.5,2.6-1,5.1-1.3,7.3
			c-0.3,2.2-0.4,4.2-0.2,5.9c0.2,1.7,0.8,3.1,1.7,4c0.9,1,2.3,1.5,4.3,1.5c1.9,0,3.5-0.5,4.8-1.5c1.3-1,2.5-2.3,3.4-4
			c0.9-1.7,1.7-3.7,2.4-5.9c0.6-2.3,1.2-4.7,1.8-7.3c0.5-2.6,1-5.1,1.3-7.3c0.3-2.2,0.4-4.2,0.2-5.9c-0.2-1.7-0.8-3.1-1.7-4
			s-2.3-1.5-4.2-1.5c-1.9,0-3.6,0.5-4.9,1.5c-1.3,1-2.4,2.3-3.4,4c-0.9,1.7-1.7,3.7-2.4,5.9C64.2,40.9,63.6,43.4,63.1,46z"/>
	</g>
	<g id="XMLID_1106_">
		<path id="XMLID_1122_" class="st4" d="M276.9,51.6c0.4,1.3,0.6,2.9,0.7,4.8c0,1.9-0.2,3.5-0.6,4.9c-0.1,0.6-0.3,1.2-0.4,1.8
			c-0.1,0.6-0.3,1.1-0.6,1.7c-1.6,4-4.2,7.2-7.7,9.5c-0.9,0.5-1.9,1-2.9,1.5c-1,0.4-2,0.8-3.2,1.2c-0.4,0.1-0.8,0.2-1.3,0.3
			c-0.4,0-0.9,0.1-1.3,0.3c-0.4,0.1-0.8,0.2-1.2,0.1c-0.4,0-0.8,0-1.2,0.1c-0.3,0.1-0.7,0.2-1.2,0.2c-0.4,0-0.9-0.1-1.3-0.1h-29.7
			c-0.8,0-1.6,0-2.3-0.1c-0.7-0.1-1.2-0.3-1.6-0.8c-0.3-0.4-0.4-0.9-0.5-1.5c0-0.6-0.1-1.2-0.1-1.9V10.3c0-0.6,0-1.2,0-1.8
			c0-0.6,0.1-1.1,0.4-1.5c0.3-0.4,0.8-0.7,1.5-1c0.1-0.1,0.3-0.1,0.4-0.1c0.1,0,0.3,0,0.4,0H248h3.8c0.5,0.1,0.9,0.1,1.4,0
			c0.5-0.1,0.9,0,1.3,0.1h0.9c0.3,0.1,0.7,0.2,1.1,0.2c0.4,0,0.8,0,1.1,0.2h0.9c0.3,0.1,0.7,0.2,1.1,0.2c0.4,0,0.8,0.1,1.1,0.2
			c0.5,0.1,1.1,0.3,1.6,0.4c0.5,0.1,1,0.3,1.6,0.5c3.2,1.3,5.7,3.3,7.5,5.8c1.1,1.5,1.9,3.1,2.4,4.7c0.1,0.5,0.2,0.9,0.2,1.4
			c0,0.4,0.1,0.9,0.3,1.5c0.1,0.4,0.2,0.8,0.2,1.3c0,0.4,0,0.9,0,1.5v0.8c-0.1,0.6-0.2,1.2-0.3,1.8c0,0.6-0.1,1.2-0.2,1.7
			c-0.8,3.2-2.2,5.7-4.1,7.6c-0.5,0.5-1,1-1.5,1.4c-0.5,0.4-1,0.8-1.5,1.4c-0.1,0.1-0.3,0.3-0.5,0.5c-0.2,0.2-0.3,0.4-0.2,0.7
			c0.1,0.7,0.6,1.2,1.4,1.5c0.8,0.3,1.5,0.7,2,1c2,1.3,3.7,2.8,4.9,4.5c0.5,0.7,1,1.5,1.4,2.4C276.2,49.8,276.6,50.7,276.9,51.6z
			 M230.8,15.3c-0.3,0.6-0.4,1.4-0.4,2.3c0,0.9,0.1,1.8,0.1,2.6v10.3c0,0.9,0,1.9,0,3s0.2,1.8,0.6,2.4c0.2,0.3,0.5,0.6,0.9,0.7
			c0.4,0.1,0.8,0.2,1.3,0.4h1c0.3,0.1,0.7,0.1,1.1,0c0.4,0,0.8,0,1.1,0h9.3c0.5,0,0.9,0,1.4,0c0.5,0,0.9,0,1.2,0h2.8
			c0.3-0.1,0.5-0.2,0.8-0.1c0.3,0.1,0.6,0.1,0.9,0c0.7-0.2,1.5-0.3,2.2-0.4c0.7,0,1.4-0.2,2.1-0.5c1.5-0.5,2.8-1.1,3.9-1.8
			c1.1-0.7,2-1.7,2.8-2.9c0.7-1.1,1.1-2.7,1.3-4.5c0.1-0.5,0.1-1.1,0.1-1.8c0-0.7-0.1-1.3-0.2-1.8c-0.1-0.2-0.1-0.4-0.1-0.6
			c0-0.2,0-0.4-0.1-0.6c-0.3-0.7-0.5-1.4-0.8-2.1c-0.2-0.7-0.6-1.3-1-1.8c-0.7-1-1.7-1.8-2.9-2.4c-1.2-0.6-2.5-1-4-1.3
			c-1.5-0.3-3.1-0.4-4.8-0.5c-1.7-0.1-3.5-0.1-5.3-0.1h-12.7c-0.1,0.1-0.3,0.2-0.6,0.1c-0.2,0-0.4,0-0.6,0.1
			C231.6,14.2,231,14.6,230.8,15.3z M268,57.2c0.1-0.3,0.1-0.7,0.1-1.1s-0.1-0.7-0.1-1c-0.1-0.3-0.1-0.6-0.1-0.9s0-0.5-0.1-0.9
			c-0.4-1.3-0.9-2.5-1.6-3.4c-0.8-1.1-1.8-2-2.9-2.7c-1.1-0.7-2.4-1.3-4-1.8c-0.5-0.1-1.1-0.2-1.8-0.3c-0.6-0.1-1.3-0.2-2-0.3
			c-0.4-0.1-0.8-0.1-1.2-0.1c-0.4,0.1-0.8,0.1-1.2-0.1c-0.3-0.1-0.7-0.1-1.1-0.1s-0.7,0-1.1,0h-17.6c-0.1,0.1-0.3,0.2-0.6,0.1
			c-0.2,0-0.4,0-0.6,0.1c-0.8,0.2-1.3,0.6-1.6,1.3c-0.3,0.6-0.4,1.4-0.4,2.5c0,1.1,0.1,2.1,0.1,2.9V63c0,1,0,2.1,0,3.2
			c0,1.1,0.2,2,0.6,2.5c0.3,0.5,0.8,0.8,1.5,0.9c0.7,0.1,1.4,0.2,2.2,0.2h16.9c1.3,0,2.6,0,3.8,0c1.2,0,2.3-0.2,3.3-0.5
			c1.7-0.5,3.2-1.2,4.4-2.1c1.2-0.8,2.2-1.9,3-3.3c0.4-0.7,0.7-1.4,1-2.2c0.2-0.8,0.5-1.7,0.7-2.6c0.1-0.3,0.2-0.7,0.1-1
			C268,57.8,268,57.5,268,57.2z"/>
		<path id="XMLID_1119_" class="st4" d="M334.7,73.9c0.2,1.1,0.1,2-0.3,2.7c-0.4,0.7-0.9,1.2-1.6,1.6c-0.3,0.1-0.7,0.2-1.1,0.2
			s-0.8,0.1-1.2,0.2c-1.5,0.3-2.9,0.3-4.4-0.3c-1.4-0.5-2.4-1.1-3-1.9c-0.3-0.5-0.6-1-0.9-1.7c-0.3-0.6-0.6-1.2-1-1.6
			c-0.1-0.1-0.3-0.3-0.5-0.4c-0.2-0.1-0.4-0.2-0.7-0.1c-0.7,0.2-1.4,0.6-2.1,1.1c-0.6,0.5-1.3,1-1.9,1.4c-0.9,0.5-1.8,1-2.8,1.5
			c-1,0.4-2.1,0.8-3.2,1.2c-0.7,0.2-1.4,0.3-2.2,0.4c-0.8,0.1-1.5,0.2-2.3,0.3c-0.3,0.1-0.6,0.1-0.9,0.1c-0.2,0-0.5,0-0.8,0
			c-0.7,0.1-1.4,0.1-2.1,0h-0.9c-0.3-0.1-0.7-0.1-1-0.1c-0.3,0-0.6-0.1-0.9-0.2c-0.3-0.1-0.5-0.1-0.7-0.1c-0.2,0-0.4,0-0.6-0.1
			c-0.5-0.1-1.1-0.2-1.6-0.4c-0.5-0.1-1-0.3-1.5-0.5c-2-0.9-3.6-1.9-4.9-3c-1.2-1.1-2.3-2.7-3.1-4.7c-0.6-1.5-0.9-3.3-0.9-5.3v-2.1
			c0.1-0.3,0.1-0.7,0.2-1.1c0-0.4,0.1-0.8,0.2-1.2c0.3-0.7,0.5-1.5,0.8-2.2c0.3-0.7,0.6-1.4,1-2c1.2-1.9,2.9-3.4,4.9-4.3
			c2.1-0.9,4.4-1.8,6.8-2.5c0.9-0.3,1.9-0.5,2.9-0.6c1-0.1,2-0.3,3-0.5c0.5-0.1,0.9-0.2,1.4-0.2c0.4,0,0.9-0.1,1.5-0.2
			c0.5-0.1,0.9-0.2,1.4-0.3c0.5,0,1-0.1,1.5-0.2c1.7-0.4,3.3-0.8,4.7-1.1c1.5-0.3,2.6-1.1,3.5-2.3c0.4-0.5,0.7-1.2,1-2.1
			c0.3-0.8,0.3-1.8,0-2.8c-0.4-1.6-1-2.9-1.8-3.8c-0.8-0.9-1.9-1.7-3.3-2.2c-0.8-0.3-1.8-0.6-2.9-0.7c-1.1-0.1-2.3-0.2-3.5-0.2
			c-1.2,0-2.4,0.1-3.5,0.2c-1.1,0.1-2.1,0.3-2.9,0.6c-1.1,0.4-2.2,1-3.3,1.7c-0.5,0.4-1,0.9-1.5,1.6c-0.4,0.6-0.8,1.3-1.2,2.1
			c-0.2,0.5-0.4,1.1-0.6,1.7c-0.2,0.6-0.5,1.1-1,1.4c-0.3,0.2-0.7,0.4-1.4,0.5c-0.6,0.1-1.3,0.1-2,0.1c-0.7,0-1.3,0-2-0.1
			c-0.6-0.1-1.1-0.3-1.4-0.5c-0.3-0.2-0.5-0.5-0.6-1s-0.1-1,0-1.5c0.2-0.9,0.4-1.7,0.7-2.5c0.2-0.8,0.5-1.5,0.9-2.3
			c1.3-2.3,2.9-4.2,4.8-5.5c1.9-1.3,4.4-2.4,7.2-3.2c0.7-0.1,1.4-0.2,2.1-0.3c0.7-0.1,1.4-0.2,2.2-0.3c0.3-0.1,0.7-0.1,1.3-0.1
			c0.6,0,1,0,1.1-0.2c4.7-0.1,8.8,0.5,12.3,1.6c3.5,1.1,5.9,3.3,7.4,6.5c0.6,1.3,1,2.9,1.1,4.7c0.1,1.8,0.1,3.6,0.1,5.6v22.3
			c0,0.9,0,1.8,0.1,2.7c0.1,0.9,0.3,1.6,0.6,2.1c0.3,0.5,0.8,0.8,1.3,1c0.6,0.3,1.2,0.5,1.7,0.6c0.5,0.1,0.9,0.4,1.2,1
			c0.1,0.2,0.2,0.4,0.2,0.6S334.6,73.5,334.7,73.9z M320.3,62.7c0.4-0.9,0.6-2,0.7-3.3c0-1.2,0.1-2.5,0.1-3.9c0-0.7,0-1.4-0.1-2
			c-0.1-0.6-0.3-1.1-0.8-1.4c-0.2-0.1-0.7-0.2-1.4-0.2c-0.1,0.1-0.4,0.2-0.7,0.2c-0.3,0-0.6,0.1-0.9,0.2c-0.5,0.1-1.1,0.3-1.8,0.4
			c-0.7,0.1-1.3,0.3-2,0.4c-0.2,0-0.4,0-0.7,0.1c-0.2,0-0.5,0.1-0.8,0.1c-1,0.3-2.1,0.4-3.3,0.5c-1.2,0-2.3,0.2-3.3,0.5
			c-0.5,0.1-1,0.2-1.5,0.4c-0.4,0.1-0.9,0.2-1.5,0.4c-1.1,0.3-2.1,0.8-3,1.3c-0.9,0.5-1.7,1.1-2.4,1.9c-0.7,0.7-1.2,1.6-1.5,2.7
			c-0.3,1-0.5,2.3-0.4,3.8c0,0.7,0.1,1.3,0.4,1.9c0.2,0.6,0.5,1.1,0.9,1.6c0.5,0.7,1.2,1.4,2.1,1.9c0.9,0.5,1.8,0.9,2.8,1.3
			c0.3,0.1,0.7,0.1,1,0.1c0.3,0,0.7,0,1,0.1c0.5,0.1,1.1,0.2,1.8,0.2c0.7,0,1.3,0,1.8-0.1c0.4-0.1,0.8-0.2,1.2-0.2
			c0.4,0,0.8,0,1.2-0.2c0.5-0.1,1.1-0.2,1.6-0.3c0.5-0.1,1-0.2,1.5-0.4c1.9-0.8,3.6-1.8,5-2.9C318.5,66.2,319.6,64.6,320.3,62.7z"/>
		<path id="XMLID_1117_" class="st4" d="M346.4,5.9c0.9,0,1.8,0,2.8,0c1,0,1.7,0.2,2.2,0.7c0.3,0.5,0.5,1.1,0.6,1.9
			c0,0.8,0.1,1.6,0.1,2.4v9v40.8v11.3c0,0.8,0,1.7,0,2.6c0,0.9-0.2,1.7-0.5,2.2c-0.2,0.3-0.5,0.5-0.9,0.6c-0.4,0.1-0.8,0.2-1.4,0.3
			h-1.4c-0.7,0-1.4,0-2.1-0.1c-0.7,0-1.2-0.2-1.5-0.7c-0.3-0.5-0.5-1.2-0.6-2c0-0.8,0-1.6,0-2.5v-9.3V21.2v-9.9c0-0.7,0-1.5-0.1-2.4
			c0-0.8,0.1-1.5,0.5-2c0.3-0.4,0.8-0.7,1.5-1c0.1-0.1,0.3-0.1,0.5-0.1C346.1,6,346.2,6,346.4,5.9z"/>
		<path id="XMLID_1114_" class="st4" d="M411.1,73.9c0.2,1.1,0.1,2-0.3,2.7c-0.4,0.7-0.9,1.2-1.6,1.6c-0.3,0.1-0.7,0.2-1.1,0.2
			s-0.8,0.1-1.2,0.2c-1.5,0.3-2.9,0.3-4.4-0.3c-1.4-0.5-2.4-1.1-3-1.9c-0.3-0.5-0.6-1-0.9-1.7c-0.3-0.6-0.6-1.2-1-1.6
			c-0.1-0.1-0.3-0.3-0.5-0.4c-0.2-0.1-0.4-0.2-0.7-0.1c-0.7,0.2-1.4,0.6-2.1,1.1c-0.6,0.5-1.3,1-1.9,1.4c-0.9,0.5-1.8,1-2.8,1.5
			c-1,0.4-2.1,0.8-3.2,1.2c-0.7,0.2-1.4,0.3-2.2,0.4c-0.8,0.1-1.5,0.2-2.3,0.3c-0.3,0.1-0.6,0.1-0.9,0.1c-0.2,0-0.5,0-0.8,0
			c-0.7,0.1-1.4,0.1-2.1,0h-0.9c-0.3-0.1-0.7-0.1-1-0.1c-0.3,0-0.6-0.1-0.9-0.2c-0.3-0.1-0.5-0.1-0.7-0.1c-0.2,0-0.4,0-0.6-0.1
			c-0.5-0.1-1.1-0.2-1.6-0.4c-0.5-0.1-1-0.3-1.5-0.5c-2-0.9-3.6-1.9-4.9-3c-1.2-1.1-2.3-2.7-3.1-4.7c-0.6-1.5-0.9-3.3-0.9-5.3v-2.1
			c0.1-0.3,0.1-0.7,0.2-1.1c0-0.4,0.1-0.8,0.2-1.2c0.3-0.7,0.5-1.5,0.8-2.2c0.3-0.7,0.6-1.4,1-2c1.2-1.9,2.9-3.4,4.9-4.3
			c2.1-0.9,4.4-1.8,6.8-2.5c0.9-0.3,1.9-0.5,2.9-0.6c1-0.1,2-0.3,3-0.5c0.5-0.1,0.9-0.2,1.4-0.2c0.4,0,0.9-0.1,1.5-0.2
			c0.5-0.1,0.9-0.2,1.4-0.3c0.5,0,1-0.1,1.5-0.2c1.7-0.4,3.3-0.8,4.7-1.1c1.5-0.3,2.6-1.1,3.5-2.3c0.4-0.5,0.7-1.2,1-2.1
			c0.3-0.8,0.3-1.8,0-2.8c-0.4-1.6-1-2.9-1.8-3.8c-0.8-0.9-1.9-1.7-3.3-2.2c-0.8-0.3-1.8-0.6-2.9-0.7c-1.1-0.1-2.3-0.2-3.5-0.2
			c-1.2,0-2.4,0.1-3.5,0.2c-1.1,0.1-2.1,0.3-2.9,0.6c-1.1,0.4-2.2,1-3.3,1.7c-0.5,0.4-1,0.9-1.5,1.6c-0.4,0.6-0.8,1.3-1.2,2.1
			c-0.2,0.5-0.4,1.1-0.6,1.7c-0.2,0.6-0.5,1.1-1,1.4c-0.3,0.2-0.7,0.4-1.4,0.5c-0.6,0.1-1.3,0.1-2,0.1c-0.7,0-1.3,0-2-0.1
			c-0.6-0.1-1.1-0.3-1.4-0.5c-0.3-0.2-0.5-0.5-0.6-1s-0.1-1,0-1.5c0.2-0.9,0.4-1.7,0.7-2.5c0.2-0.8,0.5-1.5,0.9-2.3
			c1.3-2.3,2.9-4.2,4.8-5.5c1.9-1.3,4.4-2.4,7.2-3.2c0.7-0.1,1.4-0.2,2.1-0.3c0.7-0.1,1.4-0.2,2.2-0.3c0.3-0.1,0.7-0.1,1.3-0.1
			c0.6,0,1,0,1.1-0.2c4.7-0.1,8.8,0.5,12.3,1.6c3.5,1.1,5.9,3.3,7.4,6.5c0.6,1.3,1,2.9,1.1,4.7c0.1,1.8,0.1,3.6,0.1,5.6v22.3
			c0,0.9,0,1.8,0.1,2.7c0.1,0.9,0.3,1.6,0.6,2.1c0.3,0.5,0.8,0.8,1.3,1c0.6,0.3,1.2,0.5,1.7,0.6c0.5,0.1,0.9,0.4,1.2,1
			c0.1,0.2,0.2,0.4,0.2,0.6S411.1,73.5,411.1,73.9z M396.7,62.7c0.4-0.9,0.6-2,0.7-3.3c0-1.2,0.1-2.5,0.1-3.9c0-0.7,0-1.4-0.1-2
			c-0.1-0.6-0.3-1.1-0.8-1.4c-0.2-0.1-0.7-0.2-1.4-0.2c-0.1,0.1-0.4,0.2-0.7,0.2c-0.3,0-0.6,0.1-0.9,0.2c-0.5,0.1-1.1,0.3-1.8,0.4
			c-0.7,0.1-1.3,0.3-2,0.4c-0.2,0-0.4,0-0.7,0.1c-0.2,0-0.5,0.1-0.8,0.1c-1,0.3-2.1,0.4-3.3,0.5c-1.2,0-2.3,0.2-3.3,0.5
			c-0.5,0.1-1,0.2-1.5,0.4c-0.4,0.1-0.9,0.2-1.5,0.4c-1.1,0.3-2.1,0.8-3,1.3c-0.9,0.5-1.7,1.1-2.4,1.9c-0.7,0.7-1.2,1.6-1.5,2.7
			c-0.3,1-0.5,2.3-0.4,3.8c0,0.7,0.1,1.3,0.4,1.9c0.2,0.6,0.5,1.1,0.9,1.6c0.5,0.7,1.2,1.4,2.1,1.9c0.9,0.5,1.8,0.9,2.8,1.3
			c0.3,0.1,0.7,0.1,1,0.1c0.3,0,0.7,0,1,0.1c0.5,0.1,1.1,0.2,1.8,0.2c0.7,0,1.3,0,1.8-0.1c0.4-0.1,0.8-0.2,1.2-0.2
			c0.4,0,0.8,0,1.2-0.2c0.5-0.1,1.1-0.2,1.6-0.3c0.5-0.1,1-0.2,1.5-0.4c1.9-0.8,3.6-1.8,5-2.9C394.9,66.2,396,64.6,396.7,62.7z"/>
		<path id="XMLID_1112_" class="st4" d="M443.7,24.7c4.2-0.1,7.6,0.4,10.2,1.7c2.6,1.3,4.6,3.2,6.1,5.7c0.4,0.7,0.7,1.4,1,2.2
			c0.2,0.8,0.5,1.6,0.7,2.4c0.3,1.3,0.5,2.7,0.6,4.1c0.1,1.5,0.1,3,0.1,4.5v10.8v15.7c0,1.1,0,2.3-0.1,3.4c0,1.1-0.5,1.9-1.4,2.2
			c-0.3,0.1-0.7,0.2-1.1,0.3c-0.4,0-0.8,0.1-1.2,0.1c-0.9,0-1.7,0-2.5-0.1c-0.8,0-1.4-0.3-1.7-0.9c-0.3-0.5-0.5-1.1-0.5-1.8
			c0-0.7,0-1.5,0-2.2v-8.7V47.8c0-1.8,0-3.6-0.1-5.4c-0.1-1.8-0.4-3.3-0.9-4.6c-0.5-1.3-1.3-2.4-2.4-3.3c-1.1-0.8-2.3-1.5-3.7-2
			c-0.4-0.1-0.8-0.2-1.3-0.3c-0.4,0-0.9-0.1-1.3-0.3c-0.3-0.1-0.9-0.1-1.6-0.1c-0.7,0-1.2,0.1-1.5,0.2c-0.3,0.1-0.5,0.2-0.7,0.1
			c-0.2,0-0.4,0-0.7,0.1c-0.9,0.2-1.7,0.4-2.5,0.7c-0.8,0.2-1.5,0.6-2.2,1c-0.3,0.1-0.5,0.3-0.7,0.4c-0.2,0.1-0.4,0.3-0.7,0.4
			c-2.3,1.7-4.1,4.2-5.1,7.6c-0.2,0.5-0.3,1.1-0.4,1.7c-0.1,0.6-0.2,1.1-0.3,1.7c-0.1,0.3-0.2,0.7-0.1,1c0.1,0.3,0,0.6-0.1,0.9v2.1
			c-0.1,0.2-0.1,0.4-0.1,0.7c0,0.3,0.1,0.6,0.1,0.9v3v9.7v8.9c0,0.7,0,1.5,0,2.3c0,0.8-0.2,1.4-0.5,1.9c-0.3,0.5-0.9,0.8-1.8,0.9
			c-0.8,0-1.7,0.1-2.6,0.1c-0.5,0-1,0-1.5-0.1c-0.5-0.1-0.9-0.2-1.2-0.5c-0.5-0.3-0.8-1-0.8-1.9c0-0.9,0-1.8,0-2.7V60.7V36.3v-6.1
			c0-0.6,0-1.2,0-1.8c0-0.6,0.1-1.1,0.4-1.4c0.2-0.4,0.5-0.7,1-0.8c0.3-0.1,0.7-0.1,1.2-0.2c0.5-0.1,1-0.1,1.6-0.1
			c0.5,0,1.1,0,1.6,0.1c0.5,0.1,0.9,0.2,1.1,0.3c0.7,0.5,1.1,1.1,1,1.8c-0.1,0.7,0,1.5,0.3,2.4c0.1,0.4,0.4,0.7,0.8,1
			c0.8,0.1,1.5-0.2,2-0.9c0.5-0.7,1-1.2,1.6-1.6c0.9-0.7,1.9-1.3,2.9-1.9c1-0.6,2.1-1.1,3.4-1.5c0.5-0.2,1.1-0.3,1.8-0.4
			c0.6-0.1,1.3-0.2,1.9-0.3c0.3-0.1,0.7-0.1,1-0.1S443.4,24.7,443.7,24.7z"/>
		<path id="XMLID_1110_" class="st4" d="M496,24.5c5-0.1,9.1,0.7,12.4,2.2c3.3,1.5,6,3.8,7.9,6.8c0.9,1.3,1.6,3,2.2,4.9
			c0.1,0.3,0.2,0.8,0.3,1.3c0.1,0.5,0,1-0.1,1.4c-0.2,0.3-0.5,0.6-1,0.9c-0.2,0.1-0.4,0.2-0.6,0.1c-0.2,0-0.4,0-0.7,0.1
			c-0.3,0.1-0.5,0.1-0.8,0.1c-0.3,0-0.5-0.1-0.8-0.1c-0.7,0-1.4,0-2.1-0.1c-0.7,0-1.2-0.2-1.7-0.6c-0.5-0.4-0.9-1-1.1-1.7
			c-0.2-0.7-0.5-1.4-0.8-1.9c-1-1.7-2.3-3.1-3.9-4.1c-0.5-0.3-1.1-0.6-1.7-0.9c-0.6-0.2-1.2-0.5-1.9-0.7c-0.9-0.3-2.2-0.4-3.7-0.5
			c-1.5,0-2.8,0.1-3.8,0.5c-0.5,0.1-0.9,0.2-1.3,0.3c-0.4,0.1-0.8,0.2-1.3,0.3c-1.7,0.7-3.3,1.7-4.6,3c-1.3,1.3-2.4,2.8-3.1,4.5
			c-0.3,0.6-0.5,1.2-0.7,1.9c-0.2,0.6-0.4,1.3-0.6,2.1l-0.6,2.7c-0.1,0.3-0.1,0.7-0.1,1.1c0,0.4,0,0.8-0.2,1.1v0.8
			c-0.1,0.3-0.1,0.7-0.2,1.3c0,0.6,0,1,0.2,1.3c0.1,0.3,0.1,0.7,0,1c-0.1,0.3-0.1,0.7,0,1c0.1,0.3,0.1,0.7,0.1,1.4
			c0.1,0.5,0.3,1.1,0.4,1.7c0.1,0.6,0.2,1.2,0.4,1.7c0.7,2.2,1.6,4,2.6,5.6c1,1.6,2.3,2.9,4.1,4.1c0.6,0.3,1.2,0.6,1.9,0.9
			c0.6,0.3,1.3,0.5,2.1,0.8c0.3,0.1,0.6,0.1,0.8,0.1s0.5,0,0.8,0.1c0.2,0.1,0.5,0.1,1,0.1h1.1c0,0.1,0.1,0.1,0.4,0.1
			c0.1-0.1,0.3-0.1,0.5-0.1c0.2,0,0.4,0,0.6-0.1c0.5-0.1,0.9-0.2,1.4-0.1c0.4,0,0.9,0,1.4-0.2c1.7-0.5,3.3-1.2,4.5-2.1
			c1.3-0.8,2.4-1.9,3.2-3.3c0.3-0.5,0.6-1.1,0.9-1.7c0.3-0.6,0.5-1.2,0.8-1.8c0.1-0.5,0.3-1.1,0.5-1.6c0.2-0.5,0.5-0.9,1-1.3
			c0.2-0.2,0.6-0.4,1.2-0.5c0.6-0.1,1.3-0.2,2-0.2c0.7,0,1.4,0,2,0.1c0.6,0.1,1.1,0.2,1.4,0.4c0.4,0.3,0.7,0.7,0.8,1.2
			c0.1,0.5,0.1,1.1-0.1,1.7c-0.3,1-0.7,2-1,2.9c-0.3,0.9-0.7,1.8-1.2,2.7c-1,2-2.3,3.8-3.8,5.3c-1.5,1.5-3.3,2.8-5.5,3.7
			c-0.5,0.3-1.1,0.5-1.7,0.7c-0.6,0.2-1.2,0.4-1.9,0.6c-0.7,0.3-1.5,0.4-2.2,0.5c-0.7,0-1.5,0.1-2.2,0.3c-0.3,0.1-0.5,0.2-0.8,0.1
			c-0.3-0.1-0.5-0.1-0.8,0H497c-0.5,0-1.1,0-1.6,0.1c-0.5,0-1,0-1.4-0.2h-0.5l-2.4-0.3c-0.9-0.3-1.7-0.5-2.5-0.7
			c-0.8-0.2-1.6-0.5-2.3-0.8c-2.4-1.1-4.4-2.3-6-3.8c-1.6-1.5-3-3.3-4.4-5.4c-0.3-0.5-0.6-1.1-0.9-1.8c-0.3-0.7-0.5-1.3-0.8-2
			c-0.3-0.7-0.6-1.5-0.7-2.3c-0.1-0.8-0.3-1.6-0.5-2.4c-0.1-0.3-0.1-0.5-0.1-0.8s0-0.5-0.1-0.8c-0.1-0.4-0.2-0.8-0.2-1.3
			c0-0.5,0-0.9-0.2-1.3v-1c-0.1-0.3-0.1-0.8-0.1-1.4c0-0.6,0-1.1,0.1-1.4c0.1-0.3,0.1-0.6,0.1-0.9c0-0.3,0-0.5,0.1-0.8
			c0.1-0.5,0.2-0.9,0.2-1.4c0-0.5,0-0.9,0.2-1.3c0.3-1.1,0.5-2.3,0.7-3.4c0.2-1.1,0.5-2.2,0.9-3.2c1.4-3.5,3.1-6.3,5.1-8.5
			c2-2.1,4.8-3.9,8.3-5.3c0.7-0.3,1.5-0.6,2.4-0.7c0.9-0.1,1.8-0.3,2.7-0.5c0.5-0.1,0.9-0.1,1.4-0.1C495,24.6,495.5,24.6,496,24.5z"
			/>
		<path id="XMLID_1107_" class="st4" d="M574.4,49.6c0.1,0.7,0.1,1.4,0.1,2.3c-0.1,0.8-0.3,1.4-0.7,1.8c-0.3,0.3-0.8,0.5-1.5,0.6
			c-0.6,0.1-1.4,0.2-2.2,0.2s-1.6,0-2.4-0.1c-0.8,0-1.5-0.1-2.1-0.1h-25.8c-0.5,0-1.1,0-1.6,0.1c-0.5,0-1,0.2-1.3,0.4
			c-0.3,0.1-0.5,0.4-0.8,0.8c-0.1,0.2-0.3,0.5-0.4,0.9c-0.1,0.4-0.1,0.7,0,1.1c0.1,0.3,0.1,0.6,0.1,0.9c0,0.3,0,0.5,0.1,0.8
			c0.1,0.5,0.3,1.1,0.4,1.7s0.3,1.1,0.6,1.7c1.5,3.6,4.1,6.2,7.7,7.8c0.4,0.2,0.8,0.4,1.3,0.5c0.5,0.1,0.9,0.3,1.4,0.4
			c0.2,0.1,0.5,0.1,1,0.1c0.9,0.3,2.2,0.4,3.7,0.4c1.5,0,2.8-0.1,3.7-0.4c0.9-0.3,1.8-0.6,2.6-0.9c0.8-0.3,1.5-0.7,2.2-1.2
			c0.7-0.5,1.4-1,1.9-1.7c0.5-0.6,1-1.3,1.4-2.1c0.4-0.7,0.8-1.4,1.1-2.1c0.3-0.7,0.8-1.3,1.6-1.6c0.3-0.1,0.7-0.2,1.3-0.3
			c0.6-0.1,1.2-0.1,1.8-0.1c0.6,0,1.2,0.1,1.7,0.2c0.5,0.1,0.9,0.2,1.1,0.4c0.7,0.5,0.8,1.2,0.5,2.3c-0.5,1.8-1.2,3.4-2.1,4.8
			c-1.3,2.2-2.9,3.9-4.6,5.3c-1.7,1.4-3.9,2.5-6.5,3.4c-0.7,0.3-1.3,0.5-2,0.6c-0.7,0.1-1.4,0.2-2.1,0.4c-0.3,0.1-0.7,0.1-1,0.1
			s-0.6,0-1,0.1h-1c-0.3,0.1-0.7,0.1-1.2,0.1s-0.8,0-1.1-0.1h-0.9c-0.3-0.1-0.6-0.1-0.9-0.1c-0.3,0-0.5,0-0.8-0.1
			c-0.3-0.1-0.7-0.1-1.1-0.2c-0.4,0-0.8-0.1-1.1-0.2c-0.6-0.1-1.2-0.3-1.8-0.5c-0.6-0.2-1.2-0.4-1.7-0.6c-0.3-0.1-0.5-0.2-0.7-0.3
			c-0.2,0-0.4-0.1-0.7-0.3c-1-0.5-2.1-1-3.2-1.7c-1.9-1.3-3.6-2.8-5-4.7c-1.4-1.8-2.5-3.9-3.5-6.2c-0.3-0.7-0.6-1.5-0.8-2.3
			c-0.2-0.8-0.4-1.6-0.7-2.4c-0.1-0.3-0.1-0.5-0.1-0.7s0-0.5-0.1-0.8c-0.1-0.5-0.2-1.1-0.3-1.7c-0.1-0.6-0.2-1.2-0.3-1.8V53
			c-0.1-0.3-0.1-0.7-0.2-1.2c0-0.5,0-0.9,0.1-1.3v-1.1c0.1-0.3,0.2-0.7,0.2-1.1c0-0.4,0-0.7,0.1-1.1c0.3-1.1,0.5-2.1,0.7-3.2
			c0.2-1.1,0.5-2.1,0.9-3c0.3-0.7,0.7-1.5,1-2.3c0.3-0.8,0.7-1.5,1.1-2.3c1.5-2.3,3.2-4.4,5-6.1c1.9-1.7,4.2-3.1,6.9-4.3
			c0.8-0.3,1.6-0.6,2.5-0.8c0.8-0.2,1.7-0.4,2.7-0.6c0.3-0.1,0.6-0.1,0.9-0.2c0.3,0,0.6,0,0.9,0c0.1-0.1,0.3-0.1,0.5,0
			c0.2,0.1,0.4,0,0.5-0.1c2.8-0.1,5.3,0.2,7.4,0.9c2.1,0.6,4,1.5,5.6,2.6c0.3,0.1,0.6,0.3,0.8,0.6c0.2,0.2,0.4,0.4,0.7,0.6
			c0.5,0.4,1.1,0.9,1.7,1.4c0.6,0.5,1.1,1.1,1.5,1.6c1.1,1.4,2,2.8,2.7,4c0.5,0.7,0.8,1.5,1.1,2.4c0.3,0.9,0.6,1.7,0.9,2.6
			c0.3,0.9,0.6,1.8,0.8,2.7c0.2,0.9,0.4,1.9,0.7,2.8c0.1,0.5,0.1,0.9,0.2,1.4C574.2,48.7,574.3,49.1,574.4,49.6z M564.6,46.2
			c0.2-0.3,0.4-0.6,0.5-1.1c0.1-0.4,0.1-0.9,0-1.4c-0.4-1.5-1-2.9-1.7-4.1c-0.9-1.5-2-2.9-3.1-3.9c-1.1-1.1-2.6-2-4.4-2.7
			c-0.5-0.1-0.9-0.3-1.4-0.4c-0.5-0.1-1-0.2-1.5-0.4c-0.5-0.1-1.1-0.2-1.7-0.2c-0.6,0-1.2,0-1.7,0c-0.2,0.1-0.4,0.2-0.7,0.2
			c-0.3,0-0.5,0-0.7,0.1c-0.5,0.1-1.1,0.3-1.6,0.4c-0.5,0.1-1,0.2-1.5,0.4c-1.9,0.8-3.5,1.8-4.7,3c-1.2,1.2-2.2,2.7-3.2,4.5
			c-0.2,0.3-0.4,0.8-0.6,1.3c-0.2,0.5-0.4,1.1-0.5,1.7c-0.1,0.6-0.2,1.2-0.1,1.7c0.1,0.5,0.3,0.9,0.7,1.2c0.5,0.4,1.5,0.6,2.8,0.6
			c1.3,0,2.4-0.1,3.4-0.1h15.3c1,0,2.2,0,3.6,0.1C563.2,47,564.1,46.7,564.6,46.2z"/>
	</g>
	<g id="XMLID_943_">
		<path id="XMLID_1104_" class="st5" d="M212,103.7c0.1,0.2,0.2,0.4,0.3,0.6c0.1,0.2,0.1,0.4,0.2,0.6c-0.5,0.2-1,0.4-1.7,0.5
			c-0.6,0.1-1.3,0.2-2,0.2c-1,0-1.9-0.2-2.7-0.5c-0.8-0.3-1.5-0.8-2.1-1.4c-0.6-0.6-1-1.4-1.4-2.3s-0.5-2-0.5-3.2
			c0-1.2,0.2-2.3,0.5-3.3c0.3-1,0.8-1.8,1.4-2.4c0.6-0.7,1.3-1.2,2.1-1.5c0.8-0.3,1.8-0.5,2.8-0.5c0.9,0,1.6,0.1,2.2,0.2
			c0.6,0.1,1,0.2,1.3,0.3c0,0.2-0.1,0.5-0.1,0.6c0,0.2-0.1,0.4-0.2,0.6c-0.2-0.1-0.4-0.1-0.5-0.2s-0.4-0.1-0.6-0.1
			c-0.2,0-0.5-0.1-0.8-0.1c-0.3,0-0.7,0-1.1,0c-0.8,0-1.5,0.1-2.2,0.4c-0.6,0.3-1.2,0.7-1.6,1.3c-0.5,0.6-0.8,1.2-1,2
			s-0.4,1.7-0.4,2.7c0,1.1,0.1,2,0.4,2.7c0.3,0.8,0.7,1.4,1.1,1.9c0.5,0.5,1.1,0.9,1.7,1.1c0.6,0.2,1.4,0.4,2.1,0.4
			c0.6,0,1.2-0.1,1.8-0.2C211.2,104.1,211.6,103.9,212,103.7z"/>
		<path id="XMLID_1101_" class="st5" d="M215.6,100.4c0,1.4,0.3,2.4,1,3.1s1.6,1,2.9,1c0.5,0,1,0,1.4-0.1c0.4-0.1,0.9-0.2,1.3-0.4
			c0.1,0.2,0.1,0.3,0.2,0.6c0,0.2,0.1,0.4,0.1,0.6c-0.4,0.2-0.9,0.3-1.4,0.4s-1.1,0.1-1.7,0.1c-0.9,0-1.7-0.1-2.3-0.4
			c-0.7-0.3-1.2-0.6-1.6-1.1c-0.4-0.5-0.7-1.1-0.9-1.7c-0.2-0.7-0.3-1.4-0.3-2.2c0-0.8,0.1-1.5,0.3-2.2c0.2-0.7,0.5-1.3,0.8-1.8
			c0.4-0.5,0.9-0.9,1.4-1.2c0.6-0.3,1.3-0.4,2.1-0.4c0.7,0,1.3,0.1,1.8,0.3c0.5,0.2,1,0.6,1.3,1c0.4,0.4,0.6,0.9,0.8,1.5
			c0.2,0.6,0.3,1.2,0.3,1.9c0,0.1,0,0.3,0,0.5c0,0.2,0,0.4,0,0.5H215.6z M221.8,99.3c0-0.4-0.1-0.8-0.2-1.2
			c-0.1-0.4-0.3-0.8-0.5-1.1c-0.2-0.3-0.5-0.6-0.9-0.7s-0.8-0.3-1.3-0.3c-1,0-1.7,0.3-2.2,0.9c-0.5,0.6-0.9,1.4-1,2.5H221.8z"/>
		<path id="XMLID_1099_" class="st5" d="M226.1,95c0.1,0,0.2,0,0.3,0c0.1,0,0.2,0,0.3,0c0.1,0,0.2,0,0.3,0c0.1,0,0.2,0,0.3,0
			c0,0.2,0,0.6,0.1,0.9c0,0.4,0,0.7,0,1c0.1-0.2,0.3-0.5,0.5-0.7c0.2-0.3,0.5-0.5,0.8-0.7c0.3-0.2,0.6-0.4,1-0.5
			c0.4-0.1,0.8-0.2,1.3-0.2c1.2,0,2.1,0.4,2.6,1.1c0.5,0.7,0.8,1.7,0.8,3v6.6c-0.1,0-0.2,0-0.3,0c-0.1,0-0.3,0-0.3,0
			c-0.1,0-0.2,0-0.3,0c-0.2,0-0.3,0-0.3,0v-6.2c0-1.2-0.2-2-0.5-2.5c-0.4-0.5-0.9-0.8-1.6-0.8c-0.5,0-0.9,0.1-1.4,0.3
			c-0.4,0.2-0.8,0.5-1.1,0.8c-0.3,0.4-0.6,0.8-0.7,1.3c-0.2,0.5-0.3,1.1-0.3,1.8v5.2c-0.1,0-0.2,0-0.3,0c-0.1,0-0.3,0-0.3,0
			c-0.1,0-0.2,0-0.3,0c-0.1,0-0.3,0-0.3,0V95z"/>
		<path id="XMLID_1097_" class="st5" d="M238.3,96.1h-1.8c0-0.1,0-0.2,0-0.3c0-0.1,0-0.2,0-0.3c0-0.1,0-0.2,0-0.3c0-0.1,0-0.2,0-0.2
			h1.8v-2l1.3-1.2h0.1V95h2.8c0,0.1,0,0.2,0,0.2c0,0.1,0,0.2,0,0.3c0,0.1,0,0.2,0,0.3c0,0.1,0,0.2,0,0.3h-2.8v6.8
			c0,0.3,0,0.6,0.1,0.8c0.1,0.2,0.2,0.4,0.3,0.5c0.1,0.1,0.3,0.2,0.5,0.2c0.2,0,0.4,0.1,0.6,0.1c0.5,0,0.9-0.1,1.2-0.2
			c0.1,0.4,0.2,0.7,0.2,1.2c-0.5,0.1-1.1,0.2-1.7,0.2c-0.8,0-1.4-0.2-1.9-0.6c-0.5-0.4-0.7-1.1-0.7-2V96.1z"/>
		<path id="XMLID_1095_" class="st5" d="M244.8,95c0.1,0,0.2,0,0.3,0c0.1,0,0.2,0,0.3,0c0.1,0,0.2,0,0.3,0c0.1,0,0.2,0,0.3,0
			c0,0.2,0,0.5,0.1,0.9c0,0.3,0,0.6,0,0.9c0.3-0.5,0.7-0.9,1.1-1.3c0.5-0.3,1.1-0.5,1.9-0.5c0.1,0,0.1,0,0.2,0c0.1,0,0.2,0,0.3,0
			c0,0.2,0.1,0.5,0.1,0.7c0,0.2,0,0.4-0.1,0.6c-0.1,0-0.2,0-0.3,0c-0.1,0-0.1,0-0.2,0c-0.9,0-1.7,0.3-2.2,0.9
			c-0.6,0.6-0.8,1.6-0.8,2.9v5.4c-0.1,0-0.2,0-0.3,0c-0.1,0-0.3,0-0.3,0c-0.1,0-0.2,0-0.3,0c-0.1,0-0.3,0-0.3,0V95z"/>
		<path id="XMLID_1092_" class="st5" d="M255.7,105.7c-0.8,0-1.5-0.1-2-0.4c-0.6-0.3-1.1-0.7-1.5-1.2c-0.4-0.5-0.7-1.1-0.9-1.7
			c-0.2-0.7-0.3-1.4-0.3-2.2c0-0.8,0.1-1.5,0.3-2.2c0.2-0.7,0.5-1.2,0.9-1.7c0.4-0.5,0.9-0.9,1.5-1.2c0.6-0.3,1.3-0.4,2-0.4
			c0.8,0,1.5,0.1,2,0.4c0.6,0.3,1.1,0.7,1.5,1.2c0.4,0.5,0.7,1.1,0.9,1.7c0.2,0.7,0.3,1.4,0.3,2.2c0,0.8-0.1,1.5-0.3,2.2
			c-0.2,0.7-0.5,1.3-0.9,1.7c-0.4,0.5-0.9,0.9-1.5,1.2C257.2,105.5,256.5,105.7,255.7,105.7z M255.7,104.5c1.1,0,1.9-0.4,2.5-1.2
			c0.5-0.8,0.8-1.8,0.8-3.1c0-1.3-0.3-2.4-0.8-3.1c-0.5-0.8-1.4-1.1-2.5-1.1c-1.1,0-1.9,0.4-2.5,1.1c-0.5,0.8-0.8,1.8-0.8,3.1
			c0,1.3,0.3,2.4,0.8,3.1C253.8,104.1,254.7,104.5,255.7,104.5z"/>
		<path id="XMLID_1021_" class="st5" d="M275.6,90.4c0.1,0,0.2,0,0.3,0c0.1,0,0.3,0,0.3,0c0.1,0,0.2,0,0.3,0c0.1,0,0.3,0,0.3,0v14.8
			c-0.4,0.1-1,0.3-1.6,0.3c-0.6,0.1-1.3,0.1-2,0.1c-0.7,0-1.5-0.1-2.1-0.3c-0.7-0.2-1.2-0.5-1.7-0.9s-0.9-1-1.1-1.6
			c-0.3-0.7-0.4-1.5-0.4-2.5c0-0.9,0.1-1.7,0.4-2.4c0.2-0.7,0.6-1.3,1-1.8c0.5-0.5,1-0.9,1.6-1.1c0.6-0.3,1.3-0.4,2.1-0.4
			c0.5,0,0.9,0,1.3,0.1c0.4,0.1,0.8,0.2,1.1,0.3V90.4z M275.6,96.4c-0.3-0.1-0.6-0.2-1-0.3c-0.4-0.1-0.9-0.1-1.3-0.1
			c-0.6,0-1.2,0.1-1.7,0.3c-0.5,0.2-0.9,0.5-1.2,0.9c-0.3,0.4-0.5,0.9-0.7,1.4c-0.2,0.5-0.2,1.1-0.2,1.8c0,1.4,0.3,2.5,1,3.1
			c0.7,0.7,1.6,1,2.9,1c0.5,0,0.9,0,1.3-0.1c0.4,0,0.7-0.1,1-0.2V96.4z"/>
		<path id="XMLID_1018_" class="st5" d="M281.4,100.4c0,1.4,0.3,2.4,1,3.1c0.6,0.7,1.6,1,2.9,1c0.5,0,1,0,1.4-0.1
			c0.4-0.1,0.9-0.2,1.3-0.4c0.1,0.2,0.1,0.3,0.2,0.6c0,0.2,0.1,0.4,0.1,0.6c-0.4,0.2-0.9,0.3-1.4,0.4c-0.5,0.1-1.1,0.1-1.7,0.1
			c-0.9,0-1.7-0.1-2.3-0.4c-0.7-0.3-1.2-0.6-1.6-1.1c-0.4-0.5-0.7-1.1-0.9-1.7c-0.2-0.7-0.3-1.4-0.3-2.2c0-0.8,0.1-1.5,0.3-2.2
			c0.2-0.7,0.5-1.3,0.8-1.8c0.4-0.5,0.9-0.9,1.4-1.2c0.6-0.3,1.3-0.4,2.1-0.4c0.7,0,1.3,0.1,1.8,0.3c0.5,0.2,1,0.6,1.3,1
			c0.4,0.4,0.6,0.9,0.8,1.5c0.2,0.6,0.3,1.2,0.3,1.9c0,0.1,0,0.3,0,0.5c0,0.2,0,0.4,0,0.5H281.4z M287.6,99.3c0-0.4-0.1-0.8-0.2-1.2
			c-0.1-0.4-0.3-0.8-0.5-1.1c-0.2-0.3-0.5-0.6-0.9-0.7c-0.4-0.2-0.8-0.3-1.3-0.3c-1,0-1.7,0.3-2.2,0.9c-0.5,0.6-0.9,1.4-1,2.5H287.6
			z"/>
		<path id="XMLID_1016_" class="st5" d="M297.3,90.7c0.1,0,0.2,0,0.4,0c0.2,0,0.3,0,0.4,0c0.1,0,0.2,0,0.4,0c0.2,0,0.3,0,0.4,0
			l7.1,12.3V90.7c0.1,0,0.2,0,0.3,0c0.1,0,0.2,0,0.4,0c0.1,0,0.2,0,0.4,0c0.1,0,0.2,0,0.3,0v14.7c-0.1,0-0.2,0-0.4,0
			c-0.2,0-0.3,0-0.4,0c-0.1,0-0.2,0-0.4,0c-0.2,0-0.3,0-0.4,0l-7.1-12.2v12.2c-0.1,0-0.2,0-0.3,0c-0.1,0-0.2,0-0.4,0
			c-0.1,0-0.3,0-0.4,0c-0.1,0-0.2,0-0.3,0V90.7z"/>
		<path id="XMLID_1014_" class="st5" d="M311,95c0.1,0,0.2,0,0.3,0c0.1,0,0.3,0,0.3,0c0.1,0,0.2,0,0.3,0c0.1,0,0.3,0,0.3,0v5.9
			c0,0.7,0.1,1.3,0.2,1.8c0.1,0.5,0.4,0.8,0.7,1.1c0.3,0.3,0.7,0.4,1.1,0.6c0.4,0.1,0.9,0.2,1.4,0.2c0.5,0,0.9,0,1.2-0.1
			c0.4,0,0.7-0.1,0.9-0.2V95c0.1,0,0.2,0,0.3,0c0.1,0,0.3,0,0.3,0c0.1,0,0.2,0,0.3,0c0.1,0,0.3,0,0.3,0v10.2
			c-0.5,0.1-1.1,0.3-1.7,0.4c-0.6,0.1-1.3,0.2-1.9,0.2c-0.6,0-1.2-0.1-1.8-0.2c-0.6-0.1-1.1-0.4-1.5-0.7c-0.4-0.3-0.7-0.8-1-1.4
			c-0.2-0.6-0.4-1.4-0.4-2.4V95z"/>
		<path id="XMLID_1012_" class="st5" d="M323.4,96.1h-1.8c0-0.1,0-0.2,0-0.3c0-0.1,0-0.2,0-0.3c0-0.1,0-0.2,0-0.3c0-0.1,0-0.2,0-0.2
			h1.8v-2l1.3-1.2h0.1V95h2.8c0,0.1,0,0.2,0,0.2c0,0.1,0,0.2,0,0.3c0,0.1,0,0.2,0,0.3c0,0.1,0,0.2,0,0.3h-2.8v6.8
			c0,0.3,0,0.6,0.1,0.8c0.1,0.2,0.2,0.4,0.3,0.5c0.1,0.1,0.3,0.2,0.5,0.2c0.2,0,0.4,0.1,0.6,0.1c0.5,0,0.9-0.1,1.2-0.2
			c0.1,0.4,0.2,0.7,0.2,1.2c-0.5,0.1-1.1,0.2-1.7,0.2c-0.8,0-1.4-0.2-1.9-0.6c-0.5-0.4-0.7-1.1-0.7-2V96.1z"/>
		<path id="XMLID_1010_" class="st5" d="M329.9,95c0.1,0,0.2,0,0.3,0c0.1,0,0.2,0,0.3,0c0.1,0,0.2,0,0.3,0c0.1,0,0.2,0,0.3,0
			c0,0.2,0,0.5,0.1,0.9c0,0.3,0,0.6,0,0.9c0.3-0.5,0.7-0.9,1.1-1.3c0.5-0.3,1.1-0.5,1.9-0.5c0.1,0,0.1,0,0.2,0c0.1,0,0.2,0,0.3,0
			c0,0.2,0.1,0.5,0.1,0.7c0,0.2,0,0.4-0.1,0.6c-0.1,0-0.2,0-0.3,0c-0.1,0-0.1,0-0.2,0c-0.9,0-1.7,0.3-2.2,0.9
			c-0.6,0.6-0.8,1.6-0.8,2.9v5.4c-0.1,0-0.2,0-0.3,0c-0.1,0-0.3,0-0.3,0c-0.1,0-0.2,0-0.3,0c-0.1,0-0.3,0-0.3,0V95z"/>
		<path id="XMLID_1007_" class="st5" d="M337.7,96.1h-1.3c0-0.1,0-0.1,0-0.2c0-0.1,0-0.2,0-0.3c0-0.1,0-0.2,0-0.3c0-0.1,0-0.2,0-0.3
			h2.7v10.5c-0.1,0-0.2,0-0.3,0c-0.1,0-0.3,0-0.3,0c-0.1,0-0.2,0-0.3,0c-0.2,0-0.3,0-0.3,0V96.1z M337,92.4c0-0.1,0-0.3,0-0.5
			c0-0.2,0-0.3,0-0.5c0-0.1,0-0.2,0-0.4c0-0.2,0-0.3,0-0.4c0.1,0,0.3,0,0.5,0c0.2,0,0.3,0,0.5,0c0.1,0,0.2,0,0.4,0
			c0.2,0,0.3,0,0.4,0c0,0.1,0,0.2,0,0.4c0,0.2,0,0.3,0,0.4c0,0.1,0,0.3,0,0.5c0,0.2,0,0.3,0,0.5c-0.1,0-0.2,0-0.4,0
			c-0.2,0-0.3,0-0.4,0c-0.1,0-0.3,0-0.5,0C337.3,92.4,337.1,92.4,337,92.4z"/>
		<path id="XMLID_1005_" class="st5" d="M349.6,104.1c0.1,0.1,0.1,0.3,0.2,0.6c0.1,0.2,0.1,0.4,0.1,0.6c-0.3,0.1-0.7,0.2-1.2,0.3
			c-0.4,0.1-0.9,0.1-1.5,0.1c-1.7,0-3-0.5-3.9-1.4c-0.9-0.9-1.3-2.3-1.3-4.1c0-0.8,0.1-1.5,0.3-2.2s0.5-1.2,1-1.7
			c0.4-0.5,1-0.9,1.6-1.2c0.6-0.3,1.4-0.4,2.2-0.4c0.5,0,1,0,1.5,0.1c0.5,0.1,0.8,0.2,1.1,0.3c0,0.2,0,0.4-0.1,0.6
			c0,0.2-0.1,0.4-0.2,0.6c-0.3-0.1-0.6-0.2-1-0.2c-0.4-0.1-0.9-0.1-1.3-0.1c-0.6,0-1.2,0.1-1.6,0.3c-0.5,0.2-0.8,0.5-1.2,0.9
			c-0.3,0.4-0.5,0.8-0.7,1.4c-0.1,0.5-0.2,1.1-0.2,1.7c0,1.5,0.4,2.6,1.1,3.3c0.7,0.7,1.7,1,2.9,1c0.4,0,0.8,0,1.2-0.1
			S349.3,104.2,349.6,104.1z"/>
		<path id="XMLID_1002_" class="st5" d="M353.1,96.1h-1.3c0-0.1,0-0.1,0-0.2c0-0.1,0-0.2,0-0.3c0-0.1,0-0.2,0-0.3c0-0.1,0-0.2,0-0.3
			h2.7v10.5c-0.1,0-0.2,0-0.3,0c-0.1,0-0.3,0-0.3,0c-0.1,0-0.2,0-0.3,0c-0.2,0-0.3,0-0.3,0V96.1z M352.4,92.4c0-0.1,0-0.3,0-0.5
			c0-0.2,0-0.3,0-0.5c0-0.1,0-0.2,0-0.4c0-0.2,0-0.3,0-0.4c0.1,0,0.3,0,0.5,0c0.2,0,0.3,0,0.5,0c0.1,0,0.2,0,0.4,0
			c0.2,0,0.3,0,0.4,0c0,0.1,0,0.2,0,0.4c0,0.2,0,0.3,0,0.4c0,0.1,0,0.3,0,0.5c0,0.2,0,0.3,0,0.5c-0.1,0-0.2,0-0.4,0
			c-0.2,0-0.3,0-0.4,0c-0.1,0-0.3,0-0.5,0C352.7,92.4,352.6,92.4,352.4,92.4z"/>
		<path id="XMLID_998_" class="st5" d="M362.2,105.7c-0.8,0-1.5-0.1-2-0.4c-0.6-0.3-1.1-0.7-1.5-1.2c-0.4-0.5-0.7-1.1-0.9-1.7
			c-0.2-0.7-0.3-1.4-0.3-2.2c0-0.8,0.1-1.5,0.3-2.2c0.2-0.7,0.5-1.2,0.9-1.7c0.4-0.5,0.9-0.9,1.5-1.2c0.6-0.3,1.3-0.4,2-0.4
			s1.5,0.1,2,0.4c0.6,0.3,1.1,0.7,1.5,1.2c0.4,0.5,0.7,1.1,0.9,1.7c0.2,0.7,0.3,1.4,0.3,2.2c0,0.8-0.1,1.5-0.3,2.2
			c-0.2,0.7-0.5,1.3-0.9,1.7c-0.4,0.5-0.9,0.9-1.5,1.2C363.6,105.5,362.9,105.7,362.2,105.7z M362.2,104.5c1.1,0,1.9-0.4,2.5-1.2
			c0.5-0.8,0.8-1.8,0.8-3.1c0-1.3-0.3-2.4-0.8-3.1c-0.5-0.8-1.4-1.1-2.5-1.1c-1.1,0-1.9,0.4-2.5,1.1c-0.5,0.8-0.8,1.8-0.8,3.1
			c0,1.3,0.3,2.4,0.8,3.1C360.3,104.1,361.1,104.5,362.2,104.5z M361.9,93.3c-0.2,0-0.5,0.1-0.8,0.1c-0.2,0-0.4,0-0.7-0.1l2.4-2.7
			c0.2,0,0.3,0,0.5,0c0.2,0,0.3,0,0.5,0c0.2,0,0.3,0,0.5,0c0.2,0,0.3,0,0.5,0L361.9,93.3z"/>
		<path id="XMLID_996_" class="st5" d="M369.9,95c0.1,0,0.2,0,0.3,0c0.1,0,0.2,0,0.3,0c0.1,0,0.2,0,0.3,0c0.1,0,0.2,0,0.3,0
			c0,0.2,0,0.6,0.1,0.9c0,0.4,0,0.7,0,1c0.1-0.2,0.3-0.5,0.5-0.7c0.2-0.3,0.5-0.5,0.8-0.7c0.3-0.2,0.6-0.4,1-0.5
			c0.4-0.1,0.8-0.2,1.3-0.2c1.2,0,2.1,0.4,2.6,1.1c0.5,0.7,0.8,1.7,0.8,3v6.6c-0.1,0-0.2,0-0.3,0c-0.1,0-0.3,0-0.3,0
			c-0.1,0-0.2,0-0.3,0c-0.2,0-0.3,0-0.3,0v-6.2c0-1.2-0.2-2-0.5-2.5c-0.4-0.5-0.9-0.8-1.6-0.8c-0.5,0-0.9,0.1-1.4,0.3
			s-0.8,0.5-1.1,0.8c-0.3,0.4-0.6,0.8-0.7,1.3c-0.2,0.5-0.3,1.1-0.3,1.8v5.2c-0.1,0-0.2,0-0.3,0c-0.1,0-0.3,0-0.3,0
			c-0.1,0-0.2,0-0.3,0c-0.1,0-0.3,0-0.3,0V95z"/>
		<path id="XMLID_994_" class="st5" d="M390.2,105.5h-0.4c-0.1,0-0.3,0-0.4,0c-0.2,0-0.3,0-0.4,0L385.2,95c0.1,0,0.2,0,0.3,0
			c0.1,0,0.3,0,0.4,0c0.1,0,0.2,0,0.4,0c0.2,0,0.3,0,0.4,0l3.5,10.2l3.4-10.2c0.1,0,0.2,0,0.3,0c0.1,0,0.3,0,0.4,0
			c0.1,0,0.2,0,0.4,0c0.1,0,0.2,0,0.3,0l-4.6,13.6c-0.2,0.7-0.6,1.3-1,1.6c-0.5,0.3-1,0.5-1.6,0.5c-0.3,0-0.6,0-0.9-0.1
			c-0.3-0.1-0.5-0.1-0.7-0.2c0-0.4,0.1-0.8,0.3-1.1c0.1,0,0.3,0.1,0.5,0.1c0.2,0,0.5,0.1,0.7,0.1c0.4,0,0.7-0.1,1-0.3
			c0.2-0.2,0.4-0.5,0.6-1.1L390.2,105.5z"/>
		<path id="XMLID_992_" class="st5" d="M403.1,90.7c0.1,0,0.2,0,0.4,0c0.2,0,0.3,0,0.5,0c0.2,0,0.3,0,0.5,0c0.2,0,0.3,0,0.4,0
			l4.1,9.8l4.1-9.8c0.1,0,0.2,0,0.4,0c0.2,0,0.3,0,0.5,0c0.1,0,0.3,0,0.5,0c0.2,0,0.3,0,0.4,0l0.7,14.7c-0.1,0-0.2,0-0.3,0
			c-0.1,0-0.2,0-0.4,0c-0.1,0-0.3,0-0.4,0c-0.1,0-0.2,0-0.3,0l-0.5-12.5l-4.1,9.5c-0.1,0-0.2,0-0.3,0c-0.1,0-0.2,0-0.3,0
			c-0.1,0-0.2,0-0.3,0s-0.2,0-0.3,0l-4-9.5l-0.6,12.6c-0.1,0-0.2,0-0.3,0c-0.1,0-0.2,0-0.4,0c-0.1,0-0.3,0-0.4,0c-0.1,0-0.2,0-0.3,0
			L403.1,90.7z"/>
		<path id="XMLID_989_" class="st5" d="M420,100.4c0,1.4,0.3,2.4,1,3.1c0.6,0.7,1.6,1,2.9,1c0.5,0,1,0,1.4-0.1
			c0.4-0.1,0.9-0.2,1.3-0.4c0.1,0.2,0.1,0.3,0.2,0.6c0,0.2,0.1,0.4,0.1,0.6c-0.4,0.2-0.9,0.3-1.4,0.4c-0.5,0.1-1.1,0.1-1.7,0.1
			c-0.9,0-1.7-0.1-2.3-0.4c-0.7-0.3-1.2-0.6-1.6-1.1c-0.4-0.5-0.7-1.1-0.9-1.7c-0.2-0.7-0.3-1.4-0.3-2.2c0-0.8,0.1-1.5,0.3-2.2
			c0.2-0.7,0.5-1.3,0.8-1.8c0.4-0.5,0.9-0.9,1.4-1.2c0.6-0.3,1.3-0.4,2.1-0.4c0.7,0,1.3,0.1,1.8,0.3c0.5,0.2,1,0.6,1.3,1
			c0.4,0.4,0.6,0.9,0.8,1.5c0.2,0.6,0.3,1.2,0.3,1.9c0,0.1,0,0.3,0,0.5c0,0.2,0,0.4,0,0.5H420z M426.1,99.3c0-0.4-0.1-0.8-0.2-1.2
			c-0.1-0.4-0.3-0.8-0.5-1.1c-0.2-0.3-0.5-0.6-0.9-0.7c-0.4-0.2-0.8-0.3-1.3-0.3c-1,0-1.7,0.3-2.2,0.9c-0.5,0.6-0.9,1.4-1,2.5H426.1
			z"/>
		<path id="XMLID_987_" class="st5" d="M430.9,96.1h-1.8c0-0.1,0-0.2,0-0.3c0-0.1,0-0.2,0-0.3c0-0.1,0-0.2,0-0.3c0-0.1,0-0.2,0-0.2
			h1.8v-2l1.3-1.2h0.1V95h2.8c0,0.1,0,0.2,0,0.2c0,0.1,0,0.2,0,0.3c0,0.1,0,0.2,0,0.3c0,0.1,0,0.2,0,0.3h-2.8v6.8
			c0,0.3,0,0.6,0.1,0.8c0.1,0.2,0.2,0.4,0.3,0.5c0.1,0.1,0.3,0.2,0.5,0.2c0.2,0,0.4,0.1,0.6,0.1c0.5,0,0.9-0.1,1.2-0.2
			c0.1,0.4,0.2,0.7,0.2,1.2c-0.5,0.1-1.1,0.2-1.7,0.2c-0.8,0-1.4-0.2-1.9-0.6c-0.5-0.4-0.7-1.1-0.7-2V96.1z"/>
		<path id="XMLID_984_" class="st5" d="M443.2,98.5c0-0.9-0.2-1.6-0.6-2c-0.4-0.4-1.1-0.6-1.9-0.6c-0.5,0-1,0-1.5,0.1
			c-0.5,0.1-0.9,0.2-1.2,0.3c-0.1-0.1-0.1-0.3-0.2-0.5c-0.1-0.2-0.1-0.5-0.1-0.7c0.4-0.1,0.8-0.2,1.3-0.3c0.5-0.1,1.1-0.1,1.6-0.1
			c1.3,0,2.3,0.3,3,0.9c0.6,0.6,1,1.5,1,2.7v6.9c-0.5,0.1-1.1,0.2-1.7,0.3c-0.7,0.1-1.3,0.1-1.9,0.1c-1.3,0-2.3-0.3-3-0.8
			c-0.7-0.5-1.1-1.3-1.1-2.5c0-0.5,0.1-1,0.3-1.5c0.2-0.4,0.5-0.8,0.9-1.1c0.4-0.3,0.8-0.5,1.4-0.7c0.5-0.2,1.1-0.2,1.7-0.2
			c0.5,0,0.9,0,1.3,0.1s0.6,0.1,0.9,0.1V98.5z M443.2,100.3c-0.2,0-0.5-0.1-0.9-0.1c-0.3,0-0.7-0.1-1-0.1c-1,0-1.8,0.2-2.4,0.6
			c-0.6,0.4-0.8,0.9-0.8,1.6c0,0.4,0.1,0.8,0.3,1.1c0.2,0.3,0.4,0.5,0.7,0.6c0.3,0.1,0.6,0.2,0.9,0.3c0.3,0,0.7,0.1,1,0.1
			c0.4,0,0.8,0,1.2-0.1c0.4,0,0.7-0.1,1.1-0.2V100.3z"/>
		<path id="XMLID_981_" class="st5" d="M447.9,90.4c0.1,0,0.2,0,0.3,0c0.1,0,0.3,0,0.3,0c0.1,0,0.2,0,0.3,0c0.2,0,0.3,0,0.3,0v6.1
			c0.3-0.4,0.7-0.8,1.2-1.2c0.5-0.3,1.2-0.5,2.1-0.5c0.6,0,1.2,0.1,1.8,0.3c0.5,0.2,1,0.5,1.4,0.9c0.4,0.4,0.7,1,0.9,1.6
			c0.2,0.6,0.3,1.4,0.3,2.3c0,1.8-0.5,3.2-1.5,4.3c-1,1-2.4,1.5-4.3,1.5c-0.6,0-1.2-0.1-1.8-0.2c-0.6-0.1-1-0.2-1.4-0.4V90.4z
			 M449.3,104.2c0.3,0.1,0.6,0.2,1,0.2c0.3,0,0.7,0.1,1.1,0.1c0.5,0,1.1-0.1,1.6-0.3c0.5-0.2,0.9-0.5,1.3-0.8
			c0.4-0.4,0.7-0.8,0.9-1.4c0.2-0.6,0.3-1.2,0.3-2c0-1.2-0.2-2.2-0.7-2.9c-0.5-0.7-1.2-1.1-2.3-1.1c-0.3,0-0.7,0.1-1.1,0.2
			c-0.4,0.1-0.7,0.3-1.1,0.6c-0.3,0.3-0.6,0.6-0.8,1c-0.2,0.4-0.3,1-0.3,1.6V104.2z"/>
		<path id="XMLID_978_" class="st5" d="M464.1,105.7c-0.8,0-1.5-0.1-2-0.4s-1.1-0.7-1.5-1.2c-0.4-0.5-0.7-1.1-0.9-1.7
			c-0.2-0.7-0.3-1.4-0.3-2.2c0-0.8,0.1-1.5,0.3-2.2c0.2-0.7,0.5-1.2,0.9-1.7c0.4-0.5,0.9-0.9,1.5-1.2c0.6-0.3,1.3-0.4,2-0.4
			s1.5,0.1,2,0.4c0.6,0.3,1.1,0.7,1.5,1.2c0.4,0.5,0.7,1.1,0.9,1.7c0.2,0.7,0.3,1.4,0.3,2.2c0,0.8-0.1,1.5-0.3,2.2
			c-0.2,0.7-0.5,1.3-0.9,1.7c-0.4,0.5-0.9,0.9-1.5,1.2C465.6,105.5,464.9,105.7,464.1,105.7z M464.1,104.5c1.1,0,1.9-0.4,2.5-1.2
			c0.5-0.8,0.8-1.8,0.8-3.1c0-1.3-0.3-2.4-0.8-3.1c-0.5-0.8-1.4-1.1-2.5-1.1c-1.1,0-1.9,0.4-2.5,1.1c-0.5,0.8-0.8,1.8-0.8,3.1
			c0,1.3,0.3,2.4,0.8,3.1S463,104.5,464.1,104.5z"/>
		<path id="XMLID_976_" class="st5" d="M471.8,90.4c0.1,0,0.2,0,0.3,0c0.1,0,0.3,0,0.3,0c0.1,0,0.2,0,0.3,0c0.2,0,0.3,0,0.3,0V103
			c0,0.4,0,0.6,0.1,0.8c0.1,0.2,0.2,0.3,0.3,0.4c0.1,0.1,0.3,0.1,0.4,0.2c0.2,0,0.3,0,0.4,0c0.1,0,0.3,0,0.5,0c0.2,0,0.3,0,0.4-0.1
			c0.1,0.2,0.1,0.3,0.1,0.5c0,0.2,0.1,0.4,0.1,0.5c-0.2,0.1-0.4,0.1-0.6,0.1c-0.2,0-0.5,0-0.7,0c-0.3,0-0.6,0-0.9-0.1
			c-0.3-0.1-0.5-0.2-0.8-0.3s-0.4-0.4-0.5-0.7s-0.2-0.7-0.2-1.2V90.4z"/>
		<path id="XMLID_973_" class="st5" d="M478.2,96.1h-1.3c0-0.1,0-0.1,0-0.2c0-0.1,0-0.2,0-0.3c0-0.1,0-0.2,0-0.3c0-0.1,0-0.2,0-0.3
			h2.7v10.5c-0.1,0-0.2,0-0.3,0c-0.1,0-0.3,0-0.3,0c-0.1,0-0.2,0-0.3,0c-0.2,0-0.3,0-0.3,0V96.1z M477.5,92.4c0-0.1,0-0.3,0-0.5
			c0-0.2,0-0.3,0-0.5c0-0.1,0-0.2,0-0.4c0-0.2,0-0.3,0-0.4c0.1,0,0.3,0,0.5,0c0.2,0,0.3,0,0.5,0c0.1,0,0.2,0,0.4,0
			c0.2,0,0.3,0,0.4,0c0,0.1,0,0.2,0,0.4c0,0.2,0,0.3,0,0.4c0,0.1,0,0.3,0,0.5c0,0.2,0,0.3,0,0.5c-0.1,0-0.2,0-0.4,0
			c-0.2,0-0.3,0-0.4,0c-0.1,0-0.3,0-0.5,0C477.8,92.4,477.6,92.4,477.5,92.4z"/>
		<path id="XMLID_971_" class="st5" d="M482.8,104c0.3,0.1,0.7,0.2,1.2,0.3c0.5,0.1,0.9,0.1,1.4,0.1c0.8,0,1.5-0.2,1.9-0.5
			c0.5-0.4,0.7-0.8,0.7-1.3c0-0.4-0.1-0.7-0.2-0.9c-0.1-0.2-0.3-0.4-0.6-0.6c-0.2-0.2-0.5-0.3-0.8-0.4c-0.3-0.1-0.6-0.2-0.9-0.3
			c-0.3-0.1-0.7-0.2-1-0.4c-0.3-0.1-0.6-0.3-0.9-0.5c-0.3-0.2-0.5-0.5-0.6-0.8c-0.2-0.3-0.2-0.7-0.2-1.1c0-0.8,0.3-1.5,0.9-2
			c0.6-0.5,1.5-0.8,2.8-0.8c0.5,0,1,0,1.5,0.1c0.5,0.1,0.9,0.2,1.2,0.3c-0.1,0.4-0.2,0.8-0.3,1.2c-0.3-0.1-0.7-0.2-1.1-0.3
			c-0.4-0.1-0.9-0.1-1.4-0.1c-0.8,0-1.4,0.1-1.8,0.4c-0.3,0.3-0.5,0.7-0.5,1.2c0,0.3,0.1,0.5,0.2,0.7c0.1,0.2,0.3,0.3,0.5,0.5
			c0.2,0.1,0.4,0.2,0.7,0.3c0.3,0.1,0.5,0.2,0.8,0.3c0.4,0.1,0.7,0.3,1.1,0.4c0.4,0.1,0.7,0.3,1,0.6c0.3,0.2,0.6,0.5,0.8,0.9
			c0.2,0.4,0.3,0.8,0.3,1.3c0,0.5-0.1,0.9-0.3,1.3c-0.2,0.4-0.5,0.7-0.8,1c-0.4,0.3-0.8,0.5-1.3,0.6c-0.5,0.1-1,0.2-1.6,0.2
			c-0.7,0-1.2,0-1.8-0.1c-0.5-0.1-0.9-0.2-1.2-0.3C482.5,104.8,482.7,104.4,482.8,104z"/>
		<path id="XMLID_969_" class="st5" d="M492.4,95c0.1,0,0.2,0,0.3,0c0.1,0,0.2,0,0.3,0c0.1,0,0.2,0,0.3,0c0.1,0,0.2,0,0.3,0
			c0,0.2,0,0.5,0.1,0.9c0,0.3,0,0.7,0,0.9c0.1-0.3,0.3-0.5,0.5-0.8s0.4-0.5,0.7-0.7c0.3-0.2,0.6-0.3,0.9-0.5
			c0.3-0.1,0.7-0.2,1.1-0.2c0.4,0,0.7,0,1,0.1c0.3,0.1,0.5,0.2,0.7,0.4c0.2,0.2,0.4,0.4,0.5,0.6c0.1,0.2,0.3,0.5,0.4,0.8
			c0.1-0.2,0.3-0.4,0.5-0.7c0.2-0.2,0.4-0.4,0.7-0.6c0.2-0.2,0.5-0.3,0.9-0.5c0.3-0.1,0.7-0.2,1.1-0.2c1.2,0,2.1,0.3,2.6,1
			c0.5,0.7,0.8,1.7,0.8,3v6.7c-0.1,0-0.2,0-0.3,0c-0.1,0-0.3,0-0.3,0c-0.1,0-0.2,0-0.3,0c-0.1,0-0.3,0-0.3,0v-6.2
			c0-1.1-0.2-1.9-0.5-2.5s-0.9-0.8-1.6-0.8c-0.4,0-0.8,0.1-1.1,0.3c-0.3,0.2-0.6,0.4-0.8,0.7c-0.2,0.3-0.4,0.7-0.5,1.1
			c-0.1,0.4-0.2,0.8-0.2,1.3v6.1c-0.1,0-0.2,0-0.3,0c-0.1,0-0.3,0-0.3,0c-0.1,0-0.2,0-0.3,0c-0.2,0-0.3,0-0.3,0V99
			c0-1.1-0.2-1.8-0.5-2.3c-0.3-0.5-0.8-0.8-1.4-0.8c-0.4,0-0.8,0.1-1.2,0.3c-0.4,0.2-0.7,0.5-0.9,0.9c-0.3,0.4-0.5,0.8-0.6,1.4
			c-0.1,0.5-0.2,1.1-0.2,1.7v5.2c-0.1,0-0.2,0-0.3,0c-0.1,0-0.3,0-0.3,0c-0.1,0-0.2,0-0.3,0c-0.1,0-0.3,0-0.3,0V95z"/>
		<path id="XMLID_966_" class="st5" d="M513.6,105.7c-0.8,0-1.5-0.1-2-0.4s-1.1-0.7-1.5-1.2c-0.4-0.5-0.7-1.1-0.9-1.7
			c-0.2-0.7-0.3-1.4-0.3-2.2c0-0.8,0.1-1.5,0.3-2.2c0.2-0.7,0.5-1.2,0.9-1.7c0.4-0.5,0.9-0.9,1.5-1.2c0.6-0.3,1.3-0.4,2-0.4
			s1.5,0.1,2,0.4c0.6,0.3,1.1,0.7,1.5,1.2c0.4,0.5,0.7,1.1,0.9,1.7c0.2,0.7,0.3,1.4,0.3,2.2c0,0.8-0.1,1.5-0.3,2.2
			c-0.2,0.7-0.5,1.3-0.9,1.7c-0.4,0.5-0.9,0.9-1.5,1.2S514.4,105.7,513.6,105.7z M513.6,104.5c1.1,0,1.9-0.4,2.5-1.2
			c0.5-0.8,0.8-1.8,0.8-3.1c0-1.3-0.3-2.4-0.8-3.1c-0.5-0.8-1.4-1.1-2.5-1.1c-1.1,0-1.9,0.4-2.5,1.1c-0.5,0.8-0.8,1.8-0.8,3.1
			c0,1.3,0.3,2.4,0.8,3.1C511.7,104.1,512.5,104.5,513.6,104.5z"/>
		<path id="XMLID_964_" class="st5" d="M526.7,90.7c0.1,0,0.2,0,0.3,0c0.1,0,0.3,0,0.4,0c0.1,0,0.2,0,0.4,0c0.1,0,0.2,0,0.3,0v14.7
			c-0.1,0-0.2,0-0.3,0c-0.1,0-0.2,0-0.4,0c-0.1,0-0.3,0-0.4,0c-0.1,0-0.2,0-0.3,0V90.7z"/>
		<path id="XMLID_962_" class="st5" d="M532,95c0.1,0,0.2,0,0.3,0c0.1,0,0.2,0,0.3,0c0.1,0,0.2,0,0.3,0c0.1,0,0.2,0,0.3,0
			c0,0.2,0,0.6,0.1,0.9c0,0.4,0,0.7,0,1c0.1-0.2,0.3-0.5,0.5-0.7c0.2-0.3,0.5-0.5,0.8-0.7c0.3-0.2,0.6-0.4,1-0.5
			c0.4-0.1,0.8-0.2,1.3-0.2c1.2,0,2.1,0.4,2.6,1.1c0.5,0.7,0.8,1.7,0.8,3v6.6c-0.1,0-0.2,0-0.3,0c-0.1,0-0.3,0-0.3,0
			c-0.1,0-0.2,0-0.3,0c-0.2,0-0.3,0-0.3,0v-6.2c0-1.2-0.2-2-0.5-2.5c-0.4-0.5-0.9-0.8-1.6-0.8c-0.5,0-0.9,0.1-1.4,0.3
			s-0.8,0.5-1.1,0.8c-0.3,0.4-0.6,0.8-0.7,1.3c-0.2,0.5-0.3,1.1-0.3,1.8v5.2c-0.1,0-0.2,0-0.3,0c-0.1,0-0.3,0-0.3,0
			c-0.1,0-0.2,0-0.3,0c-0.1,0-0.3,0-0.3,0V95z"/>
		<path id="XMLID_960_" class="st5" d="M544.2,96.1h-1.8c0-0.1,0-0.2,0-0.3c0-0.1,0-0.2,0-0.3c0-0.1,0-0.2,0-0.3c0-0.1,0-0.2,0-0.2
			h1.8v-2l1.3-1.2h0.1V95h2.8c0,0.1,0,0.2,0,0.2c0,0.1,0,0.2,0,0.3c0,0.1,0,0.2,0,0.3c0,0.1,0,0.2,0,0.3h-2.8v6.8
			c0,0.3,0,0.6,0.1,0.8c0.1,0.2,0.2,0.4,0.3,0.5c0.1,0.1,0.3,0.2,0.5,0.2c0.2,0,0.4,0.1,0.6,0.1c0.5,0,0.9-0.1,1.2-0.2
			c0.1,0.4,0.2,0.7,0.2,1.2c-0.5,0.1-1.1,0.2-1.7,0.2c-0.8,0-1.4-0.2-1.9-0.6c-0.5-0.4-0.7-1.1-0.7-2V96.1z"/>
		<path id="XMLID_957_" class="st5" d="M551.5,100.4c0,1.4,0.3,2.4,1,3.1s1.6,1,2.9,1c0.5,0,1,0,1.4-0.1c0.4-0.1,0.9-0.2,1.3-0.4
			c0.1,0.2,0.1,0.3,0.2,0.6c0,0.2,0.1,0.4,0.1,0.6c-0.4,0.2-0.9,0.3-1.4,0.4s-1.1,0.1-1.7,0.1c-0.9,0-1.7-0.1-2.3-0.4
			c-0.7-0.3-1.2-0.6-1.6-1.1c-0.4-0.5-0.7-1.1-0.9-1.7c-0.2-0.7-0.3-1.4-0.3-2.2c0-0.8,0.1-1.5,0.3-2.2c0.2-0.7,0.5-1.3,0.8-1.8
			c0.4-0.5,0.9-0.9,1.4-1.2c0.6-0.3,1.3-0.4,2.1-0.4c0.7,0,1.3,0.1,1.8,0.3c0.5,0.2,1,0.6,1.3,1c0.4,0.4,0.6,0.9,0.8,1.5
			c0.2,0.6,0.3,1.2,0.3,1.9c0,0.1,0,0.3,0,0.5c0,0.2,0,0.4,0,0.5H551.5z M557.7,99.3c0-0.4-0.1-0.8-0.2-1.2
			c-0.1-0.4-0.3-0.8-0.5-1.1c-0.2-0.3-0.5-0.6-0.9-0.7s-0.8-0.3-1.3-0.3c-1,0-1.7,0.3-2.2,0.9c-0.5,0.6-0.9,1.4-1,2.5H557.7z"/>
		<path id="XMLID_952_" class="st5" d="M567.2,104.4c1.2,0,2.1,0.3,2.6,0.7c0.5,0.5,0.8,1.1,0.8,1.9c0,0.5-0.1,1-0.4,1.4
			c-0.3,0.4-0.7,0.8-1.2,1.1c-0.5,0.3-1.1,0.5-1.8,0.7c-0.7,0.2-1.4,0.3-2.2,0.3c-0.6,0-1.2,0-1.7-0.1c-0.5-0.1-1-0.3-1.3-0.5
			c-0.4-0.2-0.7-0.5-0.9-0.8s-0.3-0.8-0.3-1.3c0-0.5,0.1-1,0.4-1.5c0.3-0.5,0.7-0.8,1.2-1.1c-0.3-0.2-0.5-0.4-0.7-0.6
			c-0.2-0.3-0.3-0.6-0.3-0.9c0-0.5,0.1-1,0.4-1.3c0.3-0.4,0.6-0.7,1-1c-0.5-0.3-0.9-0.7-1.1-1.2c-0.3-0.5-0.4-1.1-0.4-1.8
			c0-0.5,0.1-1,0.3-1.4c0.2-0.4,0.4-0.8,0.8-1.2c0.3-0.3,0.8-0.6,1.3-0.8c0.5-0.2,1.1-0.3,1.7-0.3c0.6,0,1.1,0.1,1.5,0.2
			c0.4,0.1,0.8,0.3,1.2,0.6c0.1-0.1,0.3-0.1,0.5-0.2s0.4-0.1,0.7-0.2c0.2,0,0.5-0.1,0.8-0.1c0.3,0,0.5-0.1,0.8-0.1
			c0.1,0.2,0.1,0.4,0.1,0.7c0,0.3,0,0.5-0.1,0.7h-1.9c0.2,0.3,0.3,0.6,0.4,1c0.1,0.3,0.2,0.7,0.2,1.1c0,0.6-0.1,1.1-0.3,1.6
			c-0.2,0.5-0.5,0.8-0.8,1.1s-0.8,0.5-1.3,0.7c-0.5,0.2-1,0.2-1.6,0.2c-0.6,0-1.1-0.1-1.5-0.2c-0.4,0.2-0.7,0.5-0.8,0.7
			s-0.2,0.5-0.2,0.8c0,0.1,0,0.3,0.1,0.4c0,0.1,0.1,0.2,0.3,0.3c0.1,0.1,0.3,0.2,0.5,0.2c0.2,0.1,0.5,0.1,0.9,0.1L567.2,104.4z
			 M564.3,105.6c-0.6,0-1.2,0.2-1.5,0.5c-0.4,0.4-0.6,0.9-0.6,1.5c0,0.3,0.1,0.6,0.2,0.8c0.2,0.2,0.4,0.4,0.6,0.5
			c0.3,0.1,0.6,0.2,0.9,0.3c0.4,0,0.7,0.1,1.1,0.1c1.3,0,2.3-0.2,3-0.6c0.7-0.4,1.1-0.9,1.1-1.5c0-0.5-0.2-0.9-0.5-1.1
			c-0.4-0.2-0.9-0.3-1.7-0.3L564.3,105.6z M562.8,98.4c0,0.7,0.2,1.3,0.6,1.8c0.4,0.5,1.1,0.7,2,0.7c0.9,0,1.5-0.2,2-0.7
			c0.4-0.5,0.6-1.1,0.6-1.8c0-0.7-0.2-1.3-0.6-1.8c-0.4-0.5-1.1-0.7-2-0.7c-0.9,0-1.5,0.2-2,0.7C563,97.1,562.8,97.7,562.8,98.4z"/>
		<path id="XMLID_950_" class="st5" d="M572.8,95c0.1,0,0.2,0,0.3,0c0.1,0,0.2,0,0.3,0c0.1,0,0.2,0,0.3,0c0.1,0,0.2,0,0.3,0
			c0,0.2,0,0.5,0.1,0.9c0,0.3,0,0.6,0,0.9c0.3-0.5,0.7-0.9,1.1-1.3c0.5-0.3,1.1-0.5,1.9-0.5c0.1,0,0.1,0,0.2,0c0.1,0,0.2,0,0.3,0
			c0,0.2,0.1,0.5,0.1,0.7c0,0.2,0,0.4-0.1,0.6c-0.1,0-0.2,0-0.3,0c-0.1,0-0.1,0-0.2,0c-0.9,0-1.7,0.3-2.2,0.9
			c-0.6,0.6-0.8,1.6-0.8,2.9v5.4c-0.1,0-0.2,0-0.3,0c-0.1,0-0.3,0-0.3,0c-0.1,0-0.2,0-0.3,0c-0.1,0-0.3,0-0.3,0V95z"/>
		<path id="XMLID_947_" class="st5" d="M585.5,98.5c0-0.9-0.2-1.6-0.6-2c-0.4-0.4-1.1-0.6-1.9-0.6c-0.5,0-1,0-1.5,0.1
			c-0.5,0.1-0.9,0.2-1.2,0.3c-0.1-0.1-0.1-0.3-0.2-0.5c-0.1-0.2-0.1-0.5-0.1-0.7c0.4-0.1,0.8-0.2,1.3-0.3c0.5-0.1,1.1-0.1,1.6-0.1
			c1.3,0,2.3,0.3,3,0.9c0.6,0.6,1,1.5,1,2.7v6.9c-0.5,0.1-1.1,0.2-1.7,0.3c-0.7,0.1-1.3,0.1-1.9,0.1c-1.3,0-2.3-0.3-3-0.8
			c-0.7-0.5-1.1-1.3-1.1-2.5c0-0.5,0.1-1,0.3-1.5c0.2-0.4,0.5-0.8,0.9-1.1c0.4-0.3,0.8-0.5,1.4-0.7c0.5-0.2,1.1-0.2,1.7-0.2
			c0.5,0,0.9,0,1.3,0.1s0.6,0.1,0.9,0.1V98.5z M585.5,100.3c-0.2,0-0.5-0.1-0.9-0.1c-0.3,0-0.7-0.1-1-0.1c-1,0-1.8,0.2-2.4,0.6
			c-0.6,0.4-0.8,0.9-0.8,1.6c0,0.4,0.1,0.8,0.3,1.1c0.2,0.3,0.4,0.5,0.7,0.6c0.3,0.1,0.6,0.2,0.9,0.3c0.3,0,0.7,0.1,1,0.1
			c0.4,0,0.8,0,1.2-0.1c0.4,0,0.7-0.1,1.1-0.2V100.3z"/>
		<path id="XMLID_945_" class="st5" d="M590.3,90.4c0.1,0,0.2,0,0.3,0c0.1,0,0.3,0,0.3,0c0.1,0,0.2,0,0.3,0c0.2,0,0.3,0,0.3,0V103
			c0,0.4,0,0.6,0.1,0.8c0.1,0.2,0.2,0.3,0.3,0.4c0.1,0.1,0.3,0.1,0.4,0.2c0.2,0,0.3,0,0.4,0c0.1,0,0.3,0,0.5,0c0.2,0,0.3,0,0.4-0.1
			c0.1,0.2,0.1,0.3,0.1,0.5c0,0.2,0.1,0.4,0.1,0.5c-0.2,0.1-0.4,0.1-0.6,0.1c-0.2,0-0.5,0-0.7,0c-0.3,0-0.6,0-0.9-0.1
			c-0.3-0.1-0.5-0.2-0.8-0.3c-0.2-0.2-0.4-0.4-0.5-0.7s-0.2-0.7-0.2-1.2V90.4z"/>
	</g>
</g>
</svg>
